solid OpenSCAD_Model
  facet normal 0.994522 0.104525 0
    outer loop
      vertex 60 0 10
      vertex 58.6889 12.4747 0
      vertex 58.6889 12.4747 10
    endloop
  endfacet
  facet normal 0.994522 0.104525 0
    outer loop
      vertex 58.6889 12.4747 0
      vertex 60 0 10
      vertex 60 0 0
    endloop
  endfacet
  facet normal 0.951055 0.309022 0
    outer loop
      vertex 58.6889 12.4747 10
      vertex 54.8127 24.4042 0
      vertex 54.8127 24.4042 10
    endloop
  endfacet
  facet normal 0.951055 0.309022 0
    outer loop
      vertex 54.8127 24.4042 0
      vertex 58.6889 12.4747 10
      vertex 58.6889 12.4747 0
    endloop
  endfacet
  facet normal 0.866025 0.5 0
    outer loop
      vertex 54.8127 24.4042 10
      vertex 48.541 35.2671 0
      vertex 48.541 35.2671 10
    endloop
  endfacet
  facet normal 0.866025 0.5 0
    outer loop
      vertex 48.541 35.2671 0
      vertex 54.8127 24.4042 10
      vertex 54.8127 24.4042 0
    endloop
  endfacet
  facet normal 0.743145 0.66913 0
    outer loop
      vertex 48.541 35.2671 10
      vertex 40.1478 44.5887 0
      vertex 40.1478 44.5887 10
    endloop
  endfacet
  facet normal 0.743145 0.66913 0
    outer loop
      vertex 40.1478 44.5887 0
      vertex 48.541 35.2671 10
      vertex 48.541 35.2671 0
    endloop
  endfacet
  facet normal 0.587785 0.809017 -0
    outer loop
      vertex 40.1478 44.5887 0
      vertex 30 51.9615 10
      vertex 40.1478 44.5887 10
    endloop
  endfacet
  facet normal 0.587785 0.809017 0
    outer loop
      vertex 30 51.9615 10
      vertex 40.1478 44.5887 0
      vertex 30 51.9615 0
    endloop
  endfacet
  facet normal 0.406738 0.913545 -0
    outer loop
      vertex 30 51.9615 0
      vertex 18.541 57.0634 10
      vertex 30 51.9615 10
    endloop
  endfacet
  facet normal 0.406738 0.913545 0
    outer loop
      vertex 18.541 57.0634 10
      vertex 30 51.9615 0
      vertex 18.541 57.0634 0
    endloop
  endfacet
  facet normal 0.20791 0.978148 -0
    outer loop
      vertex 18.541 57.0634 0
      vertex 6.27171 59.6713 10
      vertex 18.541 57.0634 10
    endloop
  endfacet
  facet normal 0.20791 0.978148 0
    outer loop
      vertex 6.27171 59.6713 10
      vertex 18.541 57.0634 0
      vertex 6.27171 59.6713 0
    endloop
  endfacet
  facet normal 0 1 -0
    outer loop
      vertex 6.27171 59.6713 0
      vertex -6.27171 59.6713 10
      vertex 6.27171 59.6713 10
    endloop
  endfacet
  facet normal 0 1 0
    outer loop
      vertex -6.27171 59.6713 10
      vertex 6.27171 59.6713 0
      vertex -6.27171 59.6713 0
    endloop
  endfacet
  facet normal -0.20791 0.978148 0
    outer loop
      vertex -6.27171 59.6713 0
      vertex -18.541 57.0634 10
      vertex -6.27171 59.6713 10
    endloop
  endfacet
  facet normal -0.20791 0.978148 0
    outer loop
      vertex -18.541 57.0634 10
      vertex -6.27171 59.6713 0
      vertex -18.541 57.0634 0
    endloop
  endfacet
  facet normal -0.406738 0.913545 0
    outer loop
      vertex -18.541 57.0634 0
      vertex -30 51.9615 10
      vertex -18.541 57.0634 10
    endloop
  endfacet
  facet normal -0.406738 0.913545 0
    outer loop
      vertex -30 51.9615 10
      vertex -18.541 57.0634 0
      vertex -30 51.9615 0
    endloop
  endfacet
  facet normal -0.587785 0.809017 0
    outer loop
      vertex -30 51.9615 0
      vertex -40.1478 44.5887 10
      vertex -30 51.9615 10
    endloop
  endfacet
  facet normal -0.587785 0.809017 0
    outer loop
      vertex -40.1478 44.5887 10
      vertex -30 51.9615 0
      vertex -40.1478 44.5887 0
    endloop
  endfacet
  facet normal -0.743145 0.66913 0
    outer loop
      vertex -48.541 35.2671 0
      vertex -40.1478 44.5887 10
      vertex -40.1478 44.5887 0
    endloop
  endfacet
  facet normal -0.743145 0.66913 0
    outer loop
      vertex -40.1478 44.5887 10
      vertex -48.541 35.2671 0
      vertex -48.541 35.2671 10
    endloop
  endfacet
  facet normal -0.866025 0.5 0
    outer loop
      vertex -54.8127 24.4042 0
      vertex -48.541 35.2671 10
      vertex -48.541 35.2671 0
    endloop
  endfacet
  facet normal -0.866025 0.5 0
    outer loop
      vertex -48.541 35.2671 10
      vertex -54.8127 24.4042 0
      vertex -54.8127 24.4042 10
    endloop
  endfacet
  facet normal -0.951055 0.309022 0
    outer loop
      vertex -58.6889 12.4747 0
      vertex -54.8127 24.4042 10
      vertex -54.8127 24.4042 0
    endloop
  endfacet
  facet normal -0.951055 0.309022 0
    outer loop
      vertex -54.8127 24.4042 10
      vertex -58.6889 12.4747 0
      vertex -58.6889 12.4747 10
    endloop
  endfacet
  facet normal -0.994522 0.104525 0
    outer loop
      vertex -60 -0 0
      vertex -58.6889 12.4747 10
      vertex -58.6889 12.4747 0
    endloop
  endfacet
  facet normal -0.994522 0.104525 0
    outer loop
      vertex -58.6889 12.4747 10
      vertex -60 -0 0
      vertex -60 -0 10
    endloop
  endfacet
  facet normal -0.994522 -0.104525 0
    outer loop
      vertex -58.6889 -12.4747 0
      vertex -60 -0 10
      vertex -60 -0 0
    endloop
  endfacet
  facet normal -0.994522 -0.104525 0
    outer loop
      vertex -60 -0 10
      vertex -58.6889 -12.4747 0
      vertex -58.6889 -12.4747 10
    endloop
  endfacet
  facet normal -0.951055 -0.309022 0
    outer loop
      vertex -54.8127 -24.4042 0
      vertex -58.6889 -12.4747 10
      vertex -58.6889 -12.4747 0
    endloop
  endfacet
  facet normal -0.951055 -0.309022 0
    outer loop
      vertex -58.6889 -12.4747 10
      vertex -54.8127 -24.4042 0
      vertex -54.8127 -24.4042 10
    endloop
  endfacet
  facet normal -0.866025 -0.5 0
    outer loop
      vertex -48.541 -35.2671 0
      vertex -54.8127 -24.4042 10
      vertex -54.8127 -24.4042 0
    endloop
  endfacet
  facet normal -0.866025 -0.5 0
    outer loop
      vertex -54.8127 -24.4042 10
      vertex -48.541 -35.2671 0
      vertex -48.541 -35.2671 10
    endloop
  endfacet
  facet normal -0.743145 -0.66913 0
    outer loop
      vertex -40.1478 -44.5887 0
      vertex -48.541 -35.2671 10
      vertex -48.541 -35.2671 0
    endloop
  endfacet
  facet normal -0.743145 -0.66913 0
    outer loop
      vertex -48.541 -35.2671 10
      vertex -40.1478 -44.5887 0
      vertex -40.1478 -44.5887 10
    endloop
  endfacet
  facet normal -0.587785 -0.809017 0
    outer loop
      vertex -40.1478 -44.5887 0
      vertex -30 -51.9615 10
      vertex -40.1478 -44.5887 10
    endloop
  endfacet
  facet normal -0.587785 -0.809017 -0
    outer loop
      vertex -30 -51.9615 10
      vertex -40.1478 -44.5887 0
      vertex -30 -51.9615 0
    endloop
  endfacet
  facet normal -0.406738 -0.913545 0
    outer loop
      vertex -30 -51.9615 0
      vertex -18.541 -57.0634 10
      vertex -30 -51.9615 10
    endloop
  endfacet
  facet normal -0.406738 -0.913545 -0
    outer loop
      vertex -18.541 -57.0634 10
      vertex -30 -51.9615 0
      vertex -18.541 -57.0634 0
    endloop
  endfacet
  facet normal -0.20791 -0.978148 0
    outer loop
      vertex -18.541 -57.0634 0
      vertex -6.27171 -59.6713 10
      vertex -18.541 -57.0634 10
    endloop
  endfacet
  facet normal -0.20791 -0.978148 -0
    outer loop
      vertex -6.27171 -59.6713 10
      vertex -18.541 -57.0634 0
      vertex -6.27171 -59.6713 0
    endloop
  endfacet
  facet normal 0 -1 0
    outer loop
      vertex -6.27171 -59.6713 0
      vertex 6.27171 -59.6713 10
      vertex -6.27171 -59.6713 10
    endloop
  endfacet
  facet normal 0 -1 -0
    outer loop
      vertex 6.27171 -59.6713 10
      vertex -6.27171 -59.6713 0
      vertex 6.27171 -59.6713 0
    endloop
  endfacet
  facet normal 0.20791 -0.978148 0
    outer loop
      vertex 6.27171 -59.6713 0
      vertex 18.541 -57.0634 10
      vertex 6.27171 -59.6713 10
    endloop
  endfacet
  facet normal 0.20791 -0.978148 0
    outer loop
      vertex 18.541 -57.0634 10
      vertex 6.27171 -59.6713 0
      vertex 18.541 -57.0634 0
    endloop
  endfacet
  facet normal 0.406738 -0.913545 0
    outer loop
      vertex 18.541 -57.0634 0
      vertex 30 -51.9615 10
      vertex 18.541 -57.0634 10
    endloop
  endfacet
  facet normal 0.406738 -0.913545 0
    outer loop
      vertex 30 -51.9615 10
      vertex 18.541 -57.0634 0
      vertex 30 -51.9615 0
    endloop
  endfacet
  facet normal 0.587785 -0.809017 0
    outer loop
      vertex 30 -51.9615 0
      vertex 40.1478 -44.5887 10
      vertex 30 -51.9615 10
    endloop
  endfacet
  facet normal 0.587785 -0.809017 0
    outer loop
      vertex 40.1478 -44.5887 10
      vertex 30 -51.9615 0
      vertex 40.1478 -44.5887 0
    endloop
  endfacet
  facet normal 0.743145 -0.66913 0
    outer loop
      vertex 40.1478 -44.5887 10
      vertex 48.541 -35.2671 0
      vertex 48.541 -35.2671 10
    endloop
  endfacet
  facet normal 0.743145 -0.66913 0
    outer loop
      vertex 48.541 -35.2671 0
      vertex 40.1478 -44.5887 10
      vertex 40.1478 -44.5887 0
    endloop
  endfacet
  facet normal 0.866025 -0.5 0
    outer loop
      vertex 48.541 -35.2671 10
      vertex 54.8127 -24.4042 0
      vertex 54.8127 -24.4042 10
    endloop
  endfacet
  facet normal 0.866025 -0.5 0
    outer loop
      vertex 54.8127 -24.4042 0
      vertex 48.541 -35.2671 10
      vertex 48.541 -35.2671 0
    endloop
  endfacet
  facet normal 0.951055 -0.309022 0
    outer loop
      vertex 54.8127 -24.4042 10
      vertex 58.6889 -12.4747 0
      vertex 58.6889 -12.4747 10
    endloop
  endfacet
  facet normal 0.951055 -0.309022 0
    outer loop
      vertex 58.6889 -12.4747 0
      vertex 54.8127 -24.4042 10
      vertex 54.8127 -24.4042 0
    endloop
  endfacet
  facet normal 0.994522 -0.104525 0
    outer loop
      vertex 58.6889 -12.4747 10
      vertex 60 0 0
      vertex 60 0 10
    endloop
  endfacet
  facet normal 0.994522 -0.104525 0
    outer loop
      vertex 60 0 0
      vertex 58.6889 -12.4747 10
      vertex 58.6889 -12.4747 0
    endloop
  endfacet
  facet normal 0 0 -1
    outer loop
      vertex 58.6889 -12.4747 0
      vertex 58.6889 12.4747 0
      vertex 60 0 0
    endloop
  endfacet
  facet normal 0 0 -1
    outer loop
      vertex 54.8127 -24.4042 0
      vertex 58.6889 12.4747 0
      vertex 58.6889 -12.4747 0
    endloop
  endfacet
  facet normal 0 0 -1
    outer loop
      vertex 54.8127 -24.4042 0
      vertex 54.8127 24.4042 0
      vertex 58.6889 12.4747 0
    endloop
  endfacet
  facet normal 0 0 -1
    outer loop
      vertex 48.541 -35.2671 0
      vertex 54.8127 24.4042 0
      vertex 54.8127 -24.4042 0
    endloop
  endfacet
  facet normal 0 0 -1
    outer loop
      vertex 48.541 -35.2671 0
      vertex 48.541 35.2671 0
      vertex 54.8127 24.4042 0
    endloop
  endfacet
  facet normal 0 0 -1
    outer loop
      vertex 40.1478 -44.5887 0
      vertex 48.541 35.2671 0
      vertex 48.541 -35.2671 0
    endloop
  endfacet
  facet normal 0 0 -1
    outer loop
      vertex 40.1478 -44.5887 0
      vertex 40.1478 44.5887 0
      vertex 48.541 35.2671 0
    endloop
  endfacet
  facet normal 0 0 -1
    outer loop
      vertex 30 -51.9615 0
      vertex 40.1478 44.5887 0
      vertex 40.1478 -44.5887 0
    endloop
  endfacet
  facet normal 0 0 -1
    outer loop
      vertex 30 -51.9615 0
      vertex 30 51.9615 0
      vertex 40.1478 44.5887 0
    endloop
  endfacet
  facet normal 0 0 -1
    outer loop
      vertex 18.541 -57.0634 0
      vertex 30 51.9615 0
      vertex 30 -51.9615 0
    endloop
  endfacet
  facet normal 0 0 -1
    outer loop
      vertex 18.541 -57.0634 0
      vertex 18.541 57.0634 0
      vertex 30 51.9615 0
    endloop
  endfacet
  facet normal 0 0 -1
    outer loop
      vertex 6.27171 -59.6713 0
      vertex 18.541 57.0634 0
      vertex 18.541 -57.0634 0
    endloop
  endfacet
  facet normal 0 0 -1
    outer loop
      vertex 6.27171 -59.6713 0
      vertex 6.27171 59.6713 0
      vertex 18.541 57.0634 0
    endloop
  endfacet
  facet normal 0 0 -1
    outer loop
      vertex -6.27171 -59.6713 0
      vertex 6.27171 59.6713 0
      vertex 6.27171 -59.6713 0
    endloop
  endfacet
  facet normal 0 0 -1
    outer loop
      vertex -6.27171 -59.6713 0
      vertex -6.27171 59.6713 0
      vertex 6.27171 59.6713 0
    endloop
  endfacet
  facet normal 0 0 -1
    outer loop
      vertex -18.541 -57.0634 0
      vertex -6.27171 59.6713 0
      vertex -6.27171 -59.6713 0
    endloop
  endfacet
  facet normal 0 0 -1
    outer loop
      vertex -18.541 -57.0634 0
      vertex -18.541 57.0634 0
      vertex -6.27171 59.6713 0
    endloop
  endfacet
  facet normal 0 0 -1
    outer loop
      vertex -30 -51.9615 0
      vertex -18.541 57.0634 0
      vertex -18.541 -57.0634 0
    endloop
  endfacet
  facet normal 0 0 -1
    outer loop
      vertex -30 -51.9615 0
      vertex -30 51.9615 0
      vertex -18.541 57.0634 0
    endloop
  endfacet
  facet normal 0 0 -1
    outer loop
      vertex -40.1478 -44.5887 0
      vertex -30 51.9615 0
      vertex -30 -51.9615 0
    endloop
  endfacet
  facet normal 0 0 -1
    outer loop
      vertex -40.1478 -44.5887 0
      vertex -40.1478 44.5887 0
      vertex -30 51.9615 0
    endloop
  endfacet
  facet normal 0 0 -1
    outer loop
      vertex -48.541 -35.2671 0
      vertex -40.1478 44.5887 0
      vertex -40.1478 -44.5887 0
    endloop
  endfacet
  facet normal 0 0 -1
    outer loop
      vertex -48.541 -35.2671 0
      vertex -48.541 35.2671 0
      vertex -40.1478 44.5887 0
    endloop
  endfacet
  facet normal 0 0 -1
    outer loop
      vertex -54.8127 -24.4042 0
      vertex -48.541 35.2671 0
      vertex -48.541 -35.2671 0
    endloop
  endfacet
  facet normal 0 0 -1
    outer loop
      vertex -54.8127 -24.4042 0
      vertex -54.8127 24.4042 0
      vertex -48.541 35.2671 0
    endloop
  endfacet
  facet normal 0 0 -1
    outer loop
      vertex -58.6889 -12.4747 0
      vertex -54.8127 24.4042 0
      vertex -54.8127 -24.4042 0
    endloop
  endfacet
  facet normal 0 0 -1
    outer loop
      vertex -58.6889 -12.4747 0
      vertex -58.6889 12.4747 0
      vertex -54.8127 24.4042 0
    endloop
  endfacet
  facet normal 0 -0 -1
    outer loop
      vertex -58.6889 12.4747 0
      vertex -58.6889 -12.4747 0
      vertex -60 -0 0
    endloop
  endfacet
  facet normal 0 0 1
    outer loop
      vertex 58.6889 12.4747 10
      vertex 58.6889 -12.4747 10
      vertex 60 0 10
    endloop
  endfacet
  facet normal 0 0 1
    outer loop
      vertex 54.8127 24.4042 10
      vertex 58.6889 -12.4747 10
      vertex 58.6889 12.4747 10
    endloop
  endfacet
  facet normal 0 0 1
    outer loop
      vertex 54.8127 24.4042 10
      vertex 54.8127 -24.4042 10
      vertex 58.6889 -12.4747 10
    endloop
  endfacet
  facet normal 0 0 1
    outer loop
      vertex 48.541 35.2671 10
      vertex 54.8127 -24.4042 10
      vertex 54.8127 24.4042 10
    endloop
  endfacet
  facet normal 0 0 1
    outer loop
      vertex 48.541 35.2671 10
      vertex 48.541 -35.2671 10
      vertex 54.8127 -24.4042 10
    endloop
  endfacet
  facet normal 0 0 1
    outer loop
      vertex 40.1478 44.5887 10
      vertex 48.541 -35.2671 10
      vertex 48.541 35.2671 10
    endloop
  endfacet
  facet normal 0 0 1
    outer loop
      vertex 40.1478 44.5887 10
      vertex 40.1478 -44.5887 10
      vertex 48.541 -35.2671 10
    endloop
  endfacet
  facet normal 0 0 1
    outer loop
      vertex 30 51.9615 10
      vertex 40.1478 -44.5887 10
      vertex 40.1478 44.5887 10
    endloop
  endfacet
  facet normal 0 0 1
    outer loop
      vertex 30 51.9615 10
      vertex 30 -51.9615 10
      vertex 40.1478 -44.5887 10
    endloop
  endfacet
  facet normal 0 0 1
    outer loop
      vertex 18.541 57.0634 10
      vertex 30 -51.9615 10
      vertex 30 51.9615 10
    endloop
  endfacet
  facet normal 0 0 1
    outer loop
      vertex 18.541 57.0634 10
      vertex 18.541 -57.0634 10
      vertex 30 -51.9615 10
    endloop
  endfacet
  facet normal 0 0 1
    outer loop
      vertex 6.27171 59.6713 10
      vertex 18.541 -57.0634 10
      vertex 18.541 57.0634 10
    endloop
  endfacet
  facet normal 0 0 1
    outer loop
      vertex 6.27171 59.6713 10
      vertex 6.27171 -59.6713 10
      vertex 18.541 -57.0634 10
    endloop
  endfacet
  facet normal -0 0 1
    outer loop
      vertex -6.27171 59.6713 10
      vertex 6.27171 -59.6713 10
      vertex 6.27171 59.6713 10
    endloop
  endfacet
  facet normal 0 0 1
    outer loop
      vertex -6.27171 59.6713 10
      vertex -6.27171 -59.6713 10
      vertex 6.27171 -59.6713 10
    endloop
  endfacet
  facet normal -0 0 1
    outer loop
      vertex -18.541 57.0634 10
      vertex -6.27171 -59.6713 10
      vertex -6.27171 59.6713 10
    endloop
  endfacet
  facet normal 0 0 1
    outer loop
      vertex -18.541 57.0634 10
      vertex -18.541 -57.0634 10
      vertex -6.27171 -59.6713 10
    endloop
  endfacet
  facet normal -0 0 1
    outer loop
      vertex -30 51.9615 10
      vertex -18.541 -57.0634 10
      vertex -18.541 57.0634 10
    endloop
  endfacet
  facet normal 0 0 1
    outer loop
      vertex -30 51.9615 10
      vertex -30 -51.9615 10
      vertex -18.541 -57.0634 10
    endloop
  endfacet
  facet normal -0 0 1
    outer loop
      vertex -40.1478 44.5887 10
      vertex -30 -51.9615 10
      vertex -30 51.9615 10
    endloop
  endfacet
  facet normal 0 0 1
    outer loop
      vertex -40.1478 44.5887 10
      vertex -40.1478 -44.5887 10
      vertex -30 -51.9615 10
    endloop
  endfacet
  facet normal -0 0 1
    outer loop
      vertex -48.541 35.2671 10
      vertex -40.1478 -44.5887 10
      vertex -40.1478 44.5887 10
    endloop
  endfacet
  facet normal 0 0 1
    outer loop
      vertex -48.541 35.2671 10
      vertex -48.541 -35.2671 10
      vertex -40.1478 -44.5887 10
    endloop
  endfacet
  facet normal -0 0 1
    outer loop
      vertex -54.8127 24.4042 10
      vertex -48.541 -35.2671 10
      vertex -48.541 35.2671 10
    endloop
  endfacet
  facet normal 0 0 1
    outer loop
      vertex -54.8127 24.4042 10
      vertex -54.8127 -24.4042 10
      vertex -48.541 -35.2671 10
    endloop
  endfacet
  facet normal -0 0 1
    outer loop
      vertex -58.6889 12.4747 10
      vertex -54.8127 -24.4042 10
      vertex -54.8127 24.4042 10
    endloop
  endfacet
  facet normal 0 0 1
    outer loop
      vertex -58.6889 12.4747 10
      vertex -58.6889 -12.4747 10
      vertex -54.8127 -24.4042 10
    endloop
  endfacet
  facet normal 0 -0 1
    outer loop
      vertex -58.6889 -12.4747 10
      vertex -58.6889 12.4747 10
      vertex -60 -0 10
    endloop
  endfacet
endsolid OpenSCAD_Model
