<?xml version="1.0" encoding="UTF-8" standalone="no"?>
<!DOCTYPE svg PUBLIC "-//W3C//DTD SVG 20010904//EN" "http://www.w3.org/TR/2001/REC-SVG-20010904/DTD/svg10.dtd">
<svg version="1.0" xmlns="http://www.w3.org/2000/svg" width="520.000000pt" height="372.000000pt" viewBox="0 0 520.000000 372.000000" preserveAspectRatio="xMidYMid meet">
<metadata>
Created by potrace 1.14, written by Peter Selinger 2001-2017
</metadata>
<g transform="translate(0.000000,372.000000) scale(0.100000,-0.100000)" fill="#000000" stroke="none">
<path d="M1810 3706 c-20 -6 -85 -49 -144 -96 -227 -177 -278 -218 -421 -335 -81 -66 -184 -149 -229 -185 -45 -36 -139 -110 -208 -165 -70 -55 -190 -149 -268 -210 -77 -60 -179 -139 -225 -175 -45 -36 -135 -105 -198 -154 l-115 -89 19 -51 c80 -202 361 -706 484 -866 147 -190 426 -470 785 -786 278 -245 332 -287 410 -328 97 -51 376 -159 520 -200 181 -53 277 -66 492 -66 292 0 508 35 678 110 47 21 105 46 130 56 79 33 290 181 538 376 176 139 275 254 417 488 134 220 184 307 300 520 68 124 162 290 210 370 141 234 155 257 187 326 l31 66 -34 30 c-133 120 -237 216 -319 294 -288 273 -491 465 -540 508 -72 65 -212 197 -331 312 -111 108 -69 96 -429 125 -450 35 -996 80 -1401 114 -163 14 -298 25 -300 24 -2 -1 -20 -6 -39 -13z"/>
</g>
</svg>