<svg id="svg" version="1.1" xmlns="http://www.w3.org/2000/svg" xmlns:xlink="http://www.w3.org/1999/xlink" width="400" height="321.69312169312167" viewBox="0, 0, 400,321.69312169312167"><g id="svgg"><path id="path0" d="M203.583 6.611 C 200.142 7.360,197.500 8.612,197.500 9.493 C 197.500 9.574,197.219 9.733,196.875 9.846 C 196.130 10.090,193.537 12.631,192.677 13.958 C 192.366 14.440,192.048 14.833,191.972 14.833 C 191.896 14.833,191.833 14.933,191.833 15.054 C 191.833 15.176,191.646 15.451,191.417 15.667 C 191.188 15.882,191.000 16.154,191.000 16.271 C 191.000 16.388,190.906 16.543,190.792 16.617 C 190.597 16.741,189.727 18.417,189.856 18.417 C 189.889 18.417,189.747 18.653,189.541 18.942 C 189.335 19.232,189.167 19.583,189.167 19.724 C 189.167 19.865,189.106 20.018,189.032 20.064 C 188.882 20.156,187.515 22.868,186.586 24.917 C 185.915 26.395,185.451 27.414,184.991 28.417 C 183.756 31.108,183.473 31.750,183.517 31.750 C 183.545 31.750,183.406 32.050,183.208 32.417 C 182.607 33.530,181.500 35.980,181.496 36.205 C 181.494 36.321,181.346 36.604,181.167 36.833 C 180.987 37.063,180.839 37.352,180.837 37.477 C 180.835 37.602,180.695 37.977,180.527 38.311 C 179.904 39.543,179.224 41.099,178.587 42.750 C 178.339 43.392,177.881 44.556,177.568 45.337 C 177.256 46.118,177.000 46.872,177.000 47.012 C 177.000 47.152,176.934 47.338,176.854 47.425 C 176.708 47.583,175.865 49.830,175.749 50.369 C 175.716 50.526,175.583 50.901,175.454 51.202 C 175.113 52.003,174.667 53.276,174.330 54.417 C 174.168 54.967,173.940 55.679,173.825 56.000 C 173.710 56.321,173.507 56.883,173.375 57.250 C 173.242 57.617,173.105 58.060,173.071 58.236 C 172.994 58.631,172.572 59.976,172.178 61.083 C 172.015 61.542,171.709 62.479,171.498 63.167 C 171.287 63.854,170.985 64.792,170.826 65.250 C 170.668 65.708,170.369 66.646,170.163 67.333 C 169.956 68.021,169.655 68.996,169.493 69.500 C 169.331 70.004,169.074 70.867,168.922 71.417 C 168.769 71.967,168.512 72.829,168.350 73.333 C 168.188 73.837,167.923 74.700,167.760 75.250 C 167.598 75.800,167.316 76.691,167.132 77.231 C 166.949 77.770,166.775 78.370,166.745 78.564 C 166.715 78.758,166.566 79.254,166.413 79.667 C 166.260 80.079,165.884 81.392,165.577 82.583 C 165.270 83.775,164.857 85.350,164.658 86.083 C 164.460 86.817,164.262 87.604,164.218 87.833 C 164.174 88.063,164.004 88.700,163.841 89.250 C 163.552 90.225,163.165 91.546,162.476 93.917 C 162.289 94.558,161.994 95.571,161.820 96.167 C 161.646 96.763,161.362 97.737,161.188 98.333 C 160.664 100.133,159.914 103.108,159.423 105.333 C 159.271 106.021,159.002 107.108,158.824 107.750 C 158.646 108.392,158.466 109.269,158.423 109.700 C 158.338 110.556,157.564 112.976,156.896 114.470 C 156.663 114.991,156.444 115.557,156.409 115.729 C 156.373 115.901,156.229 116.217,156.089 116.432 C 155.948 116.646,155.833 116.935,155.833 117.073 C 155.833 117.211,155.688 117.645,155.511 118.037 C 154.516 120.238,154.435 120.470,153.524 123.750 C 152.648 126.905,152.023 128.987,151.674 129.917 C 151.502 130.375,151.228 131.237,151.065 131.833 C 150.903 132.429,150.627 133.254,150.452 133.667 C 150.278 134.079,150.111 134.567,150.082 134.750 C 150.052 134.933,149.758 135.908,149.428 136.917 C 149.097 137.925,148.669 139.275,148.477 139.917 C 148.284 140.558,147.985 141.450,147.813 141.897 C 147.641 142.345,147.500 142.800,147.500 142.908 C 147.500 143.016,147.347 143.421,147.160 143.808 C 146.973 144.195,146.775 144.995,146.719 145.586 C 146.640 146.440,146.555 146.680,146.304 146.759 C 146.059 146.837,145.996 146.998,146.025 147.479 C 146.050 147.907,145.942 148.259,145.673 148.622 C 145.349 149.060,145.303 149.273,145.389 149.907 C 145.447 150.325,145.435 150.667,145.364 150.667 C 144.949 150.667,143.804 152.029,143.900 152.410 C 143.956 152.631,143.926 152.859,143.834 152.916 C 143.742 152.973,143.667 153.174,143.667 153.363 C 143.667 153.551,143.411 154.054,143.099 154.479 C 142.687 155.040,142.535 155.416,142.548 155.846 C 142.558 156.208,142.407 156.695,142.161 157.092 C 141.940 157.451,141.745 157.837,141.728 157.949 C 141.711 158.062,141.546 158.367,141.361 158.627 C 140.862 159.329,140.884 161.260,141.394 161.531 C 142.252 161.989,142.366 162.544,141.660 162.836 C 140.327 163.388,140.255 165.429,141.552 165.890 C 141.718 165.949,141.811 166.069,141.757 166.155 C 141.703 166.242,141.789 166.385,141.948 166.474 C 142.112 166.566,142.239 166.839,142.243 167.109 C 142.254 167.837,143.002 167.855,143.882 167.147 C 144.392 166.738,144.527 166.683,144.425 166.926 C 144.000 167.946,144.383 168.427,145.071 167.738 C 145.215 167.594,145.333 167.557,145.333 167.655 C 145.333 167.753,145.521 167.833,145.750 167.833 C 146.037 167.833,146.167 167.742,146.167 167.540 C 146.167 166.969,146.750 166.807,147.177 167.261 C 147.624 167.737,147.787 167.760,148.185 167.400 C 148.571 167.051,148.833 167.232,148.833 167.848 C 148.833 168.137,148.939 168.384,149.085 168.441 C 149.397 168.560,149.832 168.220,149.836 167.855 C 149.841 167.301,150.124 167.053,150.418 167.346 C 150.703 167.631,150.180 168.941,149.708 169.122 C 149.431 169.229,149.453 169.674,149.755 170.074 C 150.129 170.568,150.051 171.263,149.486 172.445 C 148.918 173.636,148.943 174.082,149.573 173.961 C 149.991 173.881,150.159 174.158,150.164 174.937 C 150.167 175.385,150.801 176.833,150.994 176.833 C 151.322 176.833,151.667 176.617,151.667 176.411 C 151.667 176.290,151.854 176.043,152.083 175.863 C 152.744 175.343,152.663 174.496,151.892 173.878 C 151.406 173.488,151.317 173.333,151.446 173.102 C 151.589 172.846,151.695 172.898,152.354 173.547 C 152.966 174.151,153.165 174.258,153.466 174.147 C 153.682 174.067,153.833 174.076,153.833 174.169 C 153.833 174.256,154.021 174.374,154.250 174.432 C 154.479 174.489,154.667 174.592,154.667 174.659 C 154.667 174.727,154.830 174.855,155.030 174.945 L 155.393 175.107 155.003 175.497 C 154.671 175.829,154.639 175.954,154.787 176.346 C 154.899 176.642,154.903 176.863,154.800 176.967 C 154.711 177.056,154.664 177.306,154.694 177.522 C 154.778 178.115,155.577 178.159,156.020 177.595 C 156.206 177.360,156.502 177.167,156.679 177.167 C 156.920 177.167,157.052 176.978,157.201 176.422 C 157.310 176.012,157.498 175.639,157.619 175.593 C 157.778 175.532,157.809 175.621,157.733 175.923 C 157.534 176.719,158.447 177.181,158.872 176.500 C 159.192 175.987,159.809 176.053,159.706 176.589 C 159.657 176.847,159.734 177.132,159.903 177.319 C 160.056 177.487,160.225 177.897,160.279 178.229 C 160.393 178.930,161.374 179.158,161.574 178.530 C 161.727 178.046,162.613 177.453,162.729 177.756 C 163.022 178.520,164.999 177.831,165.000 176.964 C 165.001 176.846,165.225 176.487,165.500 176.167 C 165.775 175.846,165.999 175.536,166.000 175.478 C 166.002 174.793,167.146 175.406,167.417 176.238 C 167.770 177.324,168.959 176.751,170.040 174.974 C 170.432 174.330,170.899 174.758,171.056 175.904 C 171.192 176.896,171.258 177.000,171.760 177.000 C 172.062 177.000,172.167 177.090,172.167 177.349 C 172.167 177.541,172.315 177.907,172.496 178.161 C 172.677 178.415,172.902 178.826,172.996 179.074 C 173.571 180.586,174.035 178.593,173.487 176.964 C 173.053 175.671,173.073 175.613,173.790 176.099 C 174.523 176.597,175.150 176.548,176.313 175.904 C 177.086 175.476,177.500 175.393,177.500 175.667 C 177.500 175.758,177.393 175.833,177.261 175.833 C 176.994 175.833,176.756 176.406,176.916 176.665 C 177.095 176.955,177.431 176.852,178.180 176.276 C 178.898 175.725,178.909 175.723,179.177 176.054 C 179.765 176.780,180.025 176.320,179.987 174.626 C 179.961 173.521,180.076 172.445,180.389 170.833 C 180.630 169.596,180.827 168.246,180.827 167.833 C 180.825 166.315,181.357 160.357,181.668 158.417 C 181.979 156.475,182.110 154.833,182.529 147.652 L 182.729 144.220 183.240 143.906 C 183.520 143.733,183.797 143.568,183.855 143.538 C 183.913 143.509,184.010 143.751,184.071 144.076 C 184.193 144.725,184.807 145.167,185.587 145.167 C 185.827 145.167,186.140 145.283,186.282 145.425 C 186.753 145.896,187.087 145.650,187.051 144.858 C 187.010 143.973,186.554 143.166,185.908 142.835 C 185.638 142.697,185.385 142.564,185.347 142.541 C 185.128 142.410,185.775 141.677,186.148 141.634 C 186.504 141.593,186.587 141.492,186.603 141.083 C 186.629 140.386,186.813 139.662,187.094 139.141 C 187.226 138.898,187.333 138.522,187.333 138.306 C 187.333 138.090,187.476 137.825,187.650 137.716 C 188.033 137.476,188.318 134.401,188.027 133.648 C 187.899 133.316,187.917 133.155,188.101 132.970 C 188.285 132.787,188.367 132.047,188.444 129.906 C 188.500 128.353,188.611 127.000,188.691 126.898 C 188.770 126.796,188.914 125.146,189.010 123.231 C 189.105 121.317,189.293 118.475,189.427 116.917 C 189.560 115.358,189.669 113.651,189.668 113.122 C 189.667 112.179,189.675 112.162,190.084 112.265 C 190.314 112.323,190.762 112.321,191.079 112.262 L 191.655 112.154 191.554 110.845 C 191.459 109.610,191.473 109.531,191.811 109.424 C 193.499 108.888,193.774 106.057,192.118 106.261 C 190.883 106.413,190.279 105.181,191.500 105.000 C 192.020 104.923,192.080 104.862,192.050 104.439 C 192.025 104.094,192.150 103.853,192.508 103.551 C 192.779 103.323,193.000 103.040,193.000 102.922 C 193.000 102.804,193.112 102.614,193.250 102.500 C 193.387 102.386,193.500 102.170,193.500 102.021 C 193.500 101.798,193.652 101.761,194.349 101.809 C 194.827 101.842,195.279 101.787,195.383 101.684 C 195.484 101.583,195.816 101.500,196.120 101.500 C 196.549 101.500,196.717 101.406,196.864 101.083 C 197.065 100.642,197.247 100.559,197.417 100.833 C 197.555 101.058,198.600 101.045,199.053 100.814 C 199.841 100.411,200.368 99.167,199.750 99.167 C 199.612 99.167,199.500 99.089,199.500 98.994 C 199.500 98.900,199.237 98.667,198.917 98.478 C 198.596 98.289,198.333 98.023,198.333 97.887 C 198.333 97.752,198.105 97.413,197.826 97.134 L 197.319 96.627 197.797 96.697 C 198.593 96.814,199.004 96.025,198.333 95.667 C 197.992 95.484,197.897 94.920,198.143 94.532 C 198.254 94.358,198.396 94.380,198.849 94.640 C 199.769 95.168,200.153 95.230,200.509 94.909 C 200.768 94.675,200.874 94.660,201.078 94.829 C 201.216 94.944,201.443 94.994,201.581 94.941 C 201.942 94.802,201.892 94.047,201.500 93.711 C 201.317 93.554,201.167 93.347,201.167 93.250 C 201.167 93.013,200.552 92.500,200.267 92.500 C 199.958 92.500,199.443 91.713,199.697 91.629 C 199.919 91.555,199.923 90.495,199.702 90.350 C 199.393 90.148,199.162 89.495,199.260 89.105 C 199.315 88.884,199.255 88.488,199.127 88.226 C 198.999 87.964,198.904 87.337,198.917 86.833 L 198.939 85.917 199.678 85.833 C 200.381 85.754,200.415 85.726,200.376 85.250 C 200.300 84.306,200.353 83.258,200.480 83.171 C 200.550 83.123,200.654 82.956,200.712 82.801 C 200.769 82.646,201.065 82.472,201.370 82.414 C 201.745 82.344,202.014 82.153,202.204 81.822 C 202.564 81.194,202.741 81.206,203.015 81.875 C 203.138 82.173,203.372 82.562,203.535 82.740 C 203.913 83.149,203.909 83.268,203.500 83.788 C 203.072 84.332,203.080 84.709,203.536 85.561 C 204.203 86.806,204.487 87.032,205.228 86.906 L 205.882 86.796 205.775 87.462 C 205.675 88.091,205.943 88.668,206.211 88.400 C 206.811 87.800,207.161 89.169,206.577 89.833 C 206.362 90.078,206.333 90.157,206.333 90.504 C 206.333 90.597,206.153 90.756,205.932 90.857 C 205.321 91.135,203.833 93.652,203.833 94.407 C 203.833 94.525,203.602 95.131,203.319 95.756 C 202.251 98.110,201.843 100.916,202.007 104.782 C 202.145 108.028,202.286 108.660,203.216 110.185 C 203.418 110.516,203.805 111.154,204.075 111.602 C 204.346 112.050,204.702 112.538,204.867 112.686 C 205.032 112.834,205.167 113.002,205.167 113.059 C 205.167 113.116,205.286 113.302,205.432 113.472 C 205.734 113.826,206.494 115.617,206.386 115.725 C 206.199 115.913,209.016 118.500,209.409 118.500 C 209.540 118.500,209.690 118.570,209.743 118.656 C 210.371 119.672,215.326 120.160,215.334 119.206 C 215.336 118.973,217.763 117.667,218.195 117.667 C 218.533 117.667,219.832 116.906,219.835 116.706 C 219.836 116.639,220.136 116.440,220.502 116.265 C 220.921 116.064,221.167 115.833,221.167 115.640 C 221.167 115.321,221.458 115.259,222.125 115.438 C 222.590 115.563,222.612 115.835,222.167 115.952 C 221.367 116.161,222.044 117.080,223.083 117.195 C 223.623 117.254,223.865 117.599,223.650 118.000 C 223.576 118.138,223.443 118.662,223.356 119.167 C 223.106 120.600,222.999 121.025,222.793 121.401 C 222.688 121.593,222.583 122.216,222.558 122.786 C 222.534 123.355,222.397 124.049,222.253 124.328 C 221.544 125.698,221.071 129.333,221.601 129.333 C 221.729 129.333,221.833 129.448,221.833 129.589 C 221.833 129.729,221.940 129.885,222.069 129.934 C 222.199 129.984,222.502 130.322,222.742 130.685 C 222.983 131.048,223.251 131.301,223.340 131.246 C 223.710 131.017,223.278 132.740,222.624 134.100 C 222.140 135.107,222.137 135.130,222.317 136.600 C 222.578 138.726,222.544 140.079,222.182 142.033 C 222.006 142.977,221.702 145.212,221.504 147.000 C 220.996 151.597,220.154 155.203,219.416 155.942 C 219.279 156.078,219.167 156.470,219.167 156.812 C 219.167 157.154,219.090 157.510,218.996 157.604 C 218.804 157.796,218.312 160.830,218.439 161.035 C 218.654 161.383,219.167 161.153,219.169 160.708 C 219.173 159.961,219.354 159.500,219.644 159.500 C 220.214 159.499,220.869 158.714,220.958 157.925 C 221.031 157.274,221.385 156.651,221.568 156.851 C 221.778 157.081,221.845 161.799,221.641 162.014 C 220.884 162.810,220.337 163.903,220.631 164.028 C 221.302 164.312,221.513 165.147,221.351 166.868 C 221.052 170.033,221.155 174.672,221.535 175.212 C 221.831 175.631,221.850 175.844,221.741 177.520 L 221.622 179.367 220.560 180.434 C 219.902 181.095,219.357 181.503,219.125 181.508 C 218.919 181.512,218.600 181.706,218.417 181.940 C 218.233 182.173,217.967 182.488,217.826 182.640 C 217.380 183.118,216.091 184.717,215.917 185.007 C 215.418 185.839,214.894 186.496,214.729 186.498 C 214.485 186.501,213.167 188.207,213.167 188.519 C 213.167 188.902,211.756 190.333,211.378 190.333 C 211.020 190.333,210.833 190.629,210.833 191.194 C 210.833 191.377,210.584 191.840,210.279 192.222 C 209.974 192.604,209.511 193.367,209.249 193.917 C 208.988 194.467,208.631 195.019,208.457 195.144 C 208.233 195.304,208.169 195.488,208.240 195.770 C 208.295 195.989,208.189 196.762,208.003 197.487 C 207.818 198.212,207.667 199.019,207.667 199.279 C 207.667 199.540,207.498 199.943,207.292 200.174 C 206.354 201.225,203.738 204.110,203.507 204.348 C 203.366 204.493,202.987 204.928,202.667 205.315 C 202.346 205.702,201.923 206.197,201.727 206.415 C 201.531 206.632,201.124 207.153,200.824 207.572 C 200.523 207.991,200.215 208.333,200.138 208.333 C 200.062 208.333,200.000 208.400,200.000 208.482 C 200.000 208.564,199.763 208.883,199.473 209.191 C 199.184 209.498,198.271 210.537,197.446 211.500 C 196.620 212.463,195.900 213.287,195.845 213.333 C 195.790 213.379,195.146 214.125,194.414 214.990 C 193.682 215.855,192.915 216.740,192.708 216.956 C 192.502 217.172,192.333 217.401,192.333 217.466 C 192.333 217.530,192.073 217.883,191.755 218.250 C 191.437 218.617,191.119 218.994,191.047 219.089 C 190.810 219.402,189.107 221.411,188.843 221.690 C 188.220 222.345,186.000 225.273,186.000 225.439 C 186.000 225.487,185.565 226.064,185.033 226.721 C 184.501 227.379,183.887 228.179,183.669 228.500 C 183.451 228.821,183.170 229.196,183.043 229.333 C 182.917 229.471,182.512 229.996,182.144 230.500 C 181.776 231.004,181.349 231.573,181.196 231.763 C 181.042 231.954,180.842 232.227,180.750 232.370 C 180.425 232.879,178.912 234.887,178.625 235.191 C 178.465 235.361,178.333 235.575,178.333 235.667 C 178.333 235.758,178.277 235.834,178.208 235.834 C 178.140 235.835,177.896 236.112,177.667 236.450 C 177.438 236.788,177.025 237.343,176.750 237.684 C 176.475 238.025,176.063 238.548,175.833 238.848 C 175.604 239.147,175.323 239.486,175.208 239.601 C 175.094 239.716,175.000 239.873,175.000 239.951 C 175.000 240.029,174.869 240.216,174.708 240.368 C 174.258 240.793,174.000 241.137,174.000 241.312 C 174.000 241.400,173.943 241.497,173.874 241.528 C 173.805 241.558,173.343 242.108,172.849 242.750 C 172.354 243.392,171.829 244.030,171.683 244.169 C 171.536 244.308,171.042 244.870,170.583 245.418 C 169.396 246.838,168.236 247.999,164.083 251.930 C 160.249 255.560,158.122 257.598,156.486 259.208 C 155.950 259.735,155.484 260.167,155.450 260.167 C 155.380 260.167,154.166 261.203,153.550 261.788 C 153.335 261.992,153.105 262.160,153.038 262.161 C 152.971 262.162,152.645 262.427,152.314 262.748 C 151.982 263.070,151.633 263.333,151.537 263.333 C 151.374 263.333,150.667 264.612,150.667 264.908 C 150.667 264.983,150.292 265.414,149.833 265.865 C 149.375 266.316,149.000 266.646,149.000 266.599 C 149.000 266.472,146.834 268.671,146.829 268.804 C 146.820 269.017,145.538 270.362,145.144 270.571 C 144.927 270.687,144.474 270.939,144.137 271.131 C 143.800 271.324,143.087 271.561,142.553 271.659 C 142.020 271.757,141.171 271.948,140.667 272.083 C 140.162 272.219,139.440 272.330,139.060 272.331 C 138.406 272.333,138.321 272.395,137.398 273.537 C 136.863 274.200,136.289 274.893,136.122 275.079 C 135.613 275.645,135.423 275.874,134.498 277.042 C 134.008 277.660,133.545 278.167,133.470 278.167 C 133.395 278.167,133.333 278.261,133.333 278.376 C 133.333 278.860,130.719 280.832,130.075 280.833 C 129.887 280.833,129.662 280.899,129.575 280.980 C 129.488 281.060,129.004 281.257,128.500 281.417 C 127.996 281.577,127.512 281.773,127.425 281.854 C 127.338 281.934,127.134 282.000,126.971 282.000 C 126.509 282.000,123.470 283.385,122.750 283.923 C 121.577 284.801,119.328 285.833,118.590 285.833 C 118.177 285.833,117.833 285.919,117.795 286.030 C 117.722 286.250,116.361 285.945,115.750 285.571 C 115.509 285.424,113.637 285.345,108.983 285.287 L 102.550 285.207 100.900 285.777 C 99.993 286.090,99.063 286.411,98.833 286.489 C 98.604 286.567,98.200 286.746,97.935 286.886 C 97.671 287.027,96.883 287.194,96.185 287.256 C 95.488 287.319,94.513 287.473,94.020 287.598 C 93.077 287.838,92.833 287.800,92.833 287.410 C 92.833 287.053,92.059 286.923,91.624 287.208 C 91.339 287.393,91.031 287.421,90.333 287.321 C 88.813 287.105,87.286 287.150,86.926 287.422 C 86.749 287.557,86.498 287.667,86.369 287.667 C 86.240 287.667,85.929 287.813,85.678 287.992 C 85.208 288.327,82.059 288.388,81.283 288.078 C 81.118 288.012,80.561 288.042,80.047 288.145 C 79.532 288.249,78.875 288.333,78.586 288.333 C 78.233 288.333,77.768 288.552,77.171 288.997 C 76.681 289.362,76.143 289.705,75.974 289.758 C 75.735 289.834,75.667 290.024,75.667 290.610 C 75.667 291.226,75.605 291.381,75.332 291.452 C 74.912 291.562,74.876 291.752,74.762 294.426 C 74.664 296.719,74.733 297.000,75.396 297.000 C 75.722 297.000,75.722 297.003,75.391 297.375 C 75.189 297.602,75.075 297.933,75.102 298.214 C 75.141 298.607,75.074 298.694,74.671 298.774 C 73.518 299.005,73.318 299.506,73.163 302.565 C 73.024 305.286,73.061 305.700,73.541 306.806 C 73.915 307.669,77.064 308.938,80.250 309.510 C 80.617 309.576,81.329 309.717,81.833 309.824 C 82.337 309.930,83.109 310.049,83.547 310.089 C 83.985 310.128,84.784 310.274,85.321 310.413 C 85.858 310.553,86.498 310.667,86.743 310.667 C 86.987 310.667,87.876 310.814,88.719 310.994 C 90.589 311.394,93.463 311.870,93.917 311.854 C 94.100 311.848,95.150 312.001,96.250 312.194 C 97.350 312.388,98.775 312.598,99.417 312.661 C 100.058 312.725,101.258 312.900,102.083 313.050 C 104.409 313.473,107.230 313.850,109.329 314.018 C 110.381 314.103,111.694 314.245,112.246 314.334 C 115.330 314.834,127.137 314.939,131.833 314.509 C 132.704 314.429,134.617 314.279,136.083 314.174 C 137.550 314.070,139.912 313.866,141.333 313.721 C 142.754 313.576,144.629 313.398,145.500 313.326 C 146.371 313.253,147.887 313.100,148.869 312.985 C 150.289 312.819,151.058 312.818,152.619 312.980 C 156.841 313.418,159.960 313.567,165.083 313.575 C 172.085 313.586,181.461 313.248,182.667 312.941 C 183.171 312.813,184.333 312.658,185.250 312.598 C 186.167 312.537,187.329 312.385,187.833 312.260 C 188.338 312.134,189.125 311.981,189.583 311.920 C 190.042 311.858,190.583 311.701,190.786 311.570 C 190.989 311.440,191.305 311.333,191.488 311.333 C 191.671 311.333,192.202 311.183,192.667 311.000 C 193.132 310.817,193.698 310.667,193.925 310.667 C 194.151 310.667,194.668 310.511,195.073 310.321 C 195.478 310.131,195.945 309.992,196.113 310.013 C 196.424 310.052,196.860 309.928,197.373 309.655 C 197.532 309.570,197.851 309.500,198.081 309.500 C 198.311 309.500,198.500 309.432,198.500 309.350 C 198.500 309.149,199.432 308.833,200.025 308.833 C 200.286 308.833,200.500 308.758,200.500 308.667 C 200.500 308.575,200.646 308.500,200.823 308.500 C 201.001 308.500,201.193 308.425,201.250 308.333 C 201.307 308.242,201.574 308.167,201.843 308.167 C 202.113 308.167,202.333 308.092,202.333 308.000 C 202.333 307.908,202.515 307.833,202.736 307.833 C 202.958 307.833,203.164 307.760,203.194 307.670 C 203.225 307.579,203.475 307.477,203.750 307.441 C 204.296 307.371,204.757 307.228,205.206 306.988 C 205.365 306.903,205.643 306.833,205.823 306.833 C 206.133 306.833,206.630 306.668,207.442 306.293 C 207.639 306.202,207.902 306.163,208.025 306.205 C 208.149 306.247,208.475 306.212,208.750 306.126 C 209.529 305.882,210.529 305.654,211.149 305.579 C 211.461 305.541,212.211 305.401,212.816 305.267 C 213.421 305.133,214.329 304.946,214.833 304.851 C 216.399 304.555,218.409 304.084,218.586 303.970 C 218.679 303.911,219.241 303.774,219.836 303.667 C 220.430 303.559,221.002 303.400,221.106 303.314 C 221.230 303.212,221.328 303.245,221.392 303.412 C 221.525 303.758,222.179 303.732,223.037 303.347 C 224.287 302.785,225.472 302.333,225.693 302.333 C 225.810 302.333,226.734 301.928,227.745 301.432 C 229.834 300.407,230.898 299.932,231.500 299.753 C 231.729 299.685,232.255 299.349,232.668 299.006 L 233.419 298.382 236.834 298.262 C 239.240 298.177,240.393 298.071,240.734 297.904 C 241.000 297.773,241.389 297.667,241.599 297.667 C 241.809 297.667,242.025 297.594,242.081 297.504 C 242.136 297.415,242.437 297.221,242.750 297.072 C 243.442 296.744,244.070 296.135,244.437 295.437 C 244.837 294.675,244.965 291.382,244.621 290.693 C 244.391 290.231,244.394 290.163,244.656 289.926 C 245.245 289.393,245.500 289.590,245.500 290.579 L 245.500 291.491 246.375 291.729 C 247.933 292.152,252.122 292.540,253.417 292.381 C 254.853 292.204,255.833 292.394,255.833 292.850 C 255.833 293.204,256.801 294.233,257.844 294.989 C 258.601 295.537,259.769 295.914,261.167 296.061 C 261.671 296.114,262.571 296.233,263.167 296.326 C 264.872 296.591,268.421 296.556,269.667 296.261 C 270.262 296.120,271.091 296.004,271.508 296.002 C 271.925 296.001,272.338 295.938,272.425 295.861 C 272.512 295.785,272.921 295.628,273.333 295.512 C 273.746 295.395,274.196 295.204,274.333 295.087 C 274.471 294.969,274.771 294.818,275.000 294.751 C 276.119 294.422,276.470 293.531,275.667 293.057 C 275.210 292.787,275.167 292.684,275.167 291.866 C 275.167 290.975,274.528 289.681,274.083 289.669 C 273.992 289.667,273.660 289.425,273.346 289.131 C 272.540 288.375,271.750 287.865,271.145 287.708 C 270.719 287.597,270.560 287.414,270.270 286.703 C 270.076 286.225,269.823 285.834,269.708 285.833 C 269.572 285.833,269.500 285.568,269.500 285.061 C 269.500 284.261,268.675 283.167,268.071 283.167 C 267.940 283.167,267.833 283.097,267.833 283.011 C 267.833 282.794,267.269 282.638,266.941 282.764 C 266.791 282.821,266.710 282.935,266.761 283.017 C 266.812 283.100,266.736 283.167,266.593 283.167 C 266.177 283.167,266.493 281.847,267.054 281.239 C 267.622 280.623,268.558 279.225,268.575 278.966 C 268.580 278.901,268.703 278.751,268.849 278.632 C 269.156 278.383,269.833 276.834,269.833 276.381 C 269.833 276.212,269.955 275.901,270.103 275.689 C 270.535 275.073,270.326 273.981,269.598 273.046 C 268.829 272.059,268.740 271.689,268.991 270.524 C 269.335 268.920,269.534 268.498,269.994 268.385 C 270.952 268.149,271.833 267.191,271.833 266.385 C 271.833 265.948,271.936 265.540,272.083 265.393 C 272.221 265.255,272.333 265.201,272.333 265.273 C 272.333 265.657,273.623 263.901,273.813 263.258 C 274.010 262.592,274.093 262.500,274.505 262.500 C 274.948 262.500,276.273 261.912,276.849 261.459 C 277.110 261.254,277.398 260.533,277.581 259.625 C 277.648 259.288,277.772 259.167,278.045 259.169 C 278.588 259.173,280.491 258.164,281.038 257.583 C 281.297 257.308,281.620 256.965,281.755 256.819 C 281.890 256.674,282.000 256.471,282.000 256.369 C 282.000 255.926,282.413 255.341,282.855 255.158 C 283.118 255.049,283.333 254.897,283.333 254.821 C 283.333 254.744,283.633 254.253,284.000 253.730 C 284.367 253.206,284.667 252.695,284.667 252.593 C 284.667 252.491,284.793 252.227,284.948 252.006 C 285.103 251.785,285.254 251.337,285.285 251.010 C 285.338 250.441,286.557 249.079,286.851 249.261 C 286.973 249.336,288.500 247.927,288.500 247.739 C 288.500 247.235,289.141 246.279,289.612 246.082 C 290.095 245.880,290.884 244.767,290.910 244.250 C 290.914 244.158,291.180 244.077,291.501 244.069 C 292.640 244.041,294.019 242.947,294.364 241.798 C 294.468 241.451,294.614 241.167,294.688 241.167 C 294.763 241.167,295.257 240.968,295.787 240.725 C 296.317 240.483,296.881 240.258,297.040 240.227 C 297.407 240.154,298.000 239.570,298.000 239.281 C 298.000 238.959,298.635 238.334,298.965 238.331 C 299.273 238.329,299.880 237.897,300.771 237.047 C 301.282 236.560,301.334 236.423,301.336 235.547 L 301.339 234.583 302.174 234.188 C 303.165 233.720,303.774 232.819,303.944 231.570 C 304.005 231.119,304.222 230.450,304.426 230.083 C 304.629 229.717,304.887 229.113,304.998 228.742 C 305.132 228.294,305.390 227.937,305.766 227.679 C 306.078 227.465,306.333 227.187,306.333 227.060 C 306.333 226.933,306.420 226.690,306.526 226.520 C 306.667 226.295,306.674 225.929,306.554 225.183 L 306.389 224.156 306.936 223.896 C 307.696 223.536,308.219 221.991,308.143 220.333 L 308.089 219.174 308.852 218.378 C 309.997 217.185,310.336 216.371,310.401 214.667 C 310.434 213.810,310.558 213.366,310.995 212.545 L 311.547 211.508 311.338 210.212 C 311.223 209.500,310.986 208.715,310.810 208.468 L 310.491 208.019 311.016 207.166 C 311.446 206.468,311.525 206.193,311.453 205.656 C 311.388 205.175,311.425 205.000,311.589 205.000 C 312.343 205.000,313.553 202.979,313.462 201.873 C 313.393 201.048,313.420 200.963,313.819 200.749 C 315.055 200.085,315.833 198.614,315.833 196.941 C 315.833 195.916,315.850 195.876,316.493 195.359 C 317.562 194.500,317.901 193.575,317.921 191.462 L 317.937 189.674 318.526 189.085 C 318.923 188.688,319.218 188.157,319.430 187.457 C 319.629 186.799,320.008 186.094,320.462 185.537 C 321.266 184.550,321.537 183.965,321.478 183.341 C 321.450 183.037,321.633 182.720,322.120 182.225 C 322.494 181.845,322.849 181.381,322.908 181.195 C 322.969 181.000,323.219 180.812,323.494 180.751 C 324.504 180.529,325.464 179.080,325.623 177.539 C 325.722 176.576,325.906 176.278,327.828 173.964 C 327.962 173.802,328.231 173.125,328.425 172.460 C 328.658 171.663,328.887 171.200,329.097 171.103 C 329.937 170.715,330.997 168.662,331.259 166.917 C 331.349 166.313,331.468 166.105,331.833 165.917 C 332.086 165.786,332.346 165.545,332.411 165.381 C 332.652 164.776,333.159 162.737,333.169 162.333 C 333.176 162.043,333.376 161.780,333.827 161.469 C 334.183 161.223,334.599 160.758,334.752 160.435 C 334.958 160.002,335.221 159.777,335.761 159.570 C 336.162 159.417,336.535 159.151,336.590 158.979 C 336.645 158.807,336.752 158.667,336.829 158.667 C 337.011 158.667,337.833 157.261,337.833 156.949 C 337.833 156.817,338.041 156.667,338.294 156.616 C 338.547 156.566,338.941 156.362,339.169 156.164 C 339.397 155.966,339.666 155.754,339.767 155.694 C 339.984 155.564,340.894 154.158,340.918 153.917 C 340.927 153.825,341.018 153.556,341.120 153.318 C 341.222 153.081,341.353 152.518,341.412 152.068 C 341.583 150.754,341.660 150.500,341.888 150.500 C 342.534 150.500,343.333 148.646,343.333 147.146 C 343.333 146.033,343.353 145.981,343.992 145.341 C 345.174 144.159,345.541 142.987,345.077 141.876 C 344.822 141.266,344.823 141.262,345.369 140.757 C 346.129 140.053,346.500 139.431,346.500 138.857 C 346.500 138.492,346.594 138.345,346.875 138.270 C 347.299 138.158,348.667 136.973,348.667 136.718 C 348.667 136.626,348.798 136.296,348.958 135.984 C 349.142 135.625,349.257 134.996,349.271 134.270 L 349.293 133.124 350.085 132.447 C 351.297 131.411,351.922 128.515,351.042 128.019 C 350.768 127.865,350.770 127.835,351.083 127.533 C 351.471 127.159,351.916 126.539,351.919 126.368 C 351.920 126.303,352.026 125.999,352.154 125.691 C 352.340 125.248,352.348 125.022,352.194 124.596 C 352.087 124.301,352.000 123.951,352.000 123.819 C 352.000 123.687,351.850 123.298,351.666 122.956 C 351.483 122.613,351.389 122.333,351.458 122.332 C 351.527 122.332,351.726 122.088,351.901 121.791 C 353.095 119.759,353.235 119.085,352.666 118.119 L 352.332 117.553 352.916 116.951 C 353.343 116.512,353.500 116.202,353.501 115.800 C 353.502 115.340,353.605 115.191,354.126 114.891 C 354.799 114.503,355.500 113.124,355.500 112.186 C 355.500 111.882,355.693 111.508,356.042 111.138 C 357.171 109.938,357.581 108.794,357.601 106.789 C 357.614 105.498,357.686 104.914,357.858 104.706 C 358.545 103.875,358.643 103.325,358.436 101.452 C 358.254 99.802,358.931 98.864,359.665 99.748 C 359.778 99.885,359.924 99.963,359.989 99.923 C 360.054 99.883,360.230 99.978,360.381 100.134 C 361.294 101.079,361.673 101.376,363.946 102.925 C 364.238 103.123,364.599 103.409,364.750 103.559 C 364.901 103.710,365.125 103.833,365.248 103.833 C 365.371 103.833,365.497 103.890,365.528 103.960 C 365.875 104.751,369.275 105.371,369.745 104.729 C 369.855 104.578,370.234 104.435,370.597 104.408 C 370.956 104.381,371.763 104.275,372.391 104.174 C 373.213 104.040,373.896 104.038,374.834 104.167 C 375.550 104.265,376.386 104.368,376.693 104.397 C 377.300 104.454,379.154 104.814,381.725 105.376 C 383.782 105.825,384.542 105.586,384.635 104.458 C 384.696 103.722,384.449 103.576,382.667 103.295 C 382.071 103.200,381.039 102.983,380.373 102.812 C 379.708 102.640,378.984 102.500,378.766 102.500 C 378.383 102.500,376.436 101.968,375.750 101.676 C 375.567 101.598,375.173 101.442,374.875 101.330 C 374.577 101.218,374.333 101.074,374.333 101.011 C 374.333 100.609,378.327 98.484,379.686 98.164 C 380.179 98.047,381.079 97.813,381.685 97.643 C 382.290 97.473,382.921 97.333,383.087 97.333 C 383.252 97.333,383.769 97.224,384.235 97.089 C 384.702 96.955,385.307 96.799,385.580 96.743 C 387.022 96.447,388.643 93.316,389.416 89.333 C 389.568 88.554,389.836 87.379,390.012 86.723 C 390.189 86.066,390.334 85.316,390.335 85.056 C 390.335 84.796,390.485 84.096,390.667 83.500 C 390.995 82.426,391.148 79.079,390.899 78.430 C 390.729 77.987,389.630 78.087,389.196 78.585 C 388.879 78.949,388.744 78.990,388.150 78.895 C 387.428 78.779,386.688 79.344,386.673 80.022 C 386.665 80.369,385.833 80.956,385.833 80.615 C 385.833 80.293,384.665 78.833,384.407 78.833 C 384.289 78.833,383.980 78.621,383.721 78.362 C 382.881 77.523,382.297 77.549,381.553 78.459 C 381.203 78.887,380.748 79.412,380.542 79.626 C 380.335 79.840,380.167 80.185,380.167 80.392 C 380.167 80.600,380.057 80.915,379.922 81.093 C 379.494 81.659,379.633 82.062,380.578 82.995 L 381.489 83.894 380.120 84.357 C 379.317 84.628,378.376 84.822,377.848 84.826 C 376.722 84.835,374.214 85.271,373.000 85.669 C 372.342 85.885,371.308 85.998,369.333 86.070 C 367.821 86.125,365.583 86.216,364.360 86.273 L 362.137 86.375 362.255 84.717 C 362.376 83.011,362.180 82.150,361.629 81.956 C 361.473 81.901,361.510 81.752,361.765 81.399 C 362.198 80.798,362.404 78.763,362.139 77.708 C 361.893 76.733,361.786 76.764,365.216 76.814 L 368.258 76.858 369.337 76.144 C 369.931 75.751,370.516 75.294,370.636 75.128 C 370.757 74.963,370.915 74.864,370.987 74.909 C 371.059 74.953,371.290 74.807,371.500 74.583 C 371.710 74.360,371.937 74.211,372.005 74.253 C 372.073 74.295,372.227 74.212,372.347 74.067 C 372.681 73.664,374.705 72.811,377.167 72.035 C 377.762 71.847,378.613 71.537,379.057 71.346 C 379.500 71.155,379.932 71.041,380.015 71.093 C 380.098 71.144,380.167 71.094,380.167 70.982 C 380.167 70.870,380.214 70.825,380.271 70.882 C 380.329 70.940,380.587 70.877,380.846 70.744 C 381.104 70.610,381.451 70.477,381.616 70.447 C 383.475 70.116,384.128 69.317,383.325 68.354 L 382.995 67.957 381.956 68.239 C 380.953 68.511,379.963 68.803,377.667 69.504 C 373.878 70.660,373.002 70.762,372.135 70.144 C 371.587 69.754,371.570 68.825,372.093 67.815 C 372.218 67.573,372.273 67.329,372.216 67.271 C 372.158 67.214,372.199 67.167,372.306 67.167 C 372.413 67.167,372.500 67.054,372.500 66.917 C 372.500 66.779,372.574 66.667,372.663 66.667 C 372.753 66.667,372.874 66.479,372.932 66.250 C 372.989 66.021,373.087 65.833,373.149 65.833 C 373.211 65.833,373.384 65.627,373.533 65.375 C 374.026 64.543,375.163 63.498,376.623 62.538 C 377.101 62.223,377.474 61.784,377.777 61.176 L 378.224 60.279 378.031 58.264 C 377.806 55.905,377.553 54.463,377.234 53.707 C 377.108 53.409,376.991 53.109,376.976 53.041 C 376.840 52.456,374.228 48.860,373.926 48.843 C 373.840 48.838,373.490 48.533,373.148 48.167 C 372.806 47.800,372.457 47.500,372.372 47.500 C 371.990 47.500,371.333 48.284,371.333 48.740 C 371.333 49.003,371.159 49.451,370.946 49.734 C 370.733 50.018,370.500 50.400,370.428 50.583 C 370.314 50.871,370.261 50.823,370.037 50.226 C 369.618 49.112,368.387 48.726,366.769 49.202 C 365.769 49.496,365.642 49.724,365.725 51.083 C 365.787 52.117,365.954 52.673,366.511 53.706 C 366.596 53.865,366.667 54.733,366.667 55.634 L 366.667 57.273 365.792 57.741 C 365.310 57.998,364.519 58.419,364.033 58.676 C 363.547 58.934,362.914 59.375,362.626 59.656 C 362.339 59.937,361.965 60.167,361.795 60.167 C 361.625 60.167,361.265 60.317,360.993 60.500 C 360.722 60.683,360.278 60.983,360.007 61.167 C 359.735 61.350,359.316 61.500,359.074 61.500 C 358.832 61.500,358.418 61.628,358.153 61.784 C 357.733 62.033,357.532 62.045,356.557 61.878 C 355.910 61.767,355.329 61.747,355.173 61.830 C 354.731 62.067,350.960 63.000,350.445 63.000 C 350.182 63.000,349.731 63.110,349.442 63.245 C 348.728 63.578,344.861 64.155,343.386 64.149 C 342.727 64.146,342.031 64.228,341.838 64.331 C 341.425 64.552,338.521 64.669,338.398 64.470 C 338.240 64.215,336.664 64.312,336.560 64.583 C 336.508 64.721,336.322 64.833,336.149 64.833 C 335.975 64.833,335.833 64.890,335.833 64.958 C 335.833 65.027,334.802 65.093,333.542 65.104 C 331.173 65.126,328.925 65.383,328.576 65.673 C 328.263 65.932,326.908 65.930,326.420 65.668 C 325.946 65.415,325.675 65.595,325.669 66.167 C 325.666 66.433,325.777 66.421,322.167 66.564 C 318.274 66.718,317.307 66.829,316.869 67.175 C 316.641 67.354,316.345 67.500,316.212 67.500 C 316.078 67.500,315.753 67.627,315.491 67.782 C 315.037 68.050,314.996 68.048,314.664 67.748 C 314.108 67.244,312.282 67.185,311.654 67.650 C 311.113 68.049,311.276 68.040,306.667 67.929 L 303.417 67.851 301.896 68.576 C 301.060 68.975,300.198 69.484,299.980 69.707 C 298.865 70.848,297.299 71.446,294.833 71.673 C 293.779 71.770,292.785 71.888,292.625 71.936 C 292.383 72.008,292.333 71.914,292.332 71.386 C 292.331 71.036,292.146 70.355,291.921 69.872 C 291.697 69.389,291.510 68.958,291.507 68.913 C 291.493 68.702,289.955 65.658,289.820 65.575 C 289.736 65.523,289.666 65.241,289.666 64.948 C 289.665 64.590,289.505 64.246,289.173 63.892 C 288.903 63.603,288.635 63.181,288.578 62.954 C 288.521 62.726,288.217 62.291,287.904 61.987 C 287.503 61.599,287.332 61.283,287.329 60.926 C 287.324 60.189,287.078 59.240,286.813 58.929 C 285.586 57.490,284.979 57.000,284.427 57.000 C 284.111 57.000,283.808 56.927,283.753 56.838 C 283.593 56.580,282.342 56.291,281.203 56.248 C 280.189 56.210,279.500 55.888,279.500 55.451 C 279.500 55.361,279.376 55.196,279.223 55.085 C 278.966 54.896,278.966 54.855,279.223 54.487 C 279.618 53.924,279.577 53.085,279.134 52.672 C 278.851 52.408,278.813 52.287,278.968 52.132 C 279.297 51.803,279.194 51.336,278.756 51.169 C 278.220 50.965,277.575 49.677,277.418 48.500 C 277.269 47.381,277.223 47.322,275.758 46.373 C 275.112 45.955,274.423 45.456,274.227 45.264 C 274.031 45.073,273.393 44.671,272.810 44.371 C 272.227 44.071,271.225 43.493,270.583 43.087 C 269.942 42.680,269.310 42.344,269.180 42.340 C 269.050 42.337,268.820 42.222,268.670 42.086 C 268.348 41.795,265.993 41.173,265.197 41.169 C 264.595 41.166,264.588 41.090,265.080 39.917 C 265.304 39.384,265.368 38.980,265.398 37.917 C 265.408 37.550,265.463 37.212,265.521 37.167 C 266.167 36.648,266.500 35.724,266.507 34.435 C 266.511 33.692,266.623 32.783,266.755 32.417 C 266.887 32.050,266.996 31.424,266.997 31.025 C 267.000 30.426,267.097 30.203,267.561 29.739 C 267.869 29.431,268.213 28.932,268.324 28.631 C 268.436 28.330,268.645 27.821,268.789 27.500 C 269.247 26.480,269.298 23.207,268.861 22.900 C 268.562 22.691,268.539 22.597,268.701 22.240 C 268.844 21.928,268.841 21.378,268.691 20.037 C 268.580 19.054,268.499 18.100,268.510 17.917 C 268.555 17.121,267.574 15.169,266.375 13.670 C 266.169 13.413,266.000 13.116,266.000 13.011 C 266.000 12.906,265.700 12.526,265.333 12.167 C 264.967 11.807,264.667 11.372,264.667 11.199 C 264.667 10.826,264.167 10.333,263.788 10.333 C 263.641 10.333,263.478 10.267,263.428 10.185 C 263.378 10.104,263.092 9.998,262.793 9.950 C 261.915 9.810,261.802 9.766,260.667 9.128 C 259.609 8.534,258.419 8.129,257.750 8.136 C 254.348 8.170,251.837 8.320,251.491 8.510 C 251.267 8.633,250.633 8.782,250.083 8.842 C 249.106 8.949,247.500 9.779,247.500 10.178 C 247.500 10.264,247.386 10.333,247.248 10.333 C 247.109 10.333,246.865 10.404,246.706 10.491 C 246.547 10.578,246.149 10.691,245.822 10.743 C 244.944 10.882,244.167 12.118,244.167 13.376 C 244.167 13.673,243.966 14.122,243.661 14.507 C 243.090 15.228,242.643 16.765,242.329 19.083 C 242.218 19.908,242.052 20.725,241.962 20.898 C 241.871 21.071,241.776 21.409,241.750 21.648 C 241.494 24.023,241.472 24.681,241.635 25.148 C 241.765 25.520,241.765 25.667,241.635 25.667 C 240.822 25.667,240.613 26.451,240.541 29.781 L 240.472 32.984 240.968 33.450 C 241.241 33.707,241.800 34.229,242.211 34.612 L 242.956 35.306 243.053 39.945 C 243.106 42.496,243.197 44.775,243.255 45.009 C 243.338 45.346,243.279 45.476,242.972 45.633 C 242.298 45.977,241.929 46.241,241.701 46.542 C 241.580 46.702,241.373 46.833,241.241 46.833 C 241.108 46.833,241.000 46.942,241.000 47.074 C 241.000 47.206,240.857 47.414,240.683 47.536 C 240.509 47.658,240.153 48.193,239.892 48.725 C 239.443 49.642,239.392 49.687,238.917 49.593 C 238.642 49.539,237.728 49.425,236.885 49.340 C 236.043 49.255,235.066 49.108,234.715 49.013 C 234.364 48.918,233.814 48.807,233.493 48.766 C 233.172 48.725,232.525 48.540,232.056 48.355 C 231.587 48.170,231.167 48.055,231.123 48.099 C 231.079 48.143,230.656 48.026,230.182 47.839 C 229.709 47.653,229.118 47.500,228.869 47.499 C 228.620 47.499,228.171 47.349,227.871 47.166 C 227.571 46.983,227.215 46.833,227.079 46.833 C 226.944 46.833,226.833 46.758,226.833 46.667 C 226.833 46.575,226.721 46.500,226.583 46.500 C 226.446 46.500,226.333 46.443,226.333 46.374 C 226.333 46.305,225.865 46.074,225.292 45.861 C 223.966 45.369,222.500 44.635,222.500 44.465 C 222.500 44.392,222.379 44.333,222.231 44.333 C 222.028 44.333,221.990 44.240,222.076 43.958 C 222.546 42.419,222.549 42.362,222.186 41.666 C 221.777 40.881,221.741 40.451,222.062 40.184 C 222.206 40.064,222.335 39.429,222.411 38.460 C 222.517 37.099,222.588 36.854,223.033 36.292 C 223.422 35.800,223.521 35.530,223.469 35.092 C 223.410 34.580,223.449 34.519,223.894 34.429 C 225.106 34.187,225.307 31.724,224.250 30.072 C 223.929 29.571,223.666 29.105,223.666 29.038 C 223.665 28.971,223.550 28.697,223.410 28.428 C 223.012 27.666,223.047 25.748,223.475 24.833 C 224.005 23.702,223.937 22.235,223.233 19.583 C 223.173 19.357,223.311 19.081,223.661 18.723 C 224.631 17.734,225.470 15.333,224.846 15.333 C 224.747 15.333,224.667 15.175,224.667 14.981 C 224.667 14.587,223.579 13.503,223.176 13.495 C 222.872 13.488,222.336 13.112,222.328 12.898 C 222.314 12.539,221.733 11.559,221.567 11.616 C 221.466 11.650,221.288 11.563,221.171 11.422 C 221.048 11.274,220.691 11.167,220.317 11.167 C 219.777 11.167,219.636 11.090,219.424 10.681 C 219.163 10.177,218.411 9.820,217.661 9.845 C 217.153 9.861,216.825 9.787,216.500 9.584 C 215.903 9.210,214.422 8.500,214.239 8.500 C 214.128 8.500,213.673 8.391,213.227 8.259 C 212.782 8.126,212.216 7.976,211.971 7.925 C 211.726 7.875,211.303 7.646,211.030 7.417 C 210.494 6.965,210.014 6.886,209.703 7.197 C 209.502 7.398,209.325 7.344,208.141 6.730 C 207.718 6.510,204.441 6.425,203.583 6.611 " stroke="none" fill="#5cfc54" fill-rule="evenodd"></path><path id="path1" d="M268.548 18.583 C 268.549 19.042,268.581 19.209,268.620 18.956 C 268.658 18.703,268.657 18.328,268.617 18.123 C 268.578 17.918,268.546 18.125,268.548 18.583 M224.879 32.000 C 224.879 32.412,224.911 32.581,224.951 32.375 C 224.991 32.169,224.991 31.831,224.951 31.625 C 224.911 31.419,224.879 31.587,224.879 32.000 M343.708 64.119 C 343.960 64.158,344.373 64.158,344.625 64.119 C 344.877 64.081,344.671 64.050,344.167 64.050 C 343.662 64.050,343.456 64.081,343.708 64.119 M197.347 96.714 C 197.385 96.740,197.562 96.871,197.740 97.005 C 197.918 97.140,198.012 97.163,197.948 97.056 C 197.884 96.949,197.925 96.824,198.041 96.777 C 198.156 96.731,198.031 96.687,197.764 96.680 C 197.497 96.673,197.309 96.688,197.347 96.714 M163.127 178.118 C 163.334 178.158,163.634 178.156,163.794 178.115 C 163.953 178.073,163.783 178.040,163.417 178.042 C 163.050 178.044,162.920 178.078,163.127 178.118 M308.214 220.750 C 308.216 221.208,308.248 221.376,308.286 221.123 C 308.325 220.869,308.324 220.494,308.284 220.289 C 308.244 220.084,308.213 220.292,308.214 220.750 M290.938 244.132 C 290.893 244.204,291.114 244.234,291.428 244.197 C 291.743 244.160,292.000 244.101,292.000 244.065 C 292.000 243.940,291.019 244.001,290.938 244.132 M108.219 285.291 C 109.576 285.319,111.751 285.319,113.052 285.291 C 114.353 285.263,113.242 285.240,110.583 285.240 C 107.925 285.240,106.861 285.263,108.219 285.291 M265.708 296.619 C 265.960 296.658,266.373 296.658,266.625 296.619 C 266.877 296.581,266.671 296.550,266.167 296.550 C 265.662 296.550,265.456 296.581,265.708 296.619 M73.052 303.417 C 73.053 303.967,73.084 304.172,73.121 303.872 C 73.158 303.572,73.157 303.122,73.119 302.872 C 73.081 302.622,73.051 302.867,73.052 303.417 M193.542 310.782 C 193.702 310.823,193.965 310.823,194.125 310.782 C 194.285 310.740,194.154 310.705,193.833 310.705 C 193.512 310.705,193.381 310.740,193.542 310.782 " stroke="none" fill="#60fc54" fill-rule="evenodd"></path></g></svg>