<svg id="svg" xmlns="http://www.w3.org/2000/svg" xmlns:xlink="http://www.w3.org/1999/xlink" width="400" height="290.29411764705884" viewBox="0, 0, 400,290.29411764705884" version="1.1"><g id="svgg"><path id="path0" d="M347.326 6.028 C 347.089 6.350,346.920 6.375,345.181 6.353 L 343.293 6.328 342.410 6.914 C 341.924 7.236,341.439 7.500,341.331 7.500 C 340.919 7.500,338.833 9.046,338.833 9.352 C 338.833 9.521,338.646 9.782,338.417 9.932 C 338.188 10.082,338.000 10.309,338.000 10.436 C 338.000 10.774,337.384 11.333,337.011 11.333 C 336.344 11.333,335.638 13.090,336.173 13.420 C 336.271 13.481,336.036 13.804,335.631 14.166 C 335.192 14.559,334.856 14.747,334.758 14.653 C 334.522 14.425,333.901 14.468,333.686 14.727 C 333.553 14.887,333.535 15.514,333.624 16.849 L 333.750 18.744 333.125 19.308 C 332.464 19.904,332.259 20.859,332.697 21.297 C 332.882 21.482,332.647 22.226,332.317 22.500 C 331.784 22.942,331.596 27.429,332.092 27.841 C 332.225 27.951,332.333 28.219,332.333 28.437 C 332.333 28.655,332.483 28.983,332.667 29.167 C 332.886 29.386,333.000 29.722,333.000 30.153 C 333.000 30.675,333.108 30.905,333.542 31.305 C 335.437 33.053,335.302 32.970,336.447 33.093 C 337.683 33.225,338.562 33.928,338.762 34.945 C 338.883 35.561,339.543 35.920,340.281 35.769 C 341.104 35.600,341.320 35.944,341.490 37.687 C 341.631 39.145,341.868 40.229,342.362 41.682 C 342.811 43.003,344.470 43.400,345.860 42.519 C 346.277 42.254,346.798 41.982,347.018 41.913 C 347.237 41.844,347.465 41.714,347.523 41.623 C 347.646 41.431,348.363 41.917,348.667 42.399 C 348.777 42.573,348.930 43.323,349.009 44.066 C 349.355 47.343,350.165 48.333,352.500 48.333 C 353.782 48.333,354.239 48.201,354.806 47.663 C 355.054 47.428,355.252 47.352,355.354 47.454 C 355.456 47.556,355.421 47.691,355.257 47.827 C 355.116 47.945,355.000 48.155,355.000 48.294 C 355.000 48.433,354.879 48.635,354.731 48.743 C 354.583 48.852,354.264 49.282,354.023 49.700 C 353.324 50.908,351.035 54.562,350.827 54.800 C 350.723 54.919,350.426 55.481,350.166 56.050 C 349.906 56.618,349.539 57.212,349.351 57.369 C 349.163 57.527,348.960 57.864,348.900 58.119 C 348.840 58.375,348.507 58.927,348.159 59.347 C 347.474 60.175,346.333 62.210,346.333 62.605 C 346.333 62.739,346.022 63.464,345.641 64.216 C 345.261 64.968,344.894 65.733,344.826 65.917 C 344.758 66.100,344.511 66.662,344.277 67.167 C 344.043 67.671,343.545 69.283,343.170 70.750 C 342.796 72.217,342.307 74.129,342.083 75.000 C 341.859 75.871,341.592 77.183,341.488 77.917 C 341.385 78.650,341.005 80.955,340.644 83.039 L 339.988 86.828 340.235 88.705 C 340.371 89.738,340.533 91.067,340.595 91.658 C 340.657 92.250,340.796 93.037,340.904 93.408 C 341.069 93.972,341.054 94.237,340.813 95.018 C 340.495 96.045,340.139 98.321,340.264 98.523 C 340.308 98.594,340.026 98.737,339.637 98.841 C 339.249 98.946,338.614 99.250,338.226 99.517 C 337.838 99.783,337.479 99.935,337.429 99.853 C 337.378 99.771,337.092 99.662,336.793 99.611 C 336.494 99.561,335.762 99.404,335.167 99.263 C 333.520 98.874,330.660 98.911,329.833 99.333 C 328.970 99.774,328.225 99.754,325.657 99.223 L 323.513 98.779 322.652 99.226 C 321.482 99.833,318.810 99.873,316.104 99.325 C 314.662 99.032,314.173 98.993,313.714 99.134 C 313.282 99.267,312.710 99.248,311.444 99.059 C 310.429 98.908,309.416 98.852,308.917 98.921 C 307.750 99.080,301.839 98.994,301.355 98.810 C 301.136 98.726,300.160 98.590,299.186 98.506 C 298.213 98.422,296.892 98.231,296.250 98.080 C 294.737 97.725,294.020 97.574,292.521 97.296 C 291.001 97.014,290.354 96.429,290.300 95.289 C 290.162 92.309,290.306 91.479,291.071 90.843 C 291.215 90.724,291.333 90.489,291.333 90.323 C 291.333 90.156,291.413 89.971,291.510 89.911 C 291.666 89.814,291.942 89.262,292.671 87.583 C 293.741 85.121,293.284 80.193,291.849 78.714 C 291.366 78.217,291.285 78.021,291.308 77.411 C 291.347 76.384,291.130 75.950,290.041 74.872 C 289.044 73.884,287.730 72.032,287.561 71.375 C 287.507 71.169,287.397 71.000,287.315 71.000 C 287.234 71.000,287.167 70.773,287.167 70.496 C 287.167 70.000,286.560 68.945,285.506 67.607 C 285.228 67.253,285.000 66.884,285.000 66.787 C 285.000 66.689,284.875 66.472,284.723 66.304 C 284.539 66.100,284.456 65.745,284.475 65.243 C 284.490 64.829,284.390 64.271,284.252 64.003 C 284.113 63.735,284.000 63.329,284.000 63.100 C 284.000 62.686,283.240 61.407,282.754 61.004 C 282.615 60.888,282.500 60.680,282.500 60.543 C 282.500 60.406,282.278 60.041,282.007 59.733 C 281.736 59.424,281.433 58.869,281.333 58.500 C 281.234 58.131,280.923 57.567,280.641 57.247 C 278.475 54.779,278.147 50.482,280.053 49.532 C 280.875 49.123,280.840 49.121,283.417 49.675 C 286.156 50.265,287.911 48.815,287.588 46.229 C 287.493 45.470,287.529 45.266,287.821 44.894 C 288.187 44.429,288.270 43.672,288.009 43.184 C 287.902 42.983,287.928 42.743,288.093 42.426 C 288.403 41.828,288.399 41.348,288.083 41.227 C 287.479 40.995,287.937 40.500,288.756 40.500 C 290.735 40.500,290.987 38.015,289.241 35.726 C 288.917 35.302,288.533 34.722,288.388 34.436 C 288.243 34.150,287.984 33.782,287.812 33.619 C 287.403 33.227,287.352 30.427,287.745 29.907 C 288.196 29.310,287.802 27.500,287.220 27.500 C 287.012 27.500,287.297 27.084,288.030 26.317 C 289.277 25.011,289.463 22.775,288.353 22.423 C 288.177 22.367,287.991 22.154,287.940 21.949 C 287.800 21.391,286.833 20.000,286.585 20.000 C 286.466 20.000,286.327 19.891,286.276 19.758 C 286.162 19.460,284.969 18.833,284.518 18.833 C 284.337 18.833,283.818 18.603,283.365 18.321 C 282.775 17.954,282.382 17.824,281.979 17.863 C 281.494 17.909,281.313 17.808,280.660 17.125 C 280.243 16.690,279.805 16.333,279.685 16.333 C 279.566 16.333,279.269 16.233,279.026 16.111 C 276.816 15.003,276.751 14.981,275.750 15.008 C 275.040 15.026,274.521 14.931,273.961 14.677 C 272.056 13.815,268.693 14.246,265.917 15.708 C 264.809 16.291,264.766 16.310,264.303 16.407 C 264.052 16.460,263.808 16.651,263.747 16.842 C 263.686 17.035,263.266 17.361,262.778 17.593 C 259.993 18.920,258.944 19.872,257.775 22.136 C 257.340 22.978,256.922 23.667,256.846 23.667 C 256.769 23.667,256.615 23.910,256.503 24.208 C 256.217 24.971,256.000 25.505,255.742 26.083 C 255.525 26.570,255.236 27.473,254.805 29.000 C 254.689 29.412,254.498 29.938,254.381 30.167 C 254.264 30.396,254.168 30.710,254.168 30.865 C 254.167 31.020,254.092 31.193,254.000 31.250 C 253.908 31.307,253.833 31.518,253.833 31.719 C 253.833 31.920,253.639 32.609,253.402 33.251 C 252.738 35.042,252.640 35.359,252.499 36.167 C 252.427 36.579,252.170 37.460,251.929 38.124 C 251.585 39.067,251.434 39.962,251.237 42.208 C 251.099 43.789,250.877 45.590,250.743 46.208 C 250.360 47.982,250.062 49.487,249.844 50.750 C 249.733 51.392,249.467 52.667,249.252 53.583 C 249.037 54.500,248.783 55.737,248.688 56.333 C 248.593 56.929,248.402 57.904,248.264 58.500 C 248.127 59.096,247.896 60.333,247.752 61.250 C 247.365 63.713,246.996 65.923,246.735 67.333 C 246.608 68.021,246.430 69.212,246.340 69.979 C 246.250 70.747,245.918 72.435,245.602 73.729 C 245.285 75.024,244.949 76.646,244.854 77.333 C 244.759 78.021,244.532 79.296,244.349 80.167 C 244.166 81.037,243.967 82.387,243.907 83.167 C 243.847 83.946,243.538 85.588,243.220 86.817 C 242.902 88.045,242.536 89.695,242.406 90.483 C 242.276 91.272,242.099 92.254,242.013 92.667 C 241.927 93.079,241.734 94.204,241.584 95.167 C 241.141 98.025,240.853 99.680,240.585 100.917 C 240.447 101.558,240.226 102.721,240.096 103.500 C 239.965 104.279,239.734 105.479,239.581 106.167 C 239.037 108.619,238.876 109.428,238.771 110.260 C 238.712 110.723,238.472 111.923,238.239 112.926 C 238.005 113.929,237.738 115.275,237.645 115.917 C 237.456 117.223,236.737 120.927,236.493 121.853 C 236.405 122.184,236.334 122.672,236.334 122.936 C 236.335 123.200,236.040 124.917,235.678 126.750 C 234.488 132.786,234.123 134.728,233.828 136.583 C 233.539 138.402,233.382 139.258,232.896 141.667 C 232.758 142.354,232.574 143.530,232.488 144.280 C 232.403 145.029,232.108 146.792,231.833 148.196 C 231.558 149.601,231.333 150.975,231.333 151.250 C 231.333 151.525,231.114 152.875,230.846 154.250 C 230.218 157.466,229.995 159.152,230.017 160.500 C 230.027 161.096,229.947 161.910,229.840 162.308 C 229.733 162.707,229.666 163.232,229.691 163.475 C 229.717 163.718,229.694 163.992,229.640 164.083 C 229.587 164.175,229.492 164.813,229.429 165.500 C 229.366 166.188,229.199 167.125,229.059 167.583 C 228.737 168.638,228.940 169.333,229.570 169.333 C 229.855 169.333,230.050 169.192,230.201 168.875 C 230.468 168.320,230.858 168.283,231.081 168.792 C 231.289 169.266,231.362 169.262,231.987 168.735 C 232.565 168.249,232.694 167.368,232.241 166.993 C 231.889 166.700,231.986 165.771,232.378 165.697 C 232.539 165.666,232.909 165.841,233.200 166.086 L 233.728 166.530 233.992 165.853 C 234.380 164.861,234.563 164.727,235.075 165.062 C 235.512 165.349,235.628 165.734,235.333 165.917 C 234.868 166.204,235.272 167.333,235.840 167.333 C 236.219 167.333,236.574 168.129,236.520 168.859 C 236.495 169.193,236.593 169.696,236.737 169.975 C 237.188 170.846,236.396 172.553,235.233 173.217 C 235.105 173.290,235.000 173.446,235.000 173.563 C 235.000 173.819,234.304 174.500,234.042 174.500 C 233.940 174.500,233.812 174.639,233.758 174.809 C 233.704 174.979,233.434 175.319,233.158 175.565 C 232.882 175.811,232.611 176.234,232.557 176.506 C 232.503 176.778,232.398 177.000,232.324 177.000 C 232.251 177.000,231.836 177.469,231.403 178.042 C 230.970 178.615,230.476 179.233,230.305 179.417 C 229.579 180.197,228.833 181.134,228.831 181.270 C 228.829 181.351,228.536 181.704,228.180 182.055 C 227.824 182.406,227.356 183.043,227.141 183.472 C 226.926 183.900,226.705 184.287,226.650 184.333 C 226.595 184.379,226.467 184.574,226.365 184.767 C 226.189 185.103,225.405 186.108,224.619 187.006 C 224.416 187.238,224.025 187.718,223.750 188.073 C 223.117 188.889,221.990 190.290,221.529 190.833 C 220.515 192.030,220.000 192.716,220.000 192.872 C 220.000 192.968,219.895 193.130,219.766 193.232 C 219.518 193.428,217.864 195.415,216.750 196.857 C 216.383 197.331,215.840 197.946,215.542 198.223 C 215.244 198.501,215.000 198.795,215.000 198.876 C 215.000 199.027,213.558 200.886,212.875 201.615 C 212.669 201.835,212.500 202.082,212.500 202.164 C 212.500 202.333,211.441 203.622,210.576 204.505 C 210.259 204.829,210.000 205.155,210.000 205.231 C 210.000 205.354,208.925 206.726,207.960 207.833 C 207.761 208.063,207.482 208.449,207.340 208.692 C 207.199 208.935,206.633 209.698,206.083 210.387 C 205.533 211.076,204.783 212.067,204.417 212.590 C 204.050 213.113,203.469 213.835,203.125 214.194 C 202.781 214.553,202.500 214.924,202.500 215.020 C 202.500 215.219,200.935 216.833,200.742 216.833 C 200.671 216.833,200.037 217.415,199.333 218.125 C 197.606 219.866,196.924 220.500,196.777 220.500 C 196.709 220.500,196.338 220.810,195.952 221.188 C 195.566 221.567,195.137 221.971,195.000 222.086 C 194.862 222.201,194.188 222.762,193.500 223.332 C 192.813 223.902,191.688 224.877,191.000 225.498 C 188.991 227.312,188.441 227.773,188.022 227.993 C 187.638 228.194,187.336 228.436,185.926 229.678 C 185.554 230.005,184.987 230.451,184.667 230.668 C 184.346 230.886,183.933 231.198,183.750 231.361 C 181.234 233.600,180.758 234.003,180.369 234.225 C 180.185 234.331,179.318 235.017,178.443 235.750 C 177.567 236.483,176.500 237.346,176.071 237.667 C 175.641 237.987,175.100 238.456,174.868 238.708 C 174.635 238.960,174.374 239.167,174.288 239.167 C 174.201 239.167,173.970 239.312,173.773 239.490 C 172.874 240.306,171.178 241.667,171.061 241.667 C 170.989 241.667,170.653 241.937,170.314 242.268 C 169.975 242.599,169.548 242.956,169.365 243.060 C 169.182 243.165,168.368 243.699,167.558 244.248 C 166.747 244.798,165.945 245.304,165.776 245.374 C 165.607 245.444,165.162 245.763,164.788 246.084 C 164.413 246.404,164.035 246.667,163.948 246.667 C 163.861 246.667,163.424 246.929,162.978 247.250 C 162.531 247.571,162.110 247.833,162.041 247.834 C 161.973 247.834,161.692 248.031,161.417 248.272 C 161.142 248.513,160.509 248.893,160.010 249.117 C 159.511 249.341,158.887 249.706,158.622 249.929 C 158.358 250.151,158.044 250.333,157.924 250.333 C 157.805 250.333,157.629 250.427,157.534 250.542 C 157.439 250.657,156.852 251.012,156.231 251.330 C 155.610 251.649,154.915 252.082,154.689 252.292 C 154.462 252.503,154.083 252.714,153.846 252.761 C 153.610 252.808,153.192 252.904,152.917 252.974 C 152.380 253.110,152.138 253.051,150.083 252.285 C 149.350 252.012,148.525 251.730,148.250 251.660 C 147.975 251.590,147.225 251.344,146.583 251.113 C 144.133 250.234,134.166 250.034,132.602 250.833 C 131.505 251.393,130.397 252.394,129.744 253.415 C 129.067 254.473,127.809 255.002,126.985 254.576 C 126.338 254.241,125.223 254.273,123.167 254.684 C 122.204 254.877,120.854 255.034,120.167 255.034 C 119.479 255.034,118.815 255.117,118.691 255.218 C 118.308 255.531,116.537 255.371,116.000 254.974 C 115.542 254.635,115.441 254.629,112.639 254.785 C 110.309 254.915,109.663 254.903,109.300 254.723 C 109.052 254.600,108.634 254.500,108.370 254.500 C 108.032 254.500,107.825 254.380,107.673 254.094 C 107.433 253.647,107.105 253.491,105.500 253.062 C 104.904 252.903,103.967 252.533,103.417 252.239 C 102.867 251.945,102.054 251.660,101.611 251.604 C 100.800 251.502,100.100 251.251,98.967 250.657 C 97.784 250.036,97.073 250.188,94.645 251.583 C 92.388 252.880,92.134 252.963,91.423 252.639 C 91.099 252.492,90.309 252.490,88.149 252.634 C 85.983 252.778,85.127 252.777,84.570 252.628 C 83.958 252.464,83.709 252.478,83.044 252.712 C 82.523 252.895,82.009 252.957,81.549 252.891 C 81.011 252.815,80.712 252.872,80.261 253.138 C 79.938 253.329,79.135 253.596,78.477 253.732 L 77.282 253.980 76.599 253.439 C 75.796 252.803,75.143 252.500,74.573 252.500 C 74.135 252.500,74.064 252.528,72.708 253.220 C 71.964 253.600,71.624 253.667,70.426 253.667 C 69.653 253.667,68.977 253.735,68.926 253.819 C 68.874 253.903,68.532 254.022,68.167 254.083 C 67.801 254.145,67.459 254.264,67.408 254.348 C 67.356 254.432,67.176 254.500,67.007 254.500 C 66.839 254.500,66.374 254.687,65.975 254.915 C 65.576 255.143,65.121 255.330,64.963 255.331 C 64.672 255.333,63.590 255.775,62.467 256.351 C 62.128 256.525,61.765 256.667,61.660 256.667 C 61.428 256.667,60.789 257.144,59.520 258.265 L 58.560 259.114 56.260 259.211 C 54.971 259.265,53.881 259.386,53.780 259.487 C 53.681 259.586,53.349 259.667,53.042 259.667 C 52.735 259.667,52.266 259.779,52.001 259.916 C 51.697 260.073,51.481 260.104,51.416 259.999 C 51.277 259.774,50.112 259.788,49.883 260.017 C 49.773 260.127,48.836 260.219,47.551 260.245 C 45.954 260.278,45.267 260.359,44.874 260.562 C 44.583 260.713,43.649 260.939,42.798 261.065 C 41.193 261.302,40.548 261.484,39.417 262.019 C 39.050 262.192,38.654 262.334,38.537 262.334 C 38.168 262.333,36.380 263.306,36.282 263.560 C 36.230 263.694,35.932 263.897,35.619 264.010 C 35.206 264.159,34.992 264.374,34.841 264.791 C 34.612 265.426,34.731 265.414,32.667 265.006 C 31.752 264.824,30.399 264.909,30.083 265.168 C 29.992 265.242,29.693 265.329,29.419 265.360 C 29.074 265.399,28.818 265.581,28.586 265.952 C 28.274 266.449,28.184 266.488,27.317 266.494 C 26.602 266.499,26.315 266.578,26.083 266.833 C 25.917 267.017,25.625 267.167,25.433 267.167 C 25.240 267.168,24.838 267.318,24.538 267.501 C 24.238 267.684,23.783 267.833,23.528 267.833 C 23.273 267.833,22.934 267.928,22.776 268.044 C 22.556 268.205,22.040 268.221,20.578 268.111 C 18.358 267.945,17.719 268.152,17.438 269.132 C 17.322 269.537,17.191 269.667,16.898 269.667 C 16.267 269.667,14.500 270.651,14.286 271.121 C 14.063 271.611,12.000 271.586,11.284 271.084 C 10.369 270.444,8.907 271.061,8.731 272.163 C 8.672 272.532,8.561 272.833,8.483 272.833 C 8.215 272.833,7.810 273.863,7.858 274.422 C 7.924 275.181,7.831 275.237,6.367 275.333 C 4.434 275.460,3.686 276.839,4.827 278.173 C 5.156 278.559,5.322 278.937,5.327 279.314 C 5.341 280.494,6.900 281.368,7.951 280.784 C 8.206 280.642,8.694 280.614,9.535 280.692 C 10.203 280.754,14.050 280.849,18.083 280.904 C 22.117 280.958,31.079 281.079,38.000 281.172 C 44.921 281.265,60.708 281.412,73.083 281.498 C 85.458 281.584,98.171 281.698,101.333 281.753 C 114.374 281.977,163.174 282.524,182.750 282.665 C 206.989 282.839,231.637 283.121,240.167 283.322 C 245.681 283.452,246.119 283.441,246.604 283.165 C 246.891 283.002,247.379 282.815,247.688 282.749 C 248.387 282.599,248.667 282.381,248.667 281.986 C 248.667 281.769,248.850 281.636,249.292 281.530 C 249.635 281.448,250.629 281.215,251.500 281.012 C 253.020 280.658,254.320 280.288,255.132 279.979 C 255.369 279.889,255.690 279.462,255.977 278.854 C 256.428 277.900,256.452 277.880,256.846 278.097 C 257.351 278.377,257.856 278.378,258.909 278.101 C 259.442 277.961,259.944 277.932,260.326 278.021 C 260.651 278.097,261.592 278.161,262.417 278.165 C 263.720 278.170,264.015 278.227,264.667 278.603 C 265.573 279.124,266.891 279.277,268.167 279.008 C 269.844 278.653,271.061 278.507,273.538 278.360 C 274.887 278.280,276.087 278.137,276.204 278.043 C 276.321 277.948,276.736 277.818,277.126 277.754 C 277.517 277.690,278.192 277.502,278.626 277.337 C 279.526 276.996,280.683 276.597,281.417 276.376 C 281.807 276.258,282.112 276.310,282.812 276.613 C 283.910 277.087,284.385 277.098,285.085 276.666 C 285.661 276.310,289.362 276.398,291.917 276.829 C 293.399 277.079,294.187 277.037,294.781 276.675 C 295.209 276.414,295.420 276.382,295.864 276.509 C 297.277 276.914,298.514 276.644,299.428 275.730 C 300.103 275.055,300.179 275.022,300.661 275.190 C 300.944 275.288,301.435 275.320,301.753 275.260 C 302.702 275.082,302.703 275.013,301.840 269.417 C 301.572 267.675,301.198 265.237,301.010 264.000 C 300.822 262.762,300.521 261.112,300.342 260.333 C 300.163 259.554,300.013 258.445,300.008 257.868 C 299.997 256.396,299.674 253.659,299.467 253.271 C 299.200 252.773,298.833 250.846,298.833 249.944 C 298.833 249.501,298.681 248.544,298.496 247.816 C 298.056 246.094,297.698 244.024,297.575 242.483 C 297.520 241.805,297.282 239.713,297.045 237.833 C 296.808 235.954,296.631 233.917,296.651 233.306 C 296.689 232.186,296.440 230.961,296.081 230.500 C 295.378 229.596,294.659 221.955,294.822 217.112 C 294.842 216.492,294.766 216.006,294.611 215.769 C 294.336 215.348,294.049 212.673,293.825 208.417 C 293.641 204.920,293.089 198.955,292.753 196.833 C 292.615 195.963,292.502 194.912,292.501 194.500 C 292.500 194.088,292.269 192.063,291.988 190.000 C 291.707 187.938,291.412 185.500,291.332 184.583 C 291.253 183.667,291.110 182.354,291.015 181.667 C 290.136 175.344,289.657 164.157,290.185 162.259 C 290.318 161.778,290.312 160.299,290.163 156.759 C 289.807 148.304,289.905 132.159,290.340 127.667 C 290.651 124.453,290.692 123.184,290.629 118.792 L 290.555 113.667 291.069 113.666 C 292.462 113.665,296.217 113.306,297.250 113.074 C 300.338 112.383,302.130 111.932,302.609 111.726 C 302.897 111.602,303.241 111.500,303.372 111.500 C 303.504 111.500,303.663 111.449,303.725 111.386 C 303.895 111.216,305.038 110.839,305.391 110.836 C 305.560 110.834,305.898 110.731,306.141 110.606 C 307.056 110.135,308.184 109.667,308.401 109.667 C 308.627 109.667,310.174 109.032,311.055 108.577 C 311.315 108.443,311.711 108.333,311.937 108.333 C 312.162 108.333,312.627 108.190,312.969 108.016 C 313.605 107.691,314.252 107.698,314.949 108.036 C 315.150 108.133,315.625 108.171,316.004 108.121 C 316.425 108.064,316.913 108.120,317.258 108.264 C 317.616 108.414,318.427 108.500,319.478 108.500 C 320.935 108.500,321.219 108.549,321.858 108.915 C 322.257 109.143,322.753 109.330,322.961 109.331 C 323.168 109.332,323.468 109.407,323.627 109.496 C 323.786 109.586,324.239 109.740,324.632 109.838 C 325.116 109.959,325.394 110.136,325.490 110.383 C 325.777 111.127,326.470 111.585,327.282 111.567 C 327.856 111.554,328.138 111.643,328.455 111.937 C 328.700 112.164,329.263 112.401,329.818 112.510 C 330.589 112.662,330.830 112.794,331.120 113.223 C 331.485 113.763,332.500 117.537,332.500 118.353 C 332.500 119.070,332.663 119.325,333.347 119.674 C 334.235 120.127,334.412 120.091,336.358 119.072 C 337.738 118.349,337.712 118.119,336.995 124.750 C 336.717 127.317,336.422 130.542,336.339 131.917 C 336.256 133.292,336.065 136.329,335.914 138.667 C 335.579 143.855,335.616 151.288,335.979 151.725 C 336.158 151.940,336.507 152.000,337.584 152.000 C 339.371 152.000,339.268 151.685,339.587 158.167 C 340.160 169.786,340.189 170.151,340.915 174.667 C 341.144 176.088,341.331 177.560,341.332 177.940 C 341.333 178.319,341.439 179.219,341.569 179.940 C 341.698 180.660,341.964 182.338,342.160 183.667 C 342.356 184.996,342.667 187.021,342.851 188.167 C 343.485 192.112,343.681 193.420,343.837 194.750 C 343.923 195.483,344.216 197.433,344.487 199.083 C 344.942 201.844,345.371 204.538,345.937 208.167 C 346.059 208.946,346.237 210.258,346.334 211.083 C 346.431 211.908,346.697 213.596,346.925 214.833 C 347.153 216.071,347.415 217.758,347.507 218.583 C 347.599 219.408,347.816 220.871,347.990 221.833 C 348.163 222.796,348.423 224.408,348.567 225.417 C 349.047 228.775,349.309 230.402,349.643 232.083 C 350.497 236.384,351.328 240.813,351.393 241.417 C 351.432 241.783,351.658 243.621,351.895 245.500 C 352.131 247.379,352.376 249.591,352.439 250.415 C 352.602 252.538,352.903 252.833,354.910 252.833 L 356.345 252.833 355.773 253.335 C 354.904 254.099,353.999 256.127,353.730 257.917 C 353.308 260.724,353.199 261.250,352.938 261.746 C 352.794 262.018,352.628 262.581,352.568 262.996 C 352.405 264.138,351.619 265.315,351.009 265.328 C 350.877 265.331,350.577 265.509,350.342 265.723 C 350.108 265.938,349.654 266.214,349.333 266.337 C 349.012 266.460,348.552 266.716,348.310 266.905 C 348.068 267.095,347.257 267.625,346.506 268.083 C 345.756 268.542,344.658 269.235,344.067 269.625 C 343.476 270.015,342.956 270.333,342.911 270.333 C 342.866 270.333,342.456 270.596,342.000 270.917 L 341.170 271.500 337.159 271.500 L 333.148 271.500 331.587 272.270 C 330.334 272.888,330.005 273.126,329.919 273.478 C 329.861 273.719,329.592 274.194,329.323 274.532 C 328.850 275.127,328.697 275.862,328.961 276.275 C 329.085 276.469,331.303 277.552,331.917 277.718 C 332.100 277.768,332.944 278.077,333.793 278.404 C 334.642 278.732,335.624 279.000,335.975 279.000 C 336.326 279.000,336.982 279.115,337.432 279.256 C 338.478 279.583,342.314 279.894,342.850 279.696 C 343.091 279.607,345.201 279.640,348.149 279.779 C 352.612 279.990,353.120 279.987,353.862 279.740 C 354.310 279.592,355.068 279.405,355.547 279.326 C 357.280 279.040,358.779 278.671,360.211 278.178 C 361.015 277.902,362.159 277.626,362.753 277.565 L 363.833 277.454 363.833 278.054 C 363.833 279.532,364.636 279.768,370.333 279.959 C 375.133 280.120,376.167 280.041,376.167 279.513 C 376.167 279.419,376.385 279.229,376.653 279.091 C 377.476 278.665,377.903 274.604,377.235 273.549 C 377.064 273.279,377.046 273.068,377.168 272.747 C 377.447 272.014,377.365 270.549,377.006 269.846 C 376.744 269.331,376.711 269.094,376.840 268.645 C 377.080 267.808,377.035 266.531,376.668 263.667 C 376.013 258.565,375.963 258.068,375.996 257.000 C 376.029 255.919,375.869 253.827,375.413 249.417 C 375.281 248.133,375.095 245.696,375.000 244.000 C 374.906 242.304,374.683 239.567,374.505 237.917 C 373.347 227.161,373.331 225.061,374.319 213.366 C 374.694 208.939,375.000 204.851,375.000 204.283 C 375.000 203.715,375.256 200.100,375.569 196.250 C 375.883 192.400,376.228 187.302,376.337 184.922 C 376.480 181.800,376.595 180.546,376.749 180.422 C 377.057 180.174,377.226 175.542,377.010 173.250 C 376.861 171.665,376.876 171.304,377.118 170.583 C 377.358 169.870,377.407 168.774,377.458 163.000 L 377.517 156.250 378.092 155.717 C 378.408 155.424,378.667 155.030,378.667 154.842 C 378.667 154.654,378.733 154.500,378.814 154.500 C 378.895 154.500,379.286 153.956,379.682 153.292 C 380.078 152.627,380.574 151.851,380.785 151.568 C 380.995 151.284,381.167 150.965,381.167 150.859 C 381.167 150.726,381.696 150.667,382.883 150.667 C 383.996 150.667,384.670 150.596,384.800 150.467 C 384.952 150.315,385.000 147.301,385.001 137.925 C 385.002 122.816,385.178 116.932,385.738 113.333 C 386.513 108.350,386.662 107.062,386.759 104.500 C 386.865 101.710,387.068 99.571,387.351 98.250 C 387.558 97.285,388.548 93.299,389.014 91.556 C 389.190 90.899,389.336 89.887,389.339 89.306 C 389.346 88.091,390.032 83.620,390.307 83.000 C 390.626 82.279,390.975 80.631,391.084 79.333 C 391.184 78.150,392.047 74.932,392.356 74.592 C 392.435 74.505,392.500 74.238,392.500 74.000 C 392.500 73.762,392.569 73.495,392.654 73.408 C 392.874 73.182,393.284 71.054,393.522 68.907 C 393.755 66.810,393.629 65.577,392.930 63.083 C 392.699 62.258,392.505 61.396,392.499 61.167 C 392.493 60.938,392.260 60.112,391.981 59.333 C 391.702 58.554,391.366 57.579,391.236 57.167 C 391.105 56.754,390.819 56.079,390.600 55.667 C 390.382 55.254,390.149 54.654,390.083 54.333 C 390.018 54.012,389.834 53.600,389.676 53.417 C 389.219 52.889,388.667 51.902,388.667 51.614 C 388.667 51.470,388.404 50.903,388.083 50.356 C 387.762 49.808,387.500 49.285,387.500 49.192 C 387.500 49.100,387.394 48.918,387.264 48.788 C 387.134 48.658,386.724 48.055,386.352 47.447 C 385.980 46.840,385.524 46.191,385.338 46.005 C 385.152 45.819,385.000 45.606,385.000 45.531 C 385.000 45.457,384.840 45.225,384.645 45.015 C 384.150 44.483,382.471 42.342,382.124 41.799 C 381.965 41.551,381.494 40.997,381.077 40.568 C 380.659 40.138,380.208 39.574,380.074 39.315 C 379.940 39.056,379.681 38.763,379.498 38.666 C 379.316 38.568,379.167 38.346,379.167 38.172 C 379.167 37.992,378.879 37.652,378.504 37.386 C 378.139 37.128,377.839 36.790,377.837 36.636 C 377.835 36.482,377.458 35.971,377.000 35.500 C 376.542 35.029,376.167 34.533,376.167 34.398 C 376.167 34.262,375.991 33.986,375.775 33.784 C 375.560 33.582,375.285 33.229,375.165 33.000 C 375.044 32.771,374.530 32.069,374.022 31.439 L 373.099 30.296 371.633 30.410 C 370.169 30.525,370.168 30.525,370.005 30.097 C 369.916 29.862,369.316 29.130,368.671 28.470 C 367.695 27.470,367.500 27.178,367.500 26.715 C 367.500 26.397,367.209 25.580,366.820 24.806 C 366.446 24.062,366.040 22.978,365.918 22.397 C 365.797 21.816,365.578 21.221,365.432 21.075 C 365.286 20.929,365.121 20.628,365.066 20.405 C 365.010 20.182,364.899 20.000,364.820 20.000 C 364.742 20.000,364.721 19.887,364.774 19.749 C 364.941 19.313,364.677 18.398,364.166 17.644 C 363.895 17.244,363.671 16.817,363.670 16.696 C 363.664 16.261,362.296 14.178,361.737 13.751 C 361.361 13.465,361.167 13.177,361.167 12.908 C 361.167 12.684,361.090 12.500,360.996 12.500 C 360.903 12.500,360.400 12.088,359.880 11.583 C 359.359 11.079,358.848 10.667,358.743 10.667 C 358.638 10.667,358.416 10.517,358.250 10.333 C 358.084 10.150,357.852 10.000,357.734 10.000 C 357.617 10.000,357.174 9.700,356.750 9.333 C 356.312 8.954,355.807 8.667,355.579 8.667 C 355.350 8.667,355.103 8.525,355.001 8.335 C 354.740 7.847,354.008 7.528,352.813 7.381 C 351.878 7.265,351.728 7.196,351.531 6.785 C 351.332 6.368,351.231 6.323,350.573 6.357 C 350.011 6.386,349.746 6.309,349.450 6.031 C 348.917 5.531,347.694 5.529,347.326 6.028 " stroke="none" fill="#5cfc54" fill-rule="evenodd"></path><path id="path1" d="" stroke="none" fill="#60fc54" fill-rule="evenodd"></path></g></svg>