ISO-10303-21;
HEADER;
/* Generated by software containing ST-Developer
 * from STEP Tools, Inc. (www.steptools.com) 
 */

FILE_DESCRIPTION(
/* description */ (''),
/* implementation_level */ '2;1');

FILE_NAME(
/* name */ 'Screwdriver reinforcement - slot ver.step',
/* time_stamp */ '2026-06-30T14:03:38-04:00',
/* author */ (''),
/* organization */ (''),
/* preprocessor_version */ 'ST-DEVELOPER v20.1',
/* originating_system */ 'Autodesk Translation Framework v15.8.0.0',
/* authorisation */ '');

FILE_SCHEMA (('AUTOMOTIVE_DESIGN { 1 0 10303 214 3 1 1 }'));
ENDSEC;

DATA;
#10=MECHANICAL_DESIGN_GEOMETRIC_PRESENTATION_REPRESENTATION('',(#13),#525);
#11=SHAPE_REPRESENTATION_RELATIONSHIP('SRR','None',#532,#12);
#12=ADVANCED_BREP_SHAPE_REPRESENTATION('',(#14),#524);
#13=STYLED_ITEM('',(#541),#14);
#14=MANIFOLD_SOLID_BREP('Body2',#313);
#15=FACE_BOUND('',#60,.T.);
#16=FACE_BOUND('',#62,.T.);
#17=CIRCLE('',#329,2.52);
#18=CIRCLE('',#330,2.52);
#19=CIRCLE('',#333,0.875);
#20=CIRCLE('',#334,0.875);
#21=CIRCLE('',#337,2.52);
#22=CIRCLE('',#338,2.52);
#23=CIRCLE('',#341,0.875000000000328);
#24=CIRCLE('',#342,0.875000000000328);
#25=CYLINDRICAL_SURFACE('',#328,2.52);
#26=CYLINDRICAL_SURFACE('',#332,0.875);
#27=CYLINDRICAL_SURFACE('',#336,2.52);
#28=CYLINDRICAL_SURFACE('',#340,0.875000000000328);
#29=FACE_OUTER_BOUND('',#45,.T.);
#30=FACE_OUTER_BOUND('',#46,.T.);
#31=FACE_OUTER_BOUND('',#47,.T.);
#32=FACE_OUTER_BOUND('',#48,.T.);
#33=FACE_OUTER_BOUND('',#49,.T.);
#34=FACE_OUTER_BOUND('',#50,.T.);
#35=FACE_OUTER_BOUND('',#51,.T.);
#36=FACE_OUTER_BOUND('',#52,.T.);
#37=FACE_OUTER_BOUND('',#53,.T.);
#38=FACE_OUTER_BOUND('',#54,.T.);
#39=FACE_OUTER_BOUND('',#55,.T.);
#40=FACE_OUTER_BOUND('',#56,.T.);
#41=FACE_OUTER_BOUND('',#57,.T.);
#42=FACE_OUTER_BOUND('',#58,.T.);
#43=FACE_OUTER_BOUND('',#59,.T.);
#44=FACE_OUTER_BOUND('',#61,.T.);
#45=EDGE_LOOP('',(#201,#202,#203,#204));
#46=EDGE_LOOP('',(#205,#206,#207,#208));
#47=EDGE_LOOP('',(#209,#210,#211,#212));
#48=EDGE_LOOP('',(#213,#214,#215,#216));
#49=EDGE_LOOP('',(#217,#218,#219,#220));
#50=EDGE_LOOP('',(#221,#222,#223,#224));
#51=EDGE_LOOP('',(#225,#226,#227,#228));
#52=EDGE_LOOP('',(#229,#230,#231,#232));
#53=EDGE_LOOP('',(#233,#234,#235,#236));
#54=EDGE_LOOP('',(#237,#238,#239,#240));
#55=EDGE_LOOP('',(#241,#242,#243,#244));
#56=EDGE_LOOP('',(#245,#246,#247,#248));
#57=EDGE_LOOP('',(#249,#250,#251,#252));
#58=EDGE_LOOP('',(#253,#254,#255,#256));
#59=EDGE_LOOP('',(#257,#258,#259,#260,#261,#262));
#60=EDGE_LOOP('',(#263,#264,#265,#266,#267,#268,#269,#270));
#61=EDGE_LOOP('',(#271,#272,#273,#274,#275,#276));
#62=EDGE_LOOP('',(#277,#278,#279,#280,#281,#282,#283,#284));
#63=LINE('',#439,#97);
#64=LINE('',#441,#98);
#65=LINE('',#443,#99);
#66=LINE('',#444,#100);
#67=LINE('',#450,#101);
#68=LINE('',#453,#102);
#69=LINE('',#455,#103);
#70=LINE('',#456,#104);
#71=LINE('',#462,#105);
#72=LINE('',#465,#106);
#73=LINE('',#467,#107);
#74=LINE('',#468,#108);
#75=LINE('',#474,#109);
#76=LINE('',#477,#110);
#77=LINE('',#479,#111);
#78=LINE('',#480,#112);
#79=LINE('',#487,#113);
#80=LINE('',#489,#114);
#81=LINE('',#491,#115);
#82=LINE('',#492,#116);
#83=LINE('',#495,#117);
#84=LINE('',#497,#118);
#85=LINE('',#498,#119);
#86=LINE('',#501,#120);
#87=LINE('',#503,#121);
#88=LINE('',#504,#122);
#89=LINE('',#507,#123);
#90=LINE('',#509,#124);
#91=LINE('',#510,#125);
#92=LINE('',#513,#126);
#93=LINE('',#515,#127);
#94=LINE('',#516,#128);
#95=LINE('',#518,#129);
#96=LINE('',#519,#130);
#97=VECTOR('',#355,10.);
#98=VECTOR('',#356,10.);
#99=VECTOR('',#357,10.);
#100=VECTOR('',#358,10.);
#101=VECTOR('',#365,10.);
#102=VECTOR('',#368,10.);
#103=VECTOR('',#369,10.);
#104=VECTOR('',#370,10.);
#105=VECTOR('',#377,10.);
#106=VECTOR('',#380,10.);
#107=VECTOR('',#381,10.);
#108=VECTOR('',#382,10.);
#109=VECTOR('',#389,10.);
#110=VECTOR('',#392,10.);
#111=VECTOR('',#393,10.);
#112=VECTOR('',#394,10.);
#113=VECTOR('',#403,10.);
#114=VECTOR('',#404,10.);
#115=VECTOR('',#405,10.);
#116=VECTOR('',#406,10.);
#117=VECTOR('',#409,10.);
#118=VECTOR('',#410,10.);
#119=VECTOR('',#411,10.);
#120=VECTOR('',#414,10.);
#121=VECTOR('',#415,10.);
#122=VECTOR('',#416,10.);
#123=VECTOR('',#419,10.);
#124=VECTOR('',#420,10.);
#125=VECTOR('',#421,10.);
#126=VECTOR('',#424,10.);
#127=VECTOR('',#425,10.);
#128=VECTOR('',#426,10.);
#129=VECTOR('',#429,10.);
#130=VECTOR('',#430,10.);
#131=VERTEX_POINT('',#437);
#132=VERTEX_POINT('',#438);
#133=VERTEX_POINT('',#440);
#134=VERTEX_POINT('',#442);
#135=VERTEX_POINT('',#446);
#136=VERTEX_POINT('',#448);
#137=VERTEX_POINT('',#452);
#138=VERTEX_POINT('',#454);
#139=VERTEX_POINT('',#458);
#140=VERTEX_POINT('',#460);
#141=VERTEX_POINT('',#464);
#142=VERTEX_POINT('',#466);
#143=VERTEX_POINT('',#470);
#144=VERTEX_POINT('',#472);
#145=VERTEX_POINT('',#476);
#146=VERTEX_POINT('',#478);
#147=VERTEX_POINT('',#485);
#148=VERTEX_POINT('',#486);
#149=VERTEX_POINT('',#488);
#150=VERTEX_POINT('',#490);
#151=VERTEX_POINT('',#494);
#152=VERTEX_POINT('',#496);
#153=VERTEX_POINT('',#500);
#154=VERTEX_POINT('',#502);
#155=VERTEX_POINT('',#506);
#156=VERTEX_POINT('',#508);
#157=VERTEX_POINT('',#512);
#158=VERTEX_POINT('',#514);
#159=EDGE_CURVE('',#131,#132,#63,.T.);
#160=EDGE_CURVE('',#132,#133,#64,.T.);
#161=EDGE_CURVE('',#134,#133,#65,.T.);
#162=EDGE_CURVE('',#131,#134,#66,.T.);
#163=EDGE_CURVE('',#135,#131,#17,.T.);
#164=EDGE_CURVE('',#136,#134,#18,.T.);
#165=EDGE_CURVE('',#135,#136,#67,.T.);
#166=EDGE_CURVE('',#137,#135,#68,.T.);
#167=EDGE_CURVE('',#138,#136,#69,.T.);
#168=EDGE_CURVE('',#137,#138,#70,.T.);
#169=EDGE_CURVE('',#139,#137,#19,.T.);
#170=EDGE_CURVE('',#140,#138,#20,.T.);
#171=EDGE_CURVE('',#139,#140,#71,.T.);
#172=EDGE_CURVE('',#141,#139,#72,.T.);
#173=EDGE_CURVE('',#142,#140,#73,.T.);
#174=EDGE_CURVE('',#141,#142,#74,.T.);
#175=EDGE_CURVE('',#143,#141,#21,.T.);
#176=EDGE_CURVE('',#144,#142,#22,.T.);
#177=EDGE_CURVE('',#143,#144,#75,.T.);
#178=EDGE_CURVE('',#145,#143,#76,.T.);
#179=EDGE_CURVE('',#146,#144,#77,.T.);
#180=EDGE_CURVE('',#145,#146,#78,.T.);
#181=EDGE_CURVE('',#132,#145,#23,.T.);
#182=EDGE_CURVE('',#133,#146,#24,.T.);
#183=EDGE_CURVE('',#147,#148,#79,.T.);
#184=EDGE_CURVE('',#148,#149,#80,.T.);
#185=EDGE_CURVE('',#150,#149,#81,.T.);
#186=EDGE_CURVE('',#147,#150,#82,.T.);
#187=EDGE_CURVE('',#151,#147,#83,.T.);
#188=EDGE_CURVE('',#152,#150,#84,.T.);
#189=EDGE_CURVE('',#151,#152,#85,.T.);
#190=EDGE_CURVE('',#153,#151,#86,.T.);
#191=EDGE_CURVE('',#154,#152,#87,.T.);
#192=EDGE_CURVE('',#153,#154,#88,.T.);
#193=EDGE_CURVE('',#155,#153,#89,.T.);
#194=EDGE_CURVE('',#156,#154,#90,.T.);
#195=EDGE_CURVE('',#155,#156,#91,.T.);
#196=EDGE_CURVE('',#157,#155,#92,.T.);
#197=EDGE_CURVE('',#158,#156,#93,.T.);
#198=EDGE_CURVE('',#157,#158,#94,.T.);
#199=EDGE_CURVE('',#148,#157,#95,.T.);
#200=EDGE_CURVE('',#149,#158,#96,.T.);
#201=ORIENTED_EDGE('',*,*,#159,.T.);
#202=ORIENTED_EDGE('',*,*,#160,.T.);
#203=ORIENTED_EDGE('',*,*,#161,.F.);
#204=ORIENTED_EDGE('',*,*,#162,.F.);
#205=ORIENTED_EDGE('',*,*,#163,.T.);
#206=ORIENTED_EDGE('',*,*,#162,.T.);
#207=ORIENTED_EDGE('',*,*,#164,.F.);
#208=ORIENTED_EDGE('',*,*,#165,.F.);
#209=ORIENTED_EDGE('',*,*,#166,.T.);
#210=ORIENTED_EDGE('',*,*,#165,.T.);
#211=ORIENTED_EDGE('',*,*,#167,.F.);
#212=ORIENTED_EDGE('',*,*,#168,.F.);
#213=ORIENTED_EDGE('',*,*,#169,.T.);
#214=ORIENTED_EDGE('',*,*,#168,.T.);
#215=ORIENTED_EDGE('',*,*,#170,.F.);
#216=ORIENTED_EDGE('',*,*,#171,.F.);
#217=ORIENTED_EDGE('',*,*,#172,.T.);
#218=ORIENTED_EDGE('',*,*,#171,.T.);
#219=ORIENTED_EDGE('',*,*,#173,.F.);
#220=ORIENTED_EDGE('',*,*,#174,.F.);
#221=ORIENTED_EDGE('',*,*,#175,.T.);
#222=ORIENTED_EDGE('',*,*,#174,.T.);
#223=ORIENTED_EDGE('',*,*,#176,.F.);
#224=ORIENTED_EDGE('',*,*,#177,.F.);
#225=ORIENTED_EDGE('',*,*,#178,.T.);
#226=ORIENTED_EDGE('',*,*,#177,.T.);
#227=ORIENTED_EDGE('',*,*,#179,.F.);
#228=ORIENTED_EDGE('',*,*,#180,.F.);
#229=ORIENTED_EDGE('',*,*,#181,.T.);
#230=ORIENTED_EDGE('',*,*,#180,.T.);
#231=ORIENTED_EDGE('',*,*,#182,.F.);
#232=ORIENTED_EDGE('',*,*,#160,.F.);
#233=ORIENTED_EDGE('',*,*,#183,.T.);
#234=ORIENTED_EDGE('',*,*,#184,.T.);
#235=ORIENTED_EDGE('',*,*,#185,.F.);
#236=ORIENTED_EDGE('',*,*,#186,.F.);
#237=ORIENTED_EDGE('',*,*,#187,.T.);
#238=ORIENTED_EDGE('',*,*,#186,.T.);
#239=ORIENTED_EDGE('',*,*,#188,.F.);
#240=ORIENTED_EDGE('',*,*,#189,.F.);
#241=ORIENTED_EDGE('',*,*,#190,.T.);
#242=ORIENTED_EDGE('',*,*,#189,.T.);
#243=ORIENTED_EDGE('',*,*,#191,.F.);
#244=ORIENTED_EDGE('',*,*,#192,.F.);
#245=ORIENTED_EDGE('',*,*,#193,.T.);
#246=ORIENTED_EDGE('',*,*,#192,.T.);
#247=ORIENTED_EDGE('',*,*,#194,.F.);
#248=ORIENTED_EDGE('',*,*,#195,.F.);
#249=ORIENTED_EDGE('',*,*,#196,.T.);
#250=ORIENTED_EDGE('',*,*,#195,.T.);
#251=ORIENTED_EDGE('',*,*,#197,.F.);
#252=ORIENTED_EDGE('',*,*,#198,.F.);
#253=ORIENTED_EDGE('',*,*,#199,.T.);
#254=ORIENTED_EDGE('',*,*,#198,.T.);
#255=ORIENTED_EDGE('',*,*,#200,.F.);
#256=ORIENTED_EDGE('',*,*,#184,.F.);
#257=ORIENTED_EDGE('',*,*,#200,.T.);
#258=ORIENTED_EDGE('',*,*,#197,.T.);
#259=ORIENTED_EDGE('',*,*,#194,.T.);
#260=ORIENTED_EDGE('',*,*,#191,.T.);
#261=ORIENTED_EDGE('',*,*,#188,.T.);
#262=ORIENTED_EDGE('',*,*,#185,.T.);
#263=ORIENTED_EDGE('',*,*,#182,.T.);
#264=ORIENTED_EDGE('',*,*,#179,.T.);
#265=ORIENTED_EDGE('',*,*,#176,.T.);
#266=ORIENTED_EDGE('',*,*,#173,.T.);
#267=ORIENTED_EDGE('',*,*,#170,.T.);
#268=ORIENTED_EDGE('',*,*,#167,.T.);
#269=ORIENTED_EDGE('',*,*,#164,.T.);
#270=ORIENTED_EDGE('',*,*,#161,.T.);
#271=ORIENTED_EDGE('',*,*,#199,.F.);
#272=ORIENTED_EDGE('',*,*,#183,.F.);
#273=ORIENTED_EDGE('',*,*,#187,.F.);
#274=ORIENTED_EDGE('',*,*,#190,.F.);
#275=ORIENTED_EDGE('',*,*,#193,.F.);
#276=ORIENTED_EDGE('',*,*,#196,.F.);
#277=ORIENTED_EDGE('',*,*,#181,.F.);
#278=ORIENTED_EDGE('',*,*,#159,.F.);
#279=ORIENTED_EDGE('',*,*,#163,.F.);
#280=ORIENTED_EDGE('',*,*,#166,.F.);
#281=ORIENTED_EDGE('',*,*,#169,.F.);
#282=ORIENTED_EDGE('',*,*,#172,.F.);
#283=ORIENTED_EDGE('',*,*,#175,.F.);
#284=ORIENTED_EDGE('',*,*,#178,.F.);
#285=PLANE('',#327);
#286=PLANE('',#331);
#287=PLANE('',#335);
#288=PLANE('',#339);
#289=PLANE('',#343);
#290=PLANE('',#344);
#291=PLANE('',#345);
#292=PLANE('',#346);
#293=PLANE('',#347);
#294=PLANE('',#348);
#295=PLANE('',#349);
#296=PLANE('',#350);
#297=ADVANCED_FACE('',(#29),#285,.T.);
#298=ADVANCED_FACE('',(#30),#25,.F.);
#299=ADVANCED_FACE('',(#31),#286,.T.);
#300=ADVANCED_FACE('',(#32),#26,.F.);
#301=ADVANCED_FACE('',(#33),#287,.T.);
#302=ADVANCED_FACE('',(#34),#27,.F.);
#303=ADVANCED_FACE('',(#35),#288,.T.);
#304=ADVANCED_FACE('',(#36),#28,.F.);
#305=ADVANCED_FACE('',(#37),#289,.T.);
#306=ADVANCED_FACE('',(#38),#290,.T.);
#307=ADVANCED_FACE('',(#39),#291,.T.);
#308=ADVANCED_FACE('',(#40),#292,.T.);
#309=ADVANCED_FACE('',(#41),#293,.T.);
#310=ADVANCED_FACE('',(#42),#294,.T.);
#311=ADVANCED_FACE('',(#43,#15),#295,.T.);
#312=ADVANCED_FACE('',(#44,#16),#296,.F.);
#313=CLOSED_SHELL('',(#297,#298,#299,#300,#301,#302,#303,#304,#305,#306,
#307,#308,#309,#310,#311,#312));
#314=DERIVED_UNIT_ELEMENT(#316,1.);
#315=DERIVED_UNIT_ELEMENT(#527,-3.);
#316=(
MASS_UNIT()
NAMED_UNIT(*)
SI_UNIT(.KILO.,.GRAM.)
);
#317=DERIVED_UNIT((#314,#315));
#318=MEASURE_REPRESENTATION_ITEM('density measure',
POSITIVE_RATIO_MEASURE(1541.),#317);
#319=PROPERTY_DEFINITION_REPRESENTATION(#324,#321);
#320=PROPERTY_DEFINITION_REPRESENTATION(#325,#322);
#321=REPRESENTATION('material name',(#323),#524);
#322=REPRESENTATION('density',(#318),#524);
#323=DESCRIPTIVE_REPRESENTATION_ITEM('PET Plastic','PET Plastic');
#324=PROPERTY_DEFINITION('material property','material name',#534);
#325=PROPERTY_DEFINITION('material property','density of part',#534);
#326=AXIS2_PLACEMENT_3D('',#435,#351,#352);
#327=AXIS2_PLACEMENT_3D('',#436,#353,#354);
#328=AXIS2_PLACEMENT_3D('',#445,#359,#360);
#329=AXIS2_PLACEMENT_3D('',#447,#361,#362);
#330=AXIS2_PLACEMENT_3D('',#449,#363,#364);
#331=AXIS2_PLACEMENT_3D('',#451,#366,#367);
#332=AXIS2_PLACEMENT_3D('',#457,#371,#372);
#333=AXIS2_PLACEMENT_3D('',#459,#373,#374);
#334=AXIS2_PLACEMENT_3D('',#461,#375,#376);
#335=AXIS2_PLACEMENT_3D('',#463,#378,#379);
#336=AXIS2_PLACEMENT_3D('',#469,#383,#384);
#337=AXIS2_PLACEMENT_3D('',#471,#385,#386);
#338=AXIS2_PLACEMENT_3D('',#473,#387,#388);
#339=AXIS2_PLACEMENT_3D('',#475,#390,#391);
#340=AXIS2_PLACEMENT_3D('',#481,#395,#396);
#341=AXIS2_PLACEMENT_3D('',#482,#397,#398);
#342=AXIS2_PLACEMENT_3D('',#483,#399,#400);
#343=AXIS2_PLACEMENT_3D('',#484,#401,#402);
#344=AXIS2_PLACEMENT_3D('',#493,#407,#408);
#345=AXIS2_PLACEMENT_3D('',#499,#412,#413);
#346=AXIS2_PLACEMENT_3D('',#505,#417,#418);
#347=AXIS2_PLACEMENT_3D('',#511,#422,#423);
#348=AXIS2_PLACEMENT_3D('',#517,#427,#428);
#349=AXIS2_PLACEMENT_3D('',#520,#431,#432);
#350=AXIS2_PLACEMENT_3D('',#521,#433,#434);
#351=DIRECTION('axis',(0.,0.,1.));
#352=DIRECTION('refdir',(1.,0.,0.));
#353=DIRECTION('center_axis',(4.91955112708009E-14,-1.,0.));
#354=DIRECTION('ref_axis',(1.,4.91955112708009E-14,0.));
#355=DIRECTION('',(1.,4.91955112708009E-14,0.));
#356=DIRECTION('',(0.,0.,1.));
#357=DIRECTION('',(1.,4.91955112708009E-14,0.));
#358=DIRECTION('',(0.,0.,1.));
#359=DIRECTION('center_axis',(0.,0.,1.));
#360=DIRECTION('ref_axis',(1.,0.,0.));
#361=DIRECTION('center_axis',(0.,0.,-1.));
#362=DIRECTION('ref_axis',(1.,0.,0.));
#363=DIRECTION('center_axis',(0.,0.,-1.));
#364=DIRECTION('ref_axis',(1.,0.,0.));
#365=DIRECTION('',(0.,0.,1.));
#366=DIRECTION('center_axis',(4.91955112708009E-14,-1.,0.));
#367=DIRECTION('ref_axis',(1.,4.91955112708009E-14,0.));
#368=DIRECTION('',(1.,4.91955112708009E-14,0.));
#369=DIRECTION('',(1.,4.91955112708009E-14,0.));
#370=DIRECTION('',(0.,0.,1.));
#371=DIRECTION('center_axis',(0.,0.,1.));
#372=DIRECTION('ref_axis',(2.26485497023532E-12,1.,0.));
#373=DIRECTION('center_axis',(0.,0.,-1.));
#374=DIRECTION('ref_axis',(2.26485497023532E-12,1.,0.));
#375=DIRECTION('center_axis',(0.,0.,-1.));
#376=DIRECTION('ref_axis',(2.26485497023532E-12,1.,0.));
#377=DIRECTION('',(0.,0.,1.));
#378=DIRECTION('center_axis',(-4.92162864022348E-14,1.,0.));
#379=DIRECTION('ref_axis',(-1.,-4.92162864022348E-14,0.));
#380=DIRECTION('',(-1.,-4.92162864022348E-14,0.));
#381=DIRECTION('',(-1.,-4.92162864022348E-14,0.));
#382=DIRECTION('',(0.,0.,1.));
#383=DIRECTION('center_axis',(0.,0.,1.));
#384=DIRECTION('ref_axis',(1.,0.,0.));
#385=DIRECTION('center_axis',(0.,0.,-1.));
#386=DIRECTION('ref_axis',(1.,0.,0.));
#387=DIRECTION('center_axis',(0.,0.,-1.));
#388=DIRECTION('ref_axis',(1.,0.,0.));
#389=DIRECTION('',(0.,0.,1.));
#390=DIRECTION('center_axis',(-4.92162864022348E-14,1.,0.));
#391=DIRECTION('ref_axis',(-1.,-4.92162864022348E-14,0.));
#392=DIRECTION('',(-1.,-4.92162864022348E-14,0.));
#393=DIRECTION('',(-1.,-4.92162864022348E-14,0.));
#394=DIRECTION('',(0.,0.,1.));
#395=DIRECTION('center_axis',(0.,0.,1.));
#396=DIRECTION('ref_axis',(2.91830052187074E-14,-1.,0.));
#397=DIRECTION('center_axis',(0.,0.,-1.));
#398=DIRECTION('ref_axis',(2.91830052187074E-14,-1.,0.));
#399=DIRECTION('center_axis',(0.,0.,-1.));
#400=DIRECTION('ref_axis',(2.91830052187074E-14,-1.,0.));
#401=DIRECTION('center_axis',(-0.866025403784439,-0.5,0.));
#402=DIRECTION('ref_axis',(0.5,-0.866025403784439,0.));
#403=DIRECTION('',(0.5,-0.866025403784439,0.));
#404=DIRECTION('',(0.,0.,1.));
#405=DIRECTION('',(0.5,-0.866025403784439,0.));
#406=DIRECTION('',(0.,0.,1.));
#407=DIRECTION('center_axis',(-0.866025403784439,0.5,0.));
#408=DIRECTION('ref_axis',(-0.5,-0.866025403784439,0.));
#409=DIRECTION('',(-0.5,-0.866025403784439,0.));
#410=DIRECTION('',(-0.5,-0.866025403784439,0.));
#411=DIRECTION('',(0.,0.,1.));
#412=DIRECTION('center_axis',(0.,1.,0.));
#413=DIRECTION('ref_axis',(-1.,0.,0.));
#414=DIRECTION('',(-1.,0.,0.));
#415=DIRECTION('',(-1.,0.,0.));
#416=DIRECTION('',(0.,0.,1.));
#417=DIRECTION('center_axis',(0.866025403784439,0.5,0.));
#418=DIRECTION('ref_axis',(-0.5,0.866025403784439,0.));
#419=DIRECTION('',(-0.5,0.866025403784439,0.));
#420=DIRECTION('',(-0.5,0.866025403784439,0.));
#421=DIRECTION('',(0.,0.,1.));
#422=DIRECTION('center_axis',(0.866025403784439,-0.5,0.));
#423=DIRECTION('ref_axis',(0.5,0.866025403784439,0.));
#424=DIRECTION('',(0.5,0.866025403784439,0.));
#425=DIRECTION('',(0.5,0.866025403784439,0.));
#426=DIRECTION('',(0.,0.,1.));
#427=DIRECTION('center_axis',(1.28197512425571E-16,-1.,0.));
#428=DIRECTION('ref_axis',(1.,1.28197512425571E-16,0.));
#429=DIRECTION('',(1.,1.28197512425571E-16,0.));
#430=DIRECTION('',(1.,1.28197512425571E-16,0.));
#431=DIRECTION('center_axis',(0.,0.,1.));
#432=DIRECTION('ref_axis',(1.,0.,0.));
#433=DIRECTION('center_axis',(0.,0.,1.));
#434=DIRECTION('ref_axis',(1.,0.,0.));
#435=CARTESIAN_POINT('',(0.,0.,0.));
#436=CARTESIAN_POINT('Origin',(2.36321285541517,0.87500000000028,0.));
#437=CARTESIAN_POINT('',(2.36321285541517,0.87500000000028,0.));
#438=CARTESIAN_POINT('',(3.34000000000196,0.875000000000328,0.));
#439=CARTESIAN_POINT('',(3.34000000000196,0.875000000000328,0.));
#440=CARTESIAN_POINT('',(3.34000000000196,0.875000000000328,5.));
#441=CARTESIAN_POINT('',(3.34000000000196,0.875000000000328,0.));
#442=CARTESIAN_POINT('',(2.36321285541517,0.87500000000028,5.));
#443=CARTESIAN_POINT('',(3.34000000000196,0.875000000000328,5.));
#444=CARTESIAN_POINT('',(2.36321285541517,0.87500000000028,0.));
#445=CARTESIAN_POINT('Origin',(0.,0.,0.));
#446=CARTESIAN_POINT('',(-2.36321285541525,0.875000000000048,0.));
#447=CARTESIAN_POINT('Origin',(0.,0.,0.));
#448=CARTESIAN_POINT('',(-2.36321285541525,0.875000000000048,5.));
#449=CARTESIAN_POINT('Origin',(0.,0.,5.));
#450=CARTESIAN_POINT('',(-2.36321285541525,0.875000000000048,0.));
#451=CARTESIAN_POINT('Origin',(-3.34,0.875,0.));
#452=CARTESIAN_POINT('',(-3.34,0.875,0.));
#453=CARTESIAN_POINT('',(3.34000000000196,0.875000000000328,0.));
#454=CARTESIAN_POINT('',(-3.34,0.875,5.));
#455=CARTESIAN_POINT('',(3.34000000000196,0.875000000000328,5.));
#456=CARTESIAN_POINT('',(-3.34,0.875,0.));
#457=CARTESIAN_POINT('Origin',(-3.34000000000198,0.,0.));
#458=CARTESIAN_POINT('',(-3.34000000000197,-0.875000000000657,0.));
#459=CARTESIAN_POINT('Origin',(-3.34000000000198,0.,0.));
#460=CARTESIAN_POINT('',(-3.34000000000197,-0.875000000000657,5.));
#461=CARTESIAN_POINT('Origin',(-3.34000000000198,0.,5.));
#462=CARTESIAN_POINT('',(-3.34000000000197,-0.875000000000657,0.));
#463=CARTESIAN_POINT('Origin',(-2.36321285541505,-0.875000000000609,0.));
#464=CARTESIAN_POINT('',(-2.36321285541505,-0.875000000000609,0.));
#465=CARTESIAN_POINT('',(-3.34000000000197,-0.875000000000657,0.));
#466=CARTESIAN_POINT('',(-2.36321285541505,-0.875000000000609,5.));
#467=CARTESIAN_POINT('',(-3.34000000000197,-0.875000000000657,5.));
#468=CARTESIAN_POINT('',(-2.36321285541505,-0.875000000000609,0.));
#469=CARTESIAN_POINT('Origin',(0.,0.,0.));
#470=CARTESIAN_POINT('',(2.36321285541513,-0.875000000000376,0.));
#471=CARTESIAN_POINT('Origin',(0.,0.,0.));
#472=CARTESIAN_POINT('',(2.36321285541513,-0.875000000000376,5.));
#473=CARTESIAN_POINT('Origin',(0.,0.,5.));
#474=CARTESIAN_POINT('',(2.36321285541513,-0.875000000000376,0.));
#475=CARTESIAN_POINT('Origin',(3.34000000000201,-0.875000000000328,0.));
#476=CARTESIAN_POINT('',(3.34000000000201,-0.875000000000328,0.));
#477=CARTESIAN_POINT('',(-3.34000000000197,-0.875000000000657,0.));
#478=CARTESIAN_POINT('',(3.34000000000201,-0.875000000000328,5.));
#479=CARTESIAN_POINT('',(-3.34000000000197,-0.875000000000657,5.));
#480=CARTESIAN_POINT('',(3.34000000000201,-0.875000000000328,0.));
#481=CARTESIAN_POINT('Origin',(3.34000000000198,0.,0.));
#482=CARTESIAN_POINT('Origin',(3.34000000000198,0.,0.));
#483=CARTESIAN_POINT('Origin',(3.34000000000198,0.,5.));
#484=CARTESIAN_POINT('Origin',(-8.66025403784439,2.04697370165263E-15,0.));
#485=CARTESIAN_POINT('',(-8.66025403784439,2.04697370165263E-15,0.));
#486=CARTESIAN_POINT('',(-4.3301270189222,-7.5,0.));
#487=CARTESIAN_POINT('',(-8.66025403784439,2.04697370165263E-15,0.));
#488=CARTESIAN_POINT('',(-4.3301270189222,-7.5,5.));
#489=CARTESIAN_POINT('',(-4.3301270189222,-7.5,0.));
#490=CARTESIAN_POINT('',(-8.66025403784439,2.08166817117217E-15,5.));
#491=CARTESIAN_POINT('',(-8.66025403784439,2.04697370165263E-15,5.));
#492=CARTESIAN_POINT('',(-8.66025403784439,2.04697370165263E-15,0.));
#493=CARTESIAN_POINT('Origin',(-4.33012701892219,7.5,0.));
#494=CARTESIAN_POINT('',(-4.33012701892219,7.5,0.));
#495=CARTESIAN_POINT('',(-4.33012701892219,7.5,0.));
#496=CARTESIAN_POINT('',(-4.33012701892219,7.5,5.));
#497=CARTESIAN_POINT('',(-4.33012701892219,7.5,5.));
#498=CARTESIAN_POINT('',(-4.33012701892219,7.5,0.));
#499=CARTESIAN_POINT('Origin',(4.33012701892219,7.5,0.));
#500=CARTESIAN_POINT('',(4.33012701892219,7.5,0.));
#501=CARTESIAN_POINT('',(4.33012701892219,7.5,0.));
#502=CARTESIAN_POINT('',(4.33012701892219,7.5,5.));
#503=CARTESIAN_POINT('',(4.33012701892219,7.5,5.));
#504=CARTESIAN_POINT('',(4.33012701892219,7.5,0.));
#505=CARTESIAN_POINT('Origin',(8.66025403784439,7.28583859910259E-16,0.));
#506=CARTESIAN_POINT('',(8.66025403784439,7.28583859910259E-16,0.));
#507=CARTESIAN_POINT('',(8.66025403784439,7.28583859910259E-16,0.));
#508=CARTESIAN_POINT('',(8.66025403784439,6.93889390390723E-16,5.));
#509=CARTESIAN_POINT('',(8.66025403784439,7.28583859910259E-16,5.));
#510=CARTESIAN_POINT('',(8.66025403784439,7.28583859910259E-16,0.));
#511=CARTESIAN_POINT('Origin',(4.33012701892219,-7.5,0.));
#512=CARTESIAN_POINT('',(4.33012701892219,-7.5,0.));
#513=CARTESIAN_POINT('',(4.33012701892219,-7.5,0.));
#514=CARTESIAN_POINT('',(4.33012701892219,-7.5,5.));
#515=CARTESIAN_POINT('',(4.33012701892219,-7.5,5.));
#516=CARTESIAN_POINT('',(4.33012701892219,-7.5,0.));
#517=CARTESIAN_POINT('Origin',(-4.3301270189222,-7.5,0.));
#518=CARTESIAN_POINT('',(-4.3301270189222,-7.5,0.));
#519=CARTESIAN_POINT('',(-4.3301270189222,-7.5,5.));
#520=CARTESIAN_POINT('Origin',(0.,1.11022302462516E-15,5.));
#521=CARTESIAN_POINT('Origin',(0.,1.11022302462516E-15,0.));
#522=UNCERTAINTY_MEASURE_WITH_UNIT(LENGTH_MEASURE(0.01),#526,
'DISTANCE_ACCURACY_VALUE',
'Maximum model space distance between geometric entities at asserted c
onnectivities');
#523=UNCERTAINTY_MEASURE_WITH_UNIT(LENGTH_MEASURE(0.01),#526,
'DISTANCE_ACCURACY_VALUE',
'Maximum model space distance between geometric entities at asserted c
onnectivities');
#524=(
GEOMETRIC_REPRESENTATION_CONTEXT(3)
GLOBAL_UNCERTAINTY_ASSIGNED_CONTEXT((#522))
GLOBAL_UNIT_ASSIGNED_CONTEXT((#526,#528,#529))
REPRESENTATION_CONTEXT('','3D')
);
#525=(
GEOMETRIC_REPRESENTATION_CONTEXT(3)
GLOBAL_UNCERTAINTY_ASSIGNED_CONTEXT((#523))
GLOBAL_UNIT_ASSIGNED_CONTEXT((#526,#528,#529))
REPRESENTATION_CONTEXT('','3D')
);
#526=(
LENGTH_UNIT()
NAMED_UNIT(*)
SI_UNIT(.MILLI.,.METRE.)
);
#527=(
LENGTH_UNIT()
NAMED_UNIT(*)
SI_UNIT($,.METRE.)
);
#528=(
NAMED_UNIT(*)
PLANE_ANGLE_UNIT()
SI_UNIT($,.RADIAN.)
);
#529=(
NAMED_UNIT(*)
SI_UNIT($,.STERADIAN.)
SOLID_ANGLE_UNIT()
);
#530=SHAPE_DEFINITION_REPRESENTATION(#531,#532);
#531=PRODUCT_DEFINITION_SHAPE('',$,#534);
#532=SHAPE_REPRESENTATION('',(#326),#524);
#533=PRODUCT_DEFINITION_CONTEXT('part definition',#538,'design');
#534=PRODUCT_DEFINITION('Screwdriver reinforcement',
'Screwdriver reinforcement v3',#535,#533);
#535=PRODUCT_DEFINITION_FORMATION('',$,#540);
#536=PRODUCT_RELATED_PRODUCT_CATEGORY('Screwdriver reinforcement v3',
'Screwdriver reinforcement v3',(#540));
#537=APPLICATION_PROTOCOL_DEFINITION('international standard',
'automotive_design',2009,#538);
#538=APPLICATION_CONTEXT(
'Core Data for Automotive Mechanical Design Process');
#539=PRODUCT_CONTEXT('part definition',#538,'mechanical');
#540=PRODUCT('Screwdriver reinforcement','Screwdriver reinforcement v3',
$,(#539));
#541=PRESENTATION_STYLE_ASSIGNMENT((#542));
#542=SURFACE_STYLE_USAGE(.BOTH.,#543);
#543=SURFACE_SIDE_STYLE('',(#544));
#544=SURFACE_STYLE_FILL_AREA(#545);
#545=FILL_AREA_STYLE('Polycarbonate (Clear)',(#546));
#546=FILL_AREA_STYLE_COLOUR('Polycarbonate (Clear)',#547);
#547=COLOUR_RGB('Polycarbonate (Clear)',0.964705882352941,0.964705882352941,
0.952941176470588);
ENDSEC;
END-ISO-10303-21;
