<?xml version="1.0" encoding="UTF-8" standalone="no"?>
<svg
   class="img-fluid"
   id="outputsvg"
   style="transform: matrix(1.88245, 0, 0, 1.88245, -3.131, 30.3683); transform-origin: 50% 50% 0px; cursor: move; max-height: 510.94px; transition: none 0s ease 0s;"
   width="900"
   height="940"
   viewBox="0 0 9000 9400"
   version="1.1"
   sodipodi:docname="forever.svg"
   inkscape:version="1.2.1 (9c6d41e410, 2022-07-14)"
   xmlns:inkscape="http://www.inkscape.org/namespaces/inkscape"
   xmlns:sodipodi="http://sodipodi.sourceforge.net/DTD/sodipodi-0.dtd"
   xmlns="http://www.w3.org/2000/svg"
   xmlns:svg="http://www.w3.org/2000/svg">
  <defs
     id="defs22" />
  <sodipodi:namedview
     id="namedview20"
     pagecolor="#ffffff"
     bordercolor="#666666"
     borderopacity="1.0"
     inkscape:showpageshadow="2"
     inkscape:pageopacity="0.0"
     inkscape:pagecheckerboard="0"
     inkscape:deskcolor="#d1d1d1"
     showgrid="false"
     inkscape:zoom="1.0925532"
     inkscape:cx="450.32132"
     inkscape:cy="469.54236"
     inkscape:window-width="2560"
     inkscape:window-height="1369"
     inkscape:window-x="-8"
     inkscape:window-y="-8"
     inkscape:window-maximized="1"
     inkscape:current-layer="outputsvg" />
  <g
     id="l6MgXku2KqfKqDIhDAPEIJ2"
     fill="rgb(255,255,255)"
     style="transform: none;">
    <g
       id="g16">
      <path
         id="pZ52CsiKQ"
         d="M0 4700 m1558 844 c61 -30 135 -100 191 -182 105 -155 251 -502 390 -929 l59 -178 53 -26 c30 -15 56 -25 58 -23 2 2 -2 24 -9 50 -23 82 -19 129 14 163 26 27 65 44 52 23 -7 -11 17 -89 42 -138 47 -94 92 -226 92 -270 0 -41 -5 -51 -36 -81 -20 -19 -41 -32 -47 -30 -5 1 -16 25 -23 52 -7 28 -21 72 -31 99 -16 44 -23 50 -75 71 -32 13 -58 19 -58 14 0 -8 117 -400 204 -684 l21 -70 350 -1 c566 -2 819 -37 1018 -141 192 -101 246 -304 112 -422 -50 -43 -93 -61 -150 -61 -61 0 -103 19 -143 64 -24 27 -32 46 -32 74 0 68 30 85 57 32 39 -74 121 -88 186 -30 26 23 32 35 31 69 -2 73 -44 110 -154 138 -90 23 -384 27 -695 9 -640 -38 -902 -33 -1133 24 -426 104 -657 286 -703 553 -30 181 46 330 200 388 45 17 72 20 136 17 143 -7 260 -79 316 -193 58 -118 38 -224 -47 -254 -35 -12 -44 -12 -76 3 -33 16 -58 50 -58 81 0 10 9 12 33 8 44 -7 62 16 62 78 0 62 -25 96 -98 133 -44 22 -71 29 -120 29 -96 1 -157 -42 -182 -127 -22 -73 -19 -117 13 -177 61 -116 254 -214 525 -264 113 -21 297 -33 297 -20 0 5 -71 212 -158 459 l-158 450 -107 65 c-263 162 -426 339 -543 586 -55 116 -76 200 -77 300 0 128 46 210 145 261 98 50 165 52 256 8z m5871 -397 c156 -56 323 -172 434 -303 128 -149 189 -290 191 -439 1 -112 -15 -166 -63 -218 -33 -35 -44 -41 -93 -45 -50 -4 -57 -2 -76 23 -29 37 -28 41 12 41 41 0 64 18 83 61 29 71 8 185 -59 323 -35 71 -59 102 -143 186 -55 55 -127 118 -159 139 -153 99 -294 127 -384 75 -125 -71 -103 -201 89 -536 38 -67 76 -140 84 -164 31 -89 13 -177 -48 -223 -63 -48 -71 -46 -152 32 -71 69 -74 71 -102 59 -15 -7 -29 -13 -31 -14 -2 -1 15 -31 37 -66 78 -124 105 -194 109 -289 8 -156 -53 -275 -170 -333 -61 -31 -151 -35 -203 -10 -126 60 -225 233 -225 395 0 156 82 294 230 390 28 18 50 34 50 36 0 25 -269 364 -360 453 -36 36 -94 82 -130 102 -148 87 -280 50 -280 -79 0 -37 4 -45 26 -53 284 -108 506 -339 480 -500 -15 -96 -90 -172 -183 -186 -103 -15 -256 45 -366 146 -138 127 -213 266 -247 459 -12 69 -11 219 2 228 5 2 16 22 24 44 18 44 65 88 127 121 61 32 181 31 257 -2 93 -40 187 -107 287 -203 92 -88 306 -345 378 -454 34 -51 35 -51 69 -41 l34 11 -44 68 c-57 90 -96 169 -124 251 -19 56 -22 83 -18 165 5 122 37 200 108 267 95 89 184 117 355 112 99 -2 133 -8 194 -29z m-4605 -48 c145 -68 298 -293 364 -534 l19 -69 47 -12 c26 -7 74 -28 107 -48 33 -20 63 -36 67 -36 3 0 16 -9 28 -20 20 -20 23 -20 55 -6 19 9 53 20 76 26 l42 11 -20 37 c-12 20 -27 44 -33 52 -14 17 -59 118 -75 170 -16 51 -17 168 -2 218 22 78 119 155 216 173 89 16 240 -37 333 -117 l43 -37 37 36 c72 71 196 105 312 86 126 -19 252 -95 393 -235 16 -17 17 -17 17 2 0 43 32 126 62 160 102 116 264 102 453 -38 188 -140 336 -353 415 -596 21 -63 28 -75 56 -87 44 -18 109 -79 128 -119 9 -19 16 -49 16 -68 l-1 -33 -21 30 c-30 41 -125 135 -138 135 -5 0 -10 -14 -10 -31 0 -63 -50 -132 -106 -148 -104 -30 -185 105 -121 200 26 38 56 56 110 64 37 6 38 7 32 38 -7 31 -96 223 -132 282 -34 56 -125 164 -183 218 -134 124 -250 151 -250 58 0 -38 31 -155 97 -361 58 -183 72 -280 53 -366 -17 -75 -76 -118 -142 -105 -26 5 -39 25 -120 181 -109 211 -150 309 -173 415 -19 89 -41 119 -145 200 -91 70 -156 99 -226 99 -95 1 -124 -40 -102 -145 9 -44 14 -50 91 -102 105 -71 167 -133 232 -232 105 -161 134 -318 69 -386 -83 -88 -213 -76 -366 34 -74 53 -154 133 -209 208 -62 85 -137 245 -155 329 -15 72 -15 184 0 221 5 12 -8 24 -52 47 -82 44 -143 56 -187 38 -39 -17 -51 -46 -40 -104 7 -40 89 -199 164 -322 110 -178 141 -280 104 -349 -24 -45 -60 -71 -109 -78 -38 -5 -42 -3 -76 41 -19 25 -54 66 -77 91 -40 43 -43 44 -86 38 -25 -3 -45 -7 -45 -9 0 -2 24 -55 54 -117 65 -135 95 -227 103 -323 11 -139 -34 -235 -134 -281 -93 -43 -177 -18 -269 78 -63 68 -96 123 -128 221 -31 91 -35 213 -10 299 19 67 76 153 122 184 l34 23 -27 18 c-20 13 -173 84 -181 84 -1 0 -4 -53 -6 -117 -4 -96 -8 -126 -26 -160 -26 -50 -80 -89 -137 -98 -22 -4 -44 -13 -50 -19 -15 -19 -51 -36 -75 -36 -62 0 -181 93 -285 223 -144 178 -201 321 -212 528 -6 127 6 188 54 261 69 104 219 143 337 87z

M1358 5390 c-30 -18 -51 -93 -43 -157 24 -196 170 -469 337 -629 84 -81 178 -152 178 -136 0 14 -204 579 -241 669 -87 207 -164 292 -231 253z

M6095 4588 c9 -52 50 -169 78 -223 30 -57 125 -153 164 -166 28 -9 38 -8 59 6 76 50 37 195 -79 288 -57 46 -204 137 -222 137 -4 0 -4 -19 0 -42z

M6896 4070 c-50 -56 -69 -104 -69 -180 0 -96 27 -176 74 -223 35 -35 43 -39 75 -34 44 7 60 20 85 70 31 60 34 122 10 192 -25 71 -110 215 -127 215 -6 0 -28 -18 -48 -40z

M2691 4991 c-45 -45 -35 -162 30 -356 22 -65 43 -122 47 -125 9 -6 64 -97 75 -125 l8 -20 16 20 c8 11 20 27 26 36 34 46 109 77 202 83 36 2 40 4 36 27 -5 37 -48 147 -70 177 -10 15 -28 45 -40 67 -30 56 -137 173 -190 206 -54 35 -111 39 -140 10z

M4415 4653 c4 -10 19 -52 34 -94 63 -183 198 -340 260 -302 47 30 -7 161 -109 263 -122 123 -206 183 -185 133z

M3024 4416 c-60 -28 -94 -67 -94 -110 -1 -46 69 -173 102 -187 38 -16 78 6 102 55 21 44 33 170 22 230 -6 34 -9 36 -44 35 -20 0 -60 -11 -88 -23z

M3565 4173 c-17 -31 -20 -55 -20 -162 1 -107 4 -135 24 -184 36 -91 90 -145 131 -132 57 18 67 154 21 271 -29 73 -86 181 -118 222 l-18 22 -20 -37z

M5685 4188 c-27 -15 -35 -28 -35 -61 0 -17 7 -30 17 -34 23 -9 63 40 63 78 0 31 -12 36 -45 17z"
         fill="rgb(255,0,0)" />
    </g>
  </g>
</svg>
