ISO-10303-21;
HEADER;
/* Generated by software containing ST-Developer
 * from STEP Tools, Inc. (www.steptools.com) 
 */

FILE_DESCRIPTION(
/* description */ (''),
/* implementation_level */ '2;1');

FILE_NAME(
/* name */ 'Stereoscope bracket v2.step',
/* time_stamp */ '2026-07-08T20:57:00-04:00',
/* author */ (''),
/* organization */ (''),
/* preprocessor_version */ 'ST-DEVELOPER v20.1',
/* originating_system */ 'Autodesk Translation Framework v15.8.0.0',
/* authorisation */ '');

FILE_SCHEMA (('AUTOMOTIVE_DESIGN { 1 0 10303 214 3 1 1 }'));
ENDSEC;

DATA;
#10=MECHANICAL_DESIGN_GEOMETRIC_PRESENTATION_REPRESENTATION('',(#13),#448);
#11=SHAPE_REPRESENTATION_RELATIONSHIP('SRR','None',#455,#12);
#12=ADVANCED_BREP_SHAPE_REPRESENTATION('',(#14),#447);
#13=STYLED_ITEM('',(#464),#14);
#14=MANIFOLD_SOLID_BREP('New Plate',#244);
#15=FACE_BOUND('',#48,.T.);
#16=FACE_BOUND('',#49,.T.);
#17=FACE_BOUND('',#50,.T.);
#18=FACE_BOUND('',#52,.T.);
#19=FACE_BOUND('',#53,.T.);
#20=FACE_BOUND('',#54,.T.);
#21=PLANE('',#291);
#22=PLANE('',#292);
#23=FACE_OUTER_BOUND('',#36,.T.);
#24=FACE_OUTER_BOUND('',#37,.T.);
#25=FACE_OUTER_BOUND('',#38,.T.);
#26=FACE_OUTER_BOUND('',#39,.T.);
#27=FACE_OUTER_BOUND('',#40,.T.);
#28=FACE_OUTER_BOUND('',#41,.T.);
#29=FACE_OUTER_BOUND('',#42,.T.);
#30=FACE_OUTER_BOUND('',#43,.T.);
#31=FACE_OUTER_BOUND('',#44,.T.);
#32=FACE_OUTER_BOUND('',#45,.T.);
#33=FACE_OUTER_BOUND('',#46,.T.);
#34=FACE_OUTER_BOUND('',#47,.T.);
#35=FACE_OUTER_BOUND('',#51,.T.);
#36=EDGE_LOOP('',(#154,#155,#156,#157));
#37=EDGE_LOOP('',(#158,#159,#160,#161));
#38=EDGE_LOOP('',(#162,#163,#164,#165));
#39=EDGE_LOOP('',(#166,#167,#168,#169));
#40=EDGE_LOOP('',(#170,#171,#172,#173));
#41=EDGE_LOOP('',(#174,#175,#176,#177));
#42=EDGE_LOOP('',(#178,#179,#180,#181));
#43=EDGE_LOOP('',(#182,#183,#184,#185));
#44=EDGE_LOOP('',(#186,#187,#188,#189));
#45=EDGE_LOOP('',(#190,#191,#192,#193));
#46=EDGE_LOOP('',(#194,#195,#196,#197));
#47=EDGE_LOOP('',(#198,#199,#200,#201,#202,#203,#204,#205));
#48=EDGE_LOOP('',(#206));
#49=EDGE_LOOP('',(#207));
#50=EDGE_LOOP('',(#208));
#51=EDGE_LOOP('',(#209,#210,#211,#212,#213,#214,#215,#216));
#52=EDGE_LOOP('',(#217));
#53=EDGE_LOOP('',(#218));
#54=EDGE_LOOP('',(#219));
#55=LINE('',#381,#66);
#56=LINE('',#387,#67);
#57=LINE('',#393,#68);
#58=LINE('',#400,#69);
#59=LINE('',#403,#70);
#60=LINE('',#409,#71);
#61=LINE('',#415,#72);
#62=LINE('',#421,#73);
#63=LINE('',#427,#74);
#64=LINE('',#433,#75);
#65=LINE('',#439,#76);
#66=VECTOR('',#299,1.8985);
#67=VECTOR('',#306,1.75);
#68=VECTOR('',#313,1.75);
#69=VECTOR('',#320,10.);
#70=VECTOR('',#323,10.);
#71=VECTOR('',#330,10.);
#72=VECTOR('',#337,10.);
#73=VECTOR('',#344,10.);
#74=VECTOR('',#351,10.);
#75=VECTOR('',#358,10.);
#76=VECTOR('',#365,10.);
#77=CIRCLE('',#259,1.8985);
#78=CIRCLE('',#260,1.8985);
#79=CIRCLE('',#262,1.75);
#80=CIRCLE('',#263,1.75);
#81=CIRCLE('',#265,1.75);
#82=CIRCLE('',#266,1.75);
#83=CIRCLE('',#268,29.8920000001144);
#84=CIRCLE('',#269,29.8920000001144);
#85=CIRCLE('',#271,7.50000000000001);
#86=CIRCLE('',#272,7.50000000000001);
#87=CIRCLE('',#274,29.8920000001072);
#88=CIRCLE('',#275,29.8920000001072);
#89=CIRCLE('',#277,10.000000000219);
#90=CIRCLE('',#278,10.000000000219);
#91=CIRCLE('',#280,29.8920000001144);
#92=CIRCLE('',#281,29.8920000001144);
#93=CIRCLE('',#283,7.50000000000001);
#94=CIRCLE('',#284,7.50000000000001);
#95=CIRCLE('',#286,29.8920000001072);
#96=CIRCLE('',#287,29.8920000001072);
#97=CIRCLE('',#289,10.000000000219);
#98=CIRCLE('',#290,10.000000000219);
#99=VERTEX_POINT('',#378);
#100=VERTEX_POINT('',#380);
#101=VERTEX_POINT('',#384);
#102=VERTEX_POINT('',#386);
#103=VERTEX_POINT('',#390);
#104=VERTEX_POINT('',#392);
#105=VERTEX_POINT('',#396);
#106=VERTEX_POINT('',#397);
#107=VERTEX_POINT('',#399);
#108=VERTEX_POINT('',#401);
#109=VERTEX_POINT('',#405);
#110=VERTEX_POINT('',#407);
#111=VERTEX_POINT('',#411);
#112=VERTEX_POINT('',#413);
#113=VERTEX_POINT('',#417);
#114=VERTEX_POINT('',#419);
#115=VERTEX_POINT('',#423);
#116=VERTEX_POINT('',#425);
#117=VERTEX_POINT('',#429);
#118=VERTEX_POINT('',#431);
#119=VERTEX_POINT('',#435);
#120=VERTEX_POINT('',#437);
#121=EDGE_CURVE('',#99,#99,#77,.T.);
#122=EDGE_CURVE('',#99,#100,#55,.T.);
#123=EDGE_CURVE('',#100,#100,#78,.T.);
#124=EDGE_CURVE('',#101,#101,#79,.T.);
#125=EDGE_CURVE('',#101,#102,#56,.T.);
#126=EDGE_CURVE('',#102,#102,#80,.T.);
#127=EDGE_CURVE('',#103,#103,#81,.T.);
#128=EDGE_CURVE('',#103,#104,#57,.T.);
#129=EDGE_CURVE('',#104,#104,#82,.T.);
#130=EDGE_CURVE('',#105,#106,#83,.T.);
#131=EDGE_CURVE('',#106,#107,#58,.T.);
#132=EDGE_CURVE('',#108,#107,#84,.T.);
#133=EDGE_CURVE('',#105,#108,#59,.T.);
#134=EDGE_CURVE('',#105,#109,#85,.T.);
#135=EDGE_CURVE('',#110,#108,#86,.T.);
#136=EDGE_CURVE('',#109,#110,#60,.T.);
#137=EDGE_CURVE('',#111,#109,#87,.T.);
#138=EDGE_CURVE('',#112,#110,#88,.T.);
#139=EDGE_CURVE('',#111,#112,#61,.T.);
#140=EDGE_CURVE('',#111,#113,#89,.T.);
#141=EDGE_CURVE('',#114,#112,#90,.T.);
#142=EDGE_CURVE('',#113,#114,#62,.T.);
#143=EDGE_CURVE('',#115,#113,#91,.T.);
#144=EDGE_CURVE('',#116,#114,#92,.T.);
#145=EDGE_CURVE('',#115,#116,#63,.T.);
#146=EDGE_CURVE('',#115,#117,#93,.T.);
#147=EDGE_CURVE('',#118,#116,#94,.T.);
#148=EDGE_CURVE('',#117,#118,#64,.T.);
#149=EDGE_CURVE('',#119,#117,#95,.T.);
#150=EDGE_CURVE('',#120,#118,#96,.T.);
#151=EDGE_CURVE('',#119,#120,#65,.T.);
#152=EDGE_CURVE('',#119,#106,#97,.T.);
#153=EDGE_CURVE('',#107,#120,#98,.T.);
#154=ORIENTED_EDGE('',*,*,#121,.F.);
#155=ORIENTED_EDGE('',*,*,#122,.T.);
#156=ORIENTED_EDGE('',*,*,#123,.F.);
#157=ORIENTED_EDGE('',*,*,#122,.F.);
#158=ORIENTED_EDGE('',*,*,#124,.F.);
#159=ORIENTED_EDGE('',*,*,#125,.T.);
#160=ORIENTED_EDGE('',*,*,#126,.F.);
#161=ORIENTED_EDGE('',*,*,#125,.F.);
#162=ORIENTED_EDGE('',*,*,#127,.F.);
#163=ORIENTED_EDGE('',*,*,#128,.T.);
#164=ORIENTED_EDGE('',*,*,#129,.F.);
#165=ORIENTED_EDGE('',*,*,#128,.F.);
#166=ORIENTED_EDGE('',*,*,#130,.T.);
#167=ORIENTED_EDGE('',*,*,#131,.T.);
#168=ORIENTED_EDGE('',*,*,#132,.F.);
#169=ORIENTED_EDGE('',*,*,#133,.F.);
#170=ORIENTED_EDGE('',*,*,#134,.F.);
#171=ORIENTED_EDGE('',*,*,#133,.T.);
#172=ORIENTED_EDGE('',*,*,#135,.F.);
#173=ORIENTED_EDGE('',*,*,#136,.F.);
#174=ORIENTED_EDGE('',*,*,#137,.T.);
#175=ORIENTED_EDGE('',*,*,#136,.T.);
#176=ORIENTED_EDGE('',*,*,#138,.F.);
#177=ORIENTED_EDGE('',*,*,#139,.F.);
#178=ORIENTED_EDGE('',*,*,#140,.F.);
#179=ORIENTED_EDGE('',*,*,#139,.T.);
#180=ORIENTED_EDGE('',*,*,#141,.F.);
#181=ORIENTED_EDGE('',*,*,#142,.F.);
#182=ORIENTED_EDGE('',*,*,#143,.T.);
#183=ORIENTED_EDGE('',*,*,#142,.T.);
#184=ORIENTED_EDGE('',*,*,#144,.F.);
#185=ORIENTED_EDGE('',*,*,#145,.F.);
#186=ORIENTED_EDGE('',*,*,#146,.F.);
#187=ORIENTED_EDGE('',*,*,#145,.T.);
#188=ORIENTED_EDGE('',*,*,#147,.F.);
#189=ORIENTED_EDGE('',*,*,#148,.F.);
#190=ORIENTED_EDGE('',*,*,#149,.T.);
#191=ORIENTED_EDGE('',*,*,#148,.T.);
#192=ORIENTED_EDGE('',*,*,#150,.F.);
#193=ORIENTED_EDGE('',*,*,#151,.F.);
#194=ORIENTED_EDGE('',*,*,#152,.F.);
#195=ORIENTED_EDGE('',*,*,#151,.T.);
#196=ORIENTED_EDGE('',*,*,#153,.F.);
#197=ORIENTED_EDGE('',*,*,#131,.F.);
#198=ORIENTED_EDGE('',*,*,#152,.T.);
#199=ORIENTED_EDGE('',*,*,#130,.F.);
#200=ORIENTED_EDGE('',*,*,#134,.T.);
#201=ORIENTED_EDGE('',*,*,#137,.F.);
#202=ORIENTED_EDGE('',*,*,#140,.T.);
#203=ORIENTED_EDGE('',*,*,#143,.F.);
#204=ORIENTED_EDGE('',*,*,#146,.T.);
#205=ORIENTED_EDGE('',*,*,#149,.F.);
#206=ORIENTED_EDGE('',*,*,#121,.T.);
#207=ORIENTED_EDGE('',*,*,#129,.T.);
#208=ORIENTED_EDGE('',*,*,#126,.T.);
#209=ORIENTED_EDGE('',*,*,#153,.T.);
#210=ORIENTED_EDGE('',*,*,#150,.T.);
#211=ORIENTED_EDGE('',*,*,#147,.T.);
#212=ORIENTED_EDGE('',*,*,#144,.T.);
#213=ORIENTED_EDGE('',*,*,#141,.T.);
#214=ORIENTED_EDGE('',*,*,#138,.T.);
#215=ORIENTED_EDGE('',*,*,#135,.T.);
#216=ORIENTED_EDGE('',*,*,#132,.T.);
#217=ORIENTED_EDGE('',*,*,#123,.T.);
#218=ORIENTED_EDGE('',*,*,#127,.T.);
#219=ORIENTED_EDGE('',*,*,#124,.T.);
#220=CYLINDRICAL_SURFACE('',#258,1.8985);
#221=CYLINDRICAL_SURFACE('',#261,1.75);
#222=CYLINDRICAL_SURFACE('',#264,1.75);
#223=CYLINDRICAL_SURFACE('',#267,29.8920000001144);
#224=CYLINDRICAL_SURFACE('',#270,7.50000000000001);
#225=CYLINDRICAL_SURFACE('',#273,29.8920000001072);
#226=CYLINDRICAL_SURFACE('',#276,10.000000000219);
#227=CYLINDRICAL_SURFACE('',#279,29.8920000001144);
#228=CYLINDRICAL_SURFACE('',#282,7.50000000000001);
#229=CYLINDRICAL_SURFACE('',#285,29.8920000001072);
#230=CYLINDRICAL_SURFACE('',#288,10.000000000219);
#231=ADVANCED_FACE('',(#23),#220,.F.);
#232=ADVANCED_FACE('',(#24),#221,.F.);
#233=ADVANCED_FACE('',(#25),#222,.F.);
#234=ADVANCED_FACE('',(#26),#223,.F.);
#235=ADVANCED_FACE('',(#27),#224,.T.);
#236=ADVANCED_FACE('',(#28),#225,.F.);
#237=ADVANCED_FACE('',(#29),#226,.T.);
#238=ADVANCED_FACE('',(#30),#227,.F.);
#239=ADVANCED_FACE('',(#31),#228,.T.);
#240=ADVANCED_FACE('',(#32),#229,.F.);
#241=ADVANCED_FACE('',(#33),#230,.T.);
#242=ADVANCED_FACE('',(#34,#15,#16,#17),#21,.T.);
#243=ADVANCED_FACE('',(#35,#18,#19,#20),#22,.F.);
#244=CLOSED_SHELL('',(#231,#232,#233,#234,#235,#236,#237,#238,#239,#240,
#241,#242,#243));
#245=DERIVED_UNIT_ELEMENT(#247,1.);
#246=DERIVED_UNIT_ELEMENT(#450,-3.);
#247=(
MASS_UNIT()
NAMED_UNIT(*)
SI_UNIT(.KILO.,.GRAM.)
);
#248=DERIVED_UNIT((#245,#246));
#249=MEASURE_REPRESENTATION_ITEM('density measure',
POSITIVE_RATIO_MEASURE(1541.),#248);
#250=PROPERTY_DEFINITION_REPRESENTATION(#255,#252);
#251=PROPERTY_DEFINITION_REPRESENTATION(#256,#253);
#252=REPRESENTATION('material name',(#254),#447);
#253=REPRESENTATION('density',(#249),#447);
#254=DESCRIPTIVE_REPRESENTATION_ITEM('PET Plastic','PET Plastic');
#255=PROPERTY_DEFINITION('material property','material name',#457);
#256=PROPERTY_DEFINITION('material property','density of part',#457);
#257=AXIS2_PLACEMENT_3D('',#376,#293,#294);
#258=AXIS2_PLACEMENT_3D('',#377,#295,#296);
#259=AXIS2_PLACEMENT_3D('',#379,#297,#298);
#260=AXIS2_PLACEMENT_3D('',#382,#300,#301);
#261=AXIS2_PLACEMENT_3D('',#383,#302,#303);
#262=AXIS2_PLACEMENT_3D('',#385,#304,#305);
#263=AXIS2_PLACEMENT_3D('',#388,#307,#308);
#264=AXIS2_PLACEMENT_3D('',#389,#309,#310);
#265=AXIS2_PLACEMENT_3D('',#391,#311,#312);
#266=AXIS2_PLACEMENT_3D('',#394,#314,#315);
#267=AXIS2_PLACEMENT_3D('',#395,#316,#317);
#268=AXIS2_PLACEMENT_3D('',#398,#318,#319);
#269=AXIS2_PLACEMENT_3D('',#402,#321,#322);
#270=AXIS2_PLACEMENT_3D('',#404,#324,#325);
#271=AXIS2_PLACEMENT_3D('',#406,#326,#327);
#272=AXIS2_PLACEMENT_3D('',#408,#328,#329);
#273=AXIS2_PLACEMENT_3D('',#410,#331,#332);
#274=AXIS2_PLACEMENT_3D('',#412,#333,#334);
#275=AXIS2_PLACEMENT_3D('',#414,#335,#336);
#276=AXIS2_PLACEMENT_3D('',#416,#338,#339);
#277=AXIS2_PLACEMENT_3D('',#418,#340,#341);
#278=AXIS2_PLACEMENT_3D('',#420,#342,#343);
#279=AXIS2_PLACEMENT_3D('',#422,#345,#346);
#280=AXIS2_PLACEMENT_3D('',#424,#347,#348);
#281=AXIS2_PLACEMENT_3D('',#426,#349,#350);
#282=AXIS2_PLACEMENT_3D('',#428,#352,#353);
#283=AXIS2_PLACEMENT_3D('',#430,#354,#355);
#284=AXIS2_PLACEMENT_3D('',#432,#356,#357);
#285=AXIS2_PLACEMENT_3D('',#434,#359,#360);
#286=AXIS2_PLACEMENT_3D('',#436,#361,#362);
#287=AXIS2_PLACEMENT_3D('',#438,#363,#364);
#288=AXIS2_PLACEMENT_3D('',#440,#366,#367);
#289=AXIS2_PLACEMENT_3D('',#441,#368,#369);
#290=AXIS2_PLACEMENT_3D('',#442,#370,#371);
#291=AXIS2_PLACEMENT_3D('',#443,#372,#373);
#292=AXIS2_PLACEMENT_3D('',#444,#374,#375);
#293=DIRECTION('axis',(0.,0.,1.));
#294=DIRECTION('refdir',(1.,0.,0.));
#295=DIRECTION('center_axis',(0.,0.,-1.));
#296=DIRECTION('ref_axis',(1.,0.,0.));
#297=DIRECTION('center_axis',(0.,0.,-1.));
#298=DIRECTION('ref_axis',(1.,0.,0.));
#299=DIRECTION('',(0.,0.,-1.));
#300=DIRECTION('center_axis',(0.,0.,1.));
#301=DIRECTION('ref_axis',(1.,0.,0.));
#302=DIRECTION('center_axis',(0.,0.,-1.));
#303=DIRECTION('ref_axis',(1.,0.,0.));
#304=DIRECTION('center_axis',(0.,0.,1.));
#305=DIRECTION('ref_axis',(1.,0.,0.));
#306=DIRECTION('',(0.,0.,1.));
#307=DIRECTION('center_axis',(0.,0.,-1.));
#308=DIRECTION('ref_axis',(1.,0.,0.));
#309=DIRECTION('center_axis',(0.,0.,-1.));
#310=DIRECTION('ref_axis',(1.,0.,0.));
#311=DIRECTION('center_axis',(0.,0.,1.));
#312=DIRECTION('ref_axis',(1.,0.,0.));
#313=DIRECTION('',(0.,0.,1.));
#314=DIRECTION('center_axis',(0.,0.,-1.));
#315=DIRECTION('ref_axis',(1.,0.,0.));
#316=DIRECTION('center_axis',(0.,0.,-1.));
#317=DIRECTION('ref_axis',(1.48564569064754E-16,1.,0.));
#318=DIRECTION('center_axis',(0.,0.,1.));
#319=DIRECTION('ref_axis',(1.48564569064754E-16,1.,0.));
#320=DIRECTION('',(0.,0.,-1.));
#321=DIRECTION('center_axis',(0.,0.,1.));
#322=DIRECTION('ref_axis',(1.48564569064754E-16,1.,0.));
#323=DIRECTION('',(0.,0.,-1.));
#324=DIRECTION('center_axis',(0.,0.,-1.));
#325=DIRECTION('ref_axis',(5.9211894646675E-16,-1.,0.));
#326=DIRECTION('center_axis',(0.,0.,1.));
#327=DIRECTION('ref_axis',(5.9211894646675E-16,-1.,0.));
#328=DIRECTION('center_axis',(0.,0.,-1.));
#329=DIRECTION('ref_axis',(5.9211894646675E-16,-1.,0.));
#330=DIRECTION('',(0.,0.,-1.));
#331=DIRECTION('center_axis',(0.,0.,-1.));
#332=DIRECTION('ref_axis',(-0.348440790132457,-0.937330793141818,0.));
#333=DIRECTION('center_axis',(0.,0.,1.));
#334=DIRECTION('ref_axis',(-0.348440790132457,-0.937330793141818,0.));
#335=DIRECTION('center_axis',(0.,0.,1.));
#336=DIRECTION('ref_axis',(-0.348440790132457,-0.937330793141818,0.));
#337=DIRECTION('',(0.,0.,-1.));
#338=DIRECTION('center_axis',(0.,0.,-1.));
#339=DIRECTION('ref_axis',(0.348440790128632,0.93733079314324,0.));
#340=DIRECTION('center_axis',(0.,0.,1.));
#341=DIRECTION('ref_axis',(0.348440790128632,0.93733079314324,0.));
#342=DIRECTION('center_axis',(0.,0.,-1.));
#343=DIRECTION('ref_axis',(0.348440790128632,0.93733079314324,0.));
#344=DIRECTION('',(0.,0.,-1.));
#345=DIRECTION('center_axis',(0.,0.,-1.));
#346=DIRECTION('ref_axis',(0.,-1.,0.));
#347=DIRECTION('center_axis',(0.,0.,1.));
#348=DIRECTION('ref_axis',(0.,-1.,0.));
#349=DIRECTION('center_axis',(0.,0.,1.));
#350=DIRECTION('ref_axis',(0.,-1.,0.));
#351=DIRECTION('',(0.,0.,-1.));
#352=DIRECTION('center_axis',(0.,0.,-1.));
#353=DIRECTION('ref_axis',(-8.88178419700125E-16,1.,0.));
#354=DIRECTION('center_axis',(0.,0.,1.));
#355=DIRECTION('ref_axis',(-8.88178419700125E-16,1.,0.));
#356=DIRECTION('center_axis',(0.,0.,-1.));
#357=DIRECTION('ref_axis',(-8.88178419700125E-16,1.,0.));
#358=DIRECTION('',(0.,0.,-1.));
#359=DIRECTION('center_axis',(0.,0.,-1.));
#360=DIRECTION('ref_axis',(0.348440790132457,0.937330793141818,0.));
#361=DIRECTION('center_axis',(0.,0.,1.));
#362=DIRECTION('ref_axis',(0.348440790132457,0.937330793141818,0.));
#363=DIRECTION('center_axis',(0.,0.,1.));
#364=DIRECTION('ref_axis',(0.348440790132457,0.937330793141818,0.));
#365=DIRECTION('',(0.,0.,-1.));
#366=DIRECTION('center_axis',(0.,0.,-1.));
#367=DIRECTION('ref_axis',(-0.348440790128632,-0.93733079314324,0.));
#368=DIRECTION('center_axis',(0.,0.,1.));
#369=DIRECTION('ref_axis',(-0.348440790128632,-0.93733079314324,0.));
#370=DIRECTION('center_axis',(0.,0.,-1.));
#371=DIRECTION('ref_axis',(-0.348440790128632,-0.93733079314324,0.));
#372=DIRECTION('center_axis',(0.,0.,1.));
#373=DIRECTION('ref_axis',(1.,0.,0.));
#374=DIRECTION('center_axis',(0.,0.,1.));
#375=DIRECTION('ref_axis',(1.,0.,0.));
#376=CARTESIAN_POINT('',(0.,0.,0.));
#377=CARTESIAN_POINT('Origin',(3.93907129137006E-11,-2.19008144952682E-10,
-5.));
#378=CARTESIAN_POINT('',(-1.89849999996061,-2.19007912453487E-10,0.));
#379=CARTESIAN_POINT('Origin',(3.93907129137006E-11,-2.19008144952682E-10,
0.));
#380=CARTESIAN_POINT('',(-1.89849999996061,-2.19008377451876E-10,-2.));
#381=CARTESIAN_POINT('',(-1.89849999996061,-2.19007912453487E-10,-5.));
#382=CARTESIAN_POINT('Origin',(3.93907129137006E-11,-2.19008144952682E-10,
-2.));
#383=CARTESIAN_POINT('Origin',(13.9,-2.22044604925031E-15,0.));
#384=CARTESIAN_POINT('',(12.15,-2.4347592391011E-15,-2.));
#385=CARTESIAN_POINT('Origin',(13.9,-2.22044604925031E-15,-2.));
#386=CARTESIAN_POINT('',(12.15,-2.4347592391011E-15,0.));
#387=CARTESIAN_POINT('',(12.15,-2.00613285939953E-15,0.));
#388=CARTESIAN_POINT('Origin',(13.9,-2.22044604925031E-15,0.));
#389=CARTESIAN_POINT('Origin',(-13.9,0.,0.));
#390=CARTESIAN_POINT('',(-15.65,-2.14313189850787E-16,-2.));
#391=CARTESIAN_POINT('Origin',(-13.9,0.,-2.));
#392=CARTESIAN_POINT('',(-15.65,-2.14313189850787E-16,0.));
#393=CARTESIAN_POINT('',(-15.65,2.14313189850787E-16,0.));
#394=CARTESIAN_POINT('Origin',(-13.9,0.,0.));
#395=CARTESIAN_POINT('Origin',(13.9,-37.3920000001144,0.));
#396=CARTESIAN_POINT('',(13.9,-7.5,0.));
#397=CARTESIAN_POINT('',(3.48440790132324,-9.37330793141867,0.));
#398=CARTESIAN_POINT('Origin',(13.9,-37.3920000001144,0.));
#399=CARTESIAN_POINT('',(3.48440790132324,-9.37330793141867,-2.));
#400=CARTESIAN_POINT('',(3.48440790132324,-9.37330793141867,0.));
#401=CARTESIAN_POINT('',(13.9,-7.5,-2.));
#402=CARTESIAN_POINT('Origin',(13.9,-37.3920000001144,-2.));
#403=CARTESIAN_POINT('',(13.9,-7.5,0.));
#404=CARTESIAN_POINT('Origin',(13.9,4.44089209850063E-15,0.));
#405=CARTESIAN_POINT('',(13.9,7.5,0.));
#406=CARTESIAN_POINT('Origin',(13.9,4.44089209850063E-15,0.));
#407=CARTESIAN_POINT('',(13.9,7.5,-2.));
#408=CARTESIAN_POINT('Origin',(13.9,4.44089209850063E-15,-2.));
#409=CARTESIAN_POINT('',(13.9,7.5,0.));
#410=CARTESIAN_POINT('Origin',(13.9,37.3920000001144,0.));
#411=CARTESIAN_POINT('',(3.48440790132324,9.37330793141868,0.));
#412=CARTESIAN_POINT('Origin',(13.9,37.3920000001144,0.));
#413=CARTESIAN_POINT('',(3.48440790132324,9.37330793141868,-2.));
#414=CARTESIAN_POINT('Origin',(13.9,37.3920000001144,-2.));
#415=CARTESIAN_POINT('',(3.48440790132324,9.37330793141868,0.));
#416=CARTESIAN_POINT('Origin',(-3.93904526762558E-11,-2.19008144952682E-10,
0.));
#417=CARTESIAN_POINT('',(-3.48440790132324,9.37330793141868,0.));
#418=CARTESIAN_POINT('Origin',(-3.93904526762558E-11,-2.19008144952682E-10,
0.));
#419=CARTESIAN_POINT('',(-3.48440790132324,9.37330793141868,-2.));
#420=CARTESIAN_POINT('Origin',(-3.93904526762558E-11,-2.19008144952682E-10,
-2.));
#421=CARTESIAN_POINT('',(-3.48440790132324,9.37330793141868,0.));
#422=CARTESIAN_POINT('Origin',(-13.9,37.3920000001144,0.));
#423=CARTESIAN_POINT('',(-13.9,7.5,0.));
#424=CARTESIAN_POINT('Origin',(-13.9,37.3920000001144,0.));
#425=CARTESIAN_POINT('',(-13.9,7.5,-2.));
#426=CARTESIAN_POINT('Origin',(-13.9,37.3920000001144,-2.));
#427=CARTESIAN_POINT('',(-13.9,7.5,0.));
#428=CARTESIAN_POINT('Origin',(-13.9,-5.55111512312578E-15,0.));
#429=CARTESIAN_POINT('',(-13.9,-7.5,0.));
#430=CARTESIAN_POINT('Origin',(-13.9,-5.55111512312578E-15,0.));
#431=CARTESIAN_POINT('',(-13.9,-7.5,-2.));
#432=CARTESIAN_POINT('Origin',(-13.9,-5.55111512312578E-15,-2.));
#433=CARTESIAN_POINT('',(-13.9,-7.5,0.));
#434=CARTESIAN_POINT('Origin',(-13.9,-37.3920000001144,0.));
#435=CARTESIAN_POINT('',(-3.48440790132324,-9.37330793141868,0.));
#436=CARTESIAN_POINT('Origin',(-13.9,-37.3920000001144,0.));
#437=CARTESIAN_POINT('',(-3.48440790132324,-9.37330793141868,-2.));
#438=CARTESIAN_POINT('Origin',(-13.9,-37.3920000001144,-2.));
#439=CARTESIAN_POINT('',(-3.48440790132324,-9.37330793141868,0.));
#440=CARTESIAN_POINT('Origin',(3.93907129137006E-11,2.19008144952682E-10,
0.));
#441=CARTESIAN_POINT('Origin',(3.93907129137006E-11,2.19008144952682E-10,
0.));
#442=CARTESIAN_POINT('Origin',(3.93907129137006E-11,2.19008144952682E-10,
-2.));
#443=CARTESIAN_POINT('Origin',(4.44089209850063E-15,0.,0.));
#444=CARTESIAN_POINT('Origin',(4.44089209850063E-15,0.,-2.));
#445=UNCERTAINTY_MEASURE_WITH_UNIT(LENGTH_MEASURE(0.01),#449,
'DISTANCE_ACCURACY_VALUE',
'Maximum model space distance between geometric entities at asserted c
onnectivities');
#446=UNCERTAINTY_MEASURE_WITH_UNIT(LENGTH_MEASURE(0.01),#449,
'DISTANCE_ACCURACY_VALUE',
'Maximum model space distance between geometric entities at asserted c
onnectivities');
#447=(
GEOMETRIC_REPRESENTATION_CONTEXT(3)
GLOBAL_UNCERTAINTY_ASSIGNED_CONTEXT((#445))
GLOBAL_UNIT_ASSIGNED_CONTEXT((#449,#451,#452))
REPRESENTATION_CONTEXT('','3D')
);
#448=(
GEOMETRIC_REPRESENTATION_CONTEXT(3)
GLOBAL_UNCERTAINTY_ASSIGNED_CONTEXT((#446))
GLOBAL_UNIT_ASSIGNED_CONTEXT((#449,#451,#452))
REPRESENTATION_CONTEXT('','3D')
);
#449=(
LENGTH_UNIT()
NAMED_UNIT(*)
SI_UNIT(.MILLI.,.METRE.)
);
#450=(
LENGTH_UNIT()
NAMED_UNIT(*)
SI_UNIT($,.METRE.)
);
#451=(
NAMED_UNIT(*)
PLANE_ANGLE_UNIT()
SI_UNIT($,.RADIAN.)
);
#452=(
NAMED_UNIT(*)
SI_UNIT($,.STERADIAN.)
SOLID_ANGLE_UNIT()
);
#453=SHAPE_DEFINITION_REPRESENTATION(#454,#455);
#454=PRODUCT_DEFINITION_SHAPE('',$,#457);
#455=SHAPE_REPRESENTATION('',(#257),#447);
#456=PRODUCT_DEFINITION_CONTEXT('part definition',#461,'design');
#457=PRODUCT_DEFINITION('Stereoscope bracket','Stereoscope bracket v3',
#458,#456);
#458=PRODUCT_DEFINITION_FORMATION('',$,#463);
#459=PRODUCT_RELATED_PRODUCT_CATEGORY('Stereoscope bracket v3',
'Stereoscope bracket v3',(#463));
#460=APPLICATION_PROTOCOL_DEFINITION('international standard',
'automotive_design',2009,#461);
#461=APPLICATION_CONTEXT(
'Core Data for Automotive Mechanical Design Process');
#462=PRODUCT_CONTEXT('part definition',#461,'mechanical');
#463=PRODUCT('Stereoscope bracket','Stereoscope bracket v3',$,(#462));
#464=PRESENTATION_STYLE_ASSIGNMENT((#465));
#465=SURFACE_STYLE_USAGE(.BOTH.,#466);
#466=SURFACE_SIDE_STYLE('',(#467));
#467=SURFACE_STYLE_FILL_AREA(#468);
#468=FILL_AREA_STYLE('Polycarbonate (Clear)',(#469));
#469=FILL_AREA_STYLE_COLOUR('Polycarbonate (Clear)',#470);
#470=COLOUR_RGB('Polycarbonate (Clear)',0.964705882352941,0.964705882352941,
0.952941176470588);
ENDSEC;
END-ISO-10303-21;
