ISO-10303-21;
HEADER;
/* Generated by software containing ST-Developer
 * from STEP Tools, Inc. (www.steptools.com) 
 */

FILE_DESCRIPTION(
/* description */ (''),
/* implementation_level */ '2;1');

FILE_NAME(
/* name */ 'Stereoscope bracket.step',
/* time_stamp */ '2026-07-08T20:34:12-04:00',
/* author */ (''),
/* organization */ (''),
/* preprocessor_version */ 'ST-DEVELOPER v20.1',
/* originating_system */ 'Autodesk Translation Framework v15.8.0.0',
/* authorisation */ '');

FILE_SCHEMA (('AUTOMOTIVE_DESIGN { 1 0 10303 214 3 1 1 }'));
ENDSEC;

DATA;
#10=MECHANICAL_DESIGN_GEOMETRIC_PRESENTATION_REPRESENTATION('',(#13),#473);
#11=SHAPE_REPRESENTATION_RELATIONSHIP('SRR','None',#480,#12);
#12=ADVANCED_BREP_SHAPE_REPRESENTATION('',(#14),#472);
#13=STYLED_ITEM('',(#489),#14);
#14=MANIFOLD_SOLID_BREP('New Plate',#258);
#15=FACE_BOUND('',#61,.T.);
#16=FACE_BOUND('',#62,.T.);
#17=FACE_BOUND('',#63,.T.);
#18=FACE_BOUND('',#65,.T.);
#19=FACE_BOUND('',#66,.T.);
#20=FACE_BOUND('',#67,.T.);
#21=PLANE('',#307);
#22=PLANE('',#308);
#23=CYLINDRICAL_SURFACE('',#275,1.8985);
#24=CYLINDRICAL_SURFACE('',#277,1.75);
#25=CYLINDRICAL_SURFACE('',#280,1.75);
#26=CYLINDRICAL_SURFACE('',#283,29.8920000001144);
#27=CYLINDRICAL_SURFACE('',#286,7.50000000000001);
#28=CYLINDRICAL_SURFACE('',#289,29.8920000001072);
#29=CYLINDRICAL_SURFACE('',#292,10.000000000219);
#30=CYLINDRICAL_SURFACE('',#295,29.8920000001144);
#31=CYLINDRICAL_SURFACE('',#298,7.50000000000001);
#32=CYLINDRICAL_SURFACE('',#301,29.8920000001072);
#33=CYLINDRICAL_SURFACE('',#304,10.000000000219);
#34=FACE_OUTER_BOUND('',#48,.T.);
#35=FACE_OUTER_BOUND('',#49,.T.);
#36=FACE_OUTER_BOUND('',#50,.T.);
#37=FACE_OUTER_BOUND('',#51,.T.);
#38=FACE_OUTER_BOUND('',#52,.T.);
#39=FACE_OUTER_BOUND('',#53,.T.);
#40=FACE_OUTER_BOUND('',#54,.T.);
#41=FACE_OUTER_BOUND('',#55,.T.);
#42=FACE_OUTER_BOUND('',#56,.T.);
#43=FACE_OUTER_BOUND('',#57,.T.);
#44=FACE_OUTER_BOUND('',#58,.T.);
#45=FACE_OUTER_BOUND('',#59,.T.);
#46=FACE_OUTER_BOUND('',#60,.T.);
#47=FACE_OUTER_BOUND('',#64,.T.);
#48=EDGE_LOOP('',(#173,#174,#175,#176));
#49=EDGE_LOOP('',(#177,#178,#179,#180));
#50=EDGE_LOOP('',(#181,#182,#183,#184));
#51=EDGE_LOOP('',(#185,#186,#187,#188));
#52=EDGE_LOOP('',(#189,#190,#191,#192));
#53=EDGE_LOOP('',(#193,#194,#195,#196));
#54=EDGE_LOOP('',(#197,#198,#199,#200));
#55=EDGE_LOOP('',(#201,#202,#203,#204));
#56=EDGE_LOOP('',(#205,#206,#207,#208));
#57=EDGE_LOOP('',(#209,#210,#211,#212));
#58=EDGE_LOOP('',(#213,#214,#215,#216));
#59=EDGE_LOOP('',(#217,#218,#219,#220));
#60=EDGE_LOOP('',(#221,#222,#223,#224,#225,#226,#227,#228));
#61=EDGE_LOOP('',(#229));
#62=EDGE_LOOP('',(#230));
#63=EDGE_LOOP('',(#231));
#64=EDGE_LOOP('',(#232,#233,#234,#235,#236,#237,#238,#239));
#65=EDGE_LOOP('',(#240));
#66=EDGE_LOOP('',(#241));
#67=EDGE_LOOP('',(#242));
#68=LINE('',#402,#80);
#69=LINE('',#406,#81);
#70=LINE('',#412,#82);
#71=LINE('',#418,#83);
#72=LINE('',#425,#84);
#73=LINE('',#428,#85);
#74=LINE('',#434,#86);
#75=LINE('',#440,#87);
#76=LINE('',#446,#88);
#77=LINE('',#452,#89);
#78=LINE('',#458,#90);
#79=LINE('',#464,#91);
#80=VECTOR('',#315,2.721);
#81=VECTOR('',#320,1.8985);
#82=VECTOR('',#327,1.75);
#83=VECTOR('',#334,1.75);
#84=VECTOR('',#341,10.);
#85=VECTOR('',#344,10.);
#86=VECTOR('',#351,10.);
#87=VECTOR('',#358,10.);
#88=VECTOR('',#365,10.);
#89=VECTOR('',#372,10.);
#90=VECTOR('',#379,10.);
#91=VECTOR('',#386,10.);
#92=CIRCLE('',#273,3.5435);
#93=CIRCLE('',#274,1.8985);
#94=CIRCLE('',#276,1.8985);
#95=CIRCLE('',#278,1.75);
#96=CIRCLE('',#279,1.75);
#97=CIRCLE('',#281,1.75);
#98=CIRCLE('',#282,1.75);
#99=CIRCLE('',#284,29.8920000001144);
#100=CIRCLE('',#285,29.8920000001144);
#101=CIRCLE('',#287,7.50000000000001);
#102=CIRCLE('',#288,7.50000000000001);
#103=CIRCLE('',#290,29.8920000001072);
#104=CIRCLE('',#291,29.8920000001072);
#105=CIRCLE('',#293,10.000000000219);
#106=CIRCLE('',#294,10.000000000219);
#107=CIRCLE('',#296,29.8920000001144);
#108=CIRCLE('',#297,29.8920000001144);
#109=CIRCLE('',#299,7.50000000000001);
#110=CIRCLE('',#300,7.50000000000001);
#111=CIRCLE('',#302,29.8920000001072);
#112=CIRCLE('',#303,29.8920000001072);
#113=CIRCLE('',#305,10.000000000219);
#114=CIRCLE('',#306,10.000000000219);
#115=VERTEX_POINT('',#399);
#116=VERTEX_POINT('',#401);
#117=VERTEX_POINT('',#405);
#118=VERTEX_POINT('',#409);
#119=VERTEX_POINT('',#411);
#120=VERTEX_POINT('',#415);
#121=VERTEX_POINT('',#417);
#122=VERTEX_POINT('',#421);
#123=VERTEX_POINT('',#422);
#124=VERTEX_POINT('',#424);
#125=VERTEX_POINT('',#426);
#126=VERTEX_POINT('',#430);
#127=VERTEX_POINT('',#432);
#128=VERTEX_POINT('',#436);
#129=VERTEX_POINT('',#438);
#130=VERTEX_POINT('',#442);
#131=VERTEX_POINT('',#444);
#132=VERTEX_POINT('',#448);
#133=VERTEX_POINT('',#450);
#134=VERTEX_POINT('',#454);
#135=VERTEX_POINT('',#456);
#136=VERTEX_POINT('',#460);
#137=VERTEX_POINT('',#462);
#138=EDGE_CURVE('',#115,#115,#92,.T.);
#139=EDGE_CURVE('',#115,#116,#68,.T.);
#140=EDGE_CURVE('',#116,#116,#93,.T.);
#141=EDGE_CURVE('',#116,#117,#69,.T.);
#142=EDGE_CURVE('',#117,#117,#94,.T.);
#143=EDGE_CURVE('',#118,#118,#95,.T.);
#144=EDGE_CURVE('',#118,#119,#70,.T.);
#145=EDGE_CURVE('',#119,#119,#96,.T.);
#146=EDGE_CURVE('',#120,#120,#97,.T.);
#147=EDGE_CURVE('',#120,#121,#71,.T.);
#148=EDGE_CURVE('',#121,#121,#98,.T.);
#149=EDGE_CURVE('',#122,#123,#99,.T.);
#150=EDGE_CURVE('',#123,#124,#72,.T.);
#151=EDGE_CURVE('',#125,#124,#100,.T.);
#152=EDGE_CURVE('',#122,#125,#73,.T.);
#153=EDGE_CURVE('',#122,#126,#101,.T.);
#154=EDGE_CURVE('',#127,#125,#102,.T.);
#155=EDGE_CURVE('',#126,#127,#74,.T.);
#156=EDGE_CURVE('',#128,#126,#103,.T.);
#157=EDGE_CURVE('',#129,#127,#104,.T.);
#158=EDGE_CURVE('',#128,#129,#75,.T.);
#159=EDGE_CURVE('',#128,#130,#105,.T.);
#160=EDGE_CURVE('',#131,#129,#106,.T.);
#161=EDGE_CURVE('',#130,#131,#76,.T.);
#162=EDGE_CURVE('',#132,#130,#107,.T.);
#163=EDGE_CURVE('',#133,#131,#108,.T.);
#164=EDGE_CURVE('',#132,#133,#77,.T.);
#165=EDGE_CURVE('',#132,#134,#109,.T.);
#166=EDGE_CURVE('',#135,#133,#110,.T.);
#167=EDGE_CURVE('',#134,#135,#78,.T.);
#168=EDGE_CURVE('',#136,#134,#111,.T.);
#169=EDGE_CURVE('',#137,#135,#112,.T.);
#170=EDGE_CURVE('',#136,#137,#79,.T.);
#171=EDGE_CURVE('',#136,#123,#113,.T.);
#172=EDGE_CURVE('',#124,#137,#114,.T.);
#173=ORIENTED_EDGE('',*,*,#138,.F.);
#174=ORIENTED_EDGE('',*,*,#139,.T.);
#175=ORIENTED_EDGE('',*,*,#140,.T.);
#176=ORIENTED_EDGE('',*,*,#139,.F.);
#177=ORIENTED_EDGE('',*,*,#140,.F.);
#178=ORIENTED_EDGE('',*,*,#141,.T.);
#179=ORIENTED_EDGE('',*,*,#142,.F.);
#180=ORIENTED_EDGE('',*,*,#141,.F.);
#181=ORIENTED_EDGE('',*,*,#143,.F.);
#182=ORIENTED_EDGE('',*,*,#144,.T.);
#183=ORIENTED_EDGE('',*,*,#145,.F.);
#184=ORIENTED_EDGE('',*,*,#144,.F.);
#185=ORIENTED_EDGE('',*,*,#146,.F.);
#186=ORIENTED_EDGE('',*,*,#147,.T.);
#187=ORIENTED_EDGE('',*,*,#148,.F.);
#188=ORIENTED_EDGE('',*,*,#147,.F.);
#189=ORIENTED_EDGE('',*,*,#149,.T.);
#190=ORIENTED_EDGE('',*,*,#150,.T.);
#191=ORIENTED_EDGE('',*,*,#151,.F.);
#192=ORIENTED_EDGE('',*,*,#152,.F.);
#193=ORIENTED_EDGE('',*,*,#153,.F.);
#194=ORIENTED_EDGE('',*,*,#152,.T.);
#195=ORIENTED_EDGE('',*,*,#154,.F.);
#196=ORIENTED_EDGE('',*,*,#155,.F.);
#197=ORIENTED_EDGE('',*,*,#156,.T.);
#198=ORIENTED_EDGE('',*,*,#155,.T.);
#199=ORIENTED_EDGE('',*,*,#157,.F.);
#200=ORIENTED_EDGE('',*,*,#158,.F.);
#201=ORIENTED_EDGE('',*,*,#159,.F.);
#202=ORIENTED_EDGE('',*,*,#158,.T.);
#203=ORIENTED_EDGE('',*,*,#160,.F.);
#204=ORIENTED_EDGE('',*,*,#161,.F.);
#205=ORIENTED_EDGE('',*,*,#162,.T.);
#206=ORIENTED_EDGE('',*,*,#161,.T.);
#207=ORIENTED_EDGE('',*,*,#163,.F.);
#208=ORIENTED_EDGE('',*,*,#164,.F.);
#209=ORIENTED_EDGE('',*,*,#165,.F.);
#210=ORIENTED_EDGE('',*,*,#164,.T.);
#211=ORIENTED_EDGE('',*,*,#166,.F.);
#212=ORIENTED_EDGE('',*,*,#167,.F.);
#213=ORIENTED_EDGE('',*,*,#168,.T.);
#214=ORIENTED_EDGE('',*,*,#167,.T.);
#215=ORIENTED_EDGE('',*,*,#169,.F.);
#216=ORIENTED_EDGE('',*,*,#170,.F.);
#217=ORIENTED_EDGE('',*,*,#171,.F.);
#218=ORIENTED_EDGE('',*,*,#170,.T.);
#219=ORIENTED_EDGE('',*,*,#172,.F.);
#220=ORIENTED_EDGE('',*,*,#150,.F.);
#221=ORIENTED_EDGE('',*,*,#171,.T.);
#222=ORIENTED_EDGE('',*,*,#149,.F.);
#223=ORIENTED_EDGE('',*,*,#153,.T.);
#224=ORIENTED_EDGE('',*,*,#156,.F.);
#225=ORIENTED_EDGE('',*,*,#159,.T.);
#226=ORIENTED_EDGE('',*,*,#162,.F.);
#227=ORIENTED_EDGE('',*,*,#165,.T.);
#228=ORIENTED_EDGE('',*,*,#168,.F.);
#229=ORIENTED_EDGE('',*,*,#138,.T.);
#230=ORIENTED_EDGE('',*,*,#148,.T.);
#231=ORIENTED_EDGE('',*,*,#145,.T.);
#232=ORIENTED_EDGE('',*,*,#172,.T.);
#233=ORIENTED_EDGE('',*,*,#169,.T.);
#234=ORIENTED_EDGE('',*,*,#166,.T.);
#235=ORIENTED_EDGE('',*,*,#163,.T.);
#236=ORIENTED_EDGE('',*,*,#160,.T.);
#237=ORIENTED_EDGE('',*,*,#157,.T.);
#238=ORIENTED_EDGE('',*,*,#154,.T.);
#239=ORIENTED_EDGE('',*,*,#151,.T.);
#240=ORIENTED_EDGE('',*,*,#142,.T.);
#241=ORIENTED_EDGE('',*,*,#146,.T.);
#242=ORIENTED_EDGE('',*,*,#143,.T.);
#243=CONICAL_SURFACE('',#272,2.721,0.872664625997165);
#244=ADVANCED_FACE('',(#34),#243,.F.);
#245=ADVANCED_FACE('',(#35),#23,.F.);
#246=ADVANCED_FACE('',(#36),#24,.F.);
#247=ADVANCED_FACE('',(#37),#25,.F.);
#248=ADVANCED_FACE('',(#38),#26,.F.);
#249=ADVANCED_FACE('',(#39),#27,.T.);
#250=ADVANCED_FACE('',(#40),#28,.F.);
#251=ADVANCED_FACE('',(#41),#29,.T.);
#252=ADVANCED_FACE('',(#42),#30,.F.);
#253=ADVANCED_FACE('',(#43),#31,.T.);
#254=ADVANCED_FACE('',(#44),#32,.F.);
#255=ADVANCED_FACE('',(#45),#33,.T.);
#256=ADVANCED_FACE('',(#46,#15,#16,#17),#21,.T.);
#257=ADVANCED_FACE('',(#47,#18,#19,#20),#22,.F.);
#258=CLOSED_SHELL('',(#244,#245,#246,#247,#248,#249,#250,#251,#252,#253,
#254,#255,#256,#257));
#259=DERIVED_UNIT_ELEMENT(#261,1.);
#260=DERIVED_UNIT_ELEMENT(#475,-3.);
#261=(
MASS_UNIT()
NAMED_UNIT(*)
SI_UNIT(.KILO.,.GRAM.)
);
#262=DERIVED_UNIT((#259,#260));
#263=MEASURE_REPRESENTATION_ITEM('density measure',
POSITIVE_RATIO_MEASURE(1541.),#262);
#264=PROPERTY_DEFINITION_REPRESENTATION(#269,#266);
#265=PROPERTY_DEFINITION_REPRESENTATION(#270,#267);
#266=REPRESENTATION('material name',(#268),#472);
#267=REPRESENTATION('density',(#263),#472);
#268=DESCRIPTIVE_REPRESENTATION_ITEM('PET Plastic','PET Plastic');
#269=PROPERTY_DEFINITION('material property','material name',#482);
#270=PROPERTY_DEFINITION('material property','density of part',#482);
#271=AXIS2_PLACEMENT_3D('',#397,#309,#310);
#272=AXIS2_PLACEMENT_3D('',#398,#311,#312);
#273=AXIS2_PLACEMENT_3D('',#400,#313,#314);
#274=AXIS2_PLACEMENT_3D('',#403,#316,#317);
#275=AXIS2_PLACEMENT_3D('',#404,#318,#319);
#276=AXIS2_PLACEMENT_3D('',#407,#321,#322);
#277=AXIS2_PLACEMENT_3D('',#408,#323,#324);
#278=AXIS2_PLACEMENT_3D('',#410,#325,#326);
#279=AXIS2_PLACEMENT_3D('',#413,#328,#329);
#280=AXIS2_PLACEMENT_3D('',#414,#330,#331);
#281=AXIS2_PLACEMENT_3D('',#416,#332,#333);
#282=AXIS2_PLACEMENT_3D('',#419,#335,#336);
#283=AXIS2_PLACEMENT_3D('',#420,#337,#338);
#284=AXIS2_PLACEMENT_3D('',#423,#339,#340);
#285=AXIS2_PLACEMENT_3D('',#427,#342,#343);
#286=AXIS2_PLACEMENT_3D('',#429,#345,#346);
#287=AXIS2_PLACEMENT_3D('',#431,#347,#348);
#288=AXIS2_PLACEMENT_3D('',#433,#349,#350);
#289=AXIS2_PLACEMENT_3D('',#435,#352,#353);
#290=AXIS2_PLACEMENT_3D('',#437,#354,#355);
#291=AXIS2_PLACEMENT_3D('',#439,#356,#357);
#292=AXIS2_PLACEMENT_3D('',#441,#359,#360);
#293=AXIS2_PLACEMENT_3D('',#443,#361,#362);
#294=AXIS2_PLACEMENT_3D('',#445,#363,#364);
#295=AXIS2_PLACEMENT_3D('',#447,#366,#367);
#296=AXIS2_PLACEMENT_3D('',#449,#368,#369);
#297=AXIS2_PLACEMENT_3D('',#451,#370,#371);
#298=AXIS2_PLACEMENT_3D('',#453,#373,#374);
#299=AXIS2_PLACEMENT_3D('',#455,#375,#376);
#300=AXIS2_PLACEMENT_3D('',#457,#377,#378);
#301=AXIS2_PLACEMENT_3D('',#459,#380,#381);
#302=AXIS2_PLACEMENT_3D('',#461,#382,#383);
#303=AXIS2_PLACEMENT_3D('',#463,#384,#385);
#304=AXIS2_PLACEMENT_3D('',#465,#387,#388);
#305=AXIS2_PLACEMENT_3D('',#466,#389,#390);
#306=AXIS2_PLACEMENT_3D('',#467,#391,#392);
#307=AXIS2_PLACEMENT_3D('',#468,#393,#394);
#308=AXIS2_PLACEMENT_3D('',#469,#395,#396);
#309=DIRECTION('axis',(0.,0.,1.));
#310=DIRECTION('refdir',(1.,0.,0.));
#311=DIRECTION('center_axis',(0.,0.,1.));
#312=DIRECTION('ref_axis',(1.,0.,0.));
#313=DIRECTION('center_axis',(0.,0.,-1.));
#314=DIRECTION('ref_axis',(1.,0.,0.));
#315=DIRECTION('',(0.766044443118978,-9.38133875270273E-17,-0.642787609686539));
#316=DIRECTION('center_axis',(0.,0.,-1.));
#317=DIRECTION('ref_axis',(1.,0.,0.));
#318=DIRECTION('center_axis',(0.,0.,-1.));
#319=DIRECTION('ref_axis',(1.,0.,0.));
#320=DIRECTION('',(0.,0.,-1.));
#321=DIRECTION('center_axis',(0.,0.,1.));
#322=DIRECTION('ref_axis',(1.,0.,0.));
#323=DIRECTION('center_axis',(0.,0.,-1.));
#324=DIRECTION('ref_axis',(1.,0.,0.));
#325=DIRECTION('center_axis',(0.,0.,1.));
#326=DIRECTION('ref_axis',(1.,0.,0.));
#327=DIRECTION('',(0.,0.,1.));
#328=DIRECTION('center_axis',(0.,0.,-1.));
#329=DIRECTION('ref_axis',(1.,0.,0.));
#330=DIRECTION('center_axis',(0.,0.,-1.));
#331=DIRECTION('ref_axis',(1.,0.,0.));
#332=DIRECTION('center_axis',(0.,0.,1.));
#333=DIRECTION('ref_axis',(1.,0.,0.));
#334=DIRECTION('',(0.,0.,1.));
#335=DIRECTION('center_axis',(0.,0.,-1.));
#336=DIRECTION('ref_axis',(1.,0.,0.));
#337=DIRECTION('center_axis',(0.,0.,-1.));
#338=DIRECTION('ref_axis',(1.48564569064754E-16,1.,0.));
#339=DIRECTION('center_axis',(0.,0.,1.));
#340=DIRECTION('ref_axis',(1.48564569064754E-16,1.,0.));
#341=DIRECTION('',(0.,0.,-1.));
#342=DIRECTION('center_axis',(0.,0.,1.));
#343=DIRECTION('ref_axis',(1.48564569064754E-16,1.,0.));
#344=DIRECTION('',(0.,0.,-1.));
#345=DIRECTION('center_axis',(0.,0.,-1.));
#346=DIRECTION('ref_axis',(5.9211894646675E-16,-1.,0.));
#347=DIRECTION('center_axis',(0.,0.,1.));
#348=DIRECTION('ref_axis',(5.9211894646675E-16,-1.,0.));
#349=DIRECTION('center_axis',(0.,0.,-1.));
#350=DIRECTION('ref_axis',(5.9211894646675E-16,-1.,0.));
#351=DIRECTION('',(0.,0.,-1.));
#352=DIRECTION('center_axis',(0.,0.,-1.));
#353=DIRECTION('ref_axis',(-0.348440790132457,-0.937330793141818,0.));
#354=DIRECTION('center_axis',(0.,0.,1.));
#355=DIRECTION('ref_axis',(-0.348440790132457,-0.937330793141818,0.));
#356=DIRECTION('center_axis',(0.,0.,1.));
#357=DIRECTION('ref_axis',(-0.348440790132457,-0.937330793141818,0.));
#358=DIRECTION('',(0.,0.,-1.));
#359=DIRECTION('center_axis',(0.,0.,-1.));
#360=DIRECTION('ref_axis',(0.348440790128632,0.93733079314324,0.));
#361=DIRECTION('center_axis',(0.,0.,1.));
#362=DIRECTION('ref_axis',(0.348440790128632,0.93733079314324,0.));
#363=DIRECTION('center_axis',(0.,0.,-1.));
#364=DIRECTION('ref_axis',(0.348440790128632,0.93733079314324,0.));
#365=DIRECTION('',(0.,0.,-1.));
#366=DIRECTION('center_axis',(0.,0.,-1.));
#367=DIRECTION('ref_axis',(0.,-1.,0.));
#368=DIRECTION('center_axis',(0.,0.,1.));
#369=DIRECTION('ref_axis',(0.,-1.,0.));
#370=DIRECTION('center_axis',(0.,0.,1.));
#371=DIRECTION('ref_axis',(0.,-1.,0.));
#372=DIRECTION('',(0.,0.,-1.));
#373=DIRECTION('center_axis',(0.,0.,-1.));
#374=DIRECTION('ref_axis',(-8.88178419700125E-16,1.,0.));
#375=DIRECTION('center_axis',(0.,0.,1.));
#376=DIRECTION('ref_axis',(-8.88178419700125E-16,1.,0.));
#377=DIRECTION('center_axis',(0.,0.,-1.));
#378=DIRECTION('ref_axis',(-8.88178419700125E-16,1.,0.));
#379=DIRECTION('',(0.,0.,-1.));
#380=DIRECTION('center_axis',(0.,0.,-1.));
#381=DIRECTION('ref_axis',(0.348440790132457,0.937330793141818,0.));
#382=DIRECTION('center_axis',(0.,0.,1.));
#383=DIRECTION('ref_axis',(0.348440790132457,0.937330793141818,0.));
#384=DIRECTION('center_axis',(0.,0.,1.));
#385=DIRECTION('ref_axis',(0.348440790132457,0.937330793141818,0.));
#386=DIRECTION('',(0.,0.,-1.));
#387=DIRECTION('center_axis',(0.,0.,-1.));
#388=DIRECTION('ref_axis',(-0.348440790128632,-0.93733079314324,0.));
#389=DIRECTION('center_axis',(0.,0.,1.));
#390=DIRECTION('ref_axis',(-0.348440790128632,-0.93733079314324,0.));
#391=DIRECTION('center_axis',(0.,0.,-1.));
#392=DIRECTION('ref_axis',(-0.348440790128632,-0.93733079314324,0.));
#393=DIRECTION('center_axis',(0.,0.,1.));
#394=DIRECTION('ref_axis',(1.,0.,0.));
#395=DIRECTION('center_axis',(0.,0.,1.));
#396=DIRECTION('ref_axis',(1.,0.,0.));
#397=CARTESIAN_POINT('',(0.,0.,0.));
#398=CARTESIAN_POINT('Origin',(3.93907129137006E-11,-2.19008144952682E-10,
-0.690159446643313));
#399=CARTESIAN_POINT('',(-3.54349999996061,-2.19007710999088E-10,1.38777878078145E-16));
#400=CARTESIAN_POINT('Origin',(3.93907129137006E-11,-2.19008144952682E-10,
0.));
#401=CARTESIAN_POINT('',(-1.89849999996061,-2.19007912453487E-10,-1.38031889328663));
#402=CARTESIAN_POINT('',(-2.72099999996061,-2.19007811726287E-10,-0.690159446643313));
#403=CARTESIAN_POINT('Origin',(3.93907129137006E-11,-2.19008144952682E-10,
-1.38031889328663));
#404=CARTESIAN_POINT('Origin',(3.93907129137006E-11,-2.19008144952682E-10,
-5.));
#405=CARTESIAN_POINT('',(-1.89849999996061,-2.19008377451876E-10,-2.));
#406=CARTESIAN_POINT('',(-1.89849999996061,-2.19007912453487E-10,-5.));
#407=CARTESIAN_POINT('Origin',(3.93907129137006E-11,-2.19008144952682E-10,
-2.));
#408=CARTESIAN_POINT('Origin',(13.9,-2.22044604925031E-15,0.));
#409=CARTESIAN_POINT('',(12.15,-2.4347592391011E-15,-2.));
#410=CARTESIAN_POINT('Origin',(13.9,-2.22044604925031E-15,-2.));
#411=CARTESIAN_POINT('',(12.15,-2.4347592391011E-15,0.));
#412=CARTESIAN_POINT('',(12.15,-2.00613285939953E-15,0.));
#413=CARTESIAN_POINT('Origin',(13.9,-2.22044604925031E-15,0.));
#414=CARTESIAN_POINT('Origin',(-13.9,0.,0.));
#415=CARTESIAN_POINT('',(-15.65,-2.14313189850787E-16,-2.));
#416=CARTESIAN_POINT('Origin',(-13.9,0.,-2.));
#417=CARTESIAN_POINT('',(-15.65,-2.14313189850787E-16,0.));
#418=CARTESIAN_POINT('',(-15.65,2.14313189850787E-16,0.));
#419=CARTESIAN_POINT('Origin',(-13.9,0.,0.));
#420=CARTESIAN_POINT('Origin',(13.9,-37.3920000001144,0.));
#421=CARTESIAN_POINT('',(13.9,-7.5,0.));
#422=CARTESIAN_POINT('',(3.48440790132324,-9.37330793141867,0.));
#423=CARTESIAN_POINT('Origin',(13.9,-37.3920000001144,0.));
#424=CARTESIAN_POINT('',(3.48440790132324,-9.37330793141867,-2.));
#425=CARTESIAN_POINT('',(3.48440790132324,-9.37330793141867,0.));
#426=CARTESIAN_POINT('',(13.9,-7.5,-2.));
#427=CARTESIAN_POINT('Origin',(13.9,-37.3920000001144,-2.));
#428=CARTESIAN_POINT('',(13.9,-7.5,0.));
#429=CARTESIAN_POINT('Origin',(13.9,4.44089209850063E-15,0.));
#430=CARTESIAN_POINT('',(13.9,7.5,0.));
#431=CARTESIAN_POINT('Origin',(13.9,4.44089209850063E-15,0.));
#432=CARTESIAN_POINT('',(13.9,7.5,-2.));
#433=CARTESIAN_POINT('Origin',(13.9,4.44089209850063E-15,-2.));
#434=CARTESIAN_POINT('',(13.9,7.5,0.));
#435=CARTESIAN_POINT('Origin',(13.9,37.3920000001144,0.));
#436=CARTESIAN_POINT('',(3.48440790132324,9.37330793141868,0.));
#437=CARTESIAN_POINT('Origin',(13.9,37.3920000001144,0.));
#438=CARTESIAN_POINT('',(3.48440790132324,9.37330793141868,-2.));
#439=CARTESIAN_POINT('Origin',(13.9,37.3920000001144,-2.));
#440=CARTESIAN_POINT('',(3.48440790132324,9.37330793141868,0.));
#441=CARTESIAN_POINT('Origin',(-3.93904526762558E-11,-2.19008144952682E-10,
0.));
#442=CARTESIAN_POINT('',(-3.48440790132324,9.37330793141868,0.));
#443=CARTESIAN_POINT('Origin',(-3.93904526762558E-11,-2.19008144952682E-10,
0.));
#444=CARTESIAN_POINT('',(-3.48440790132324,9.37330793141868,-2.));
#445=CARTESIAN_POINT('Origin',(-3.93904526762558E-11,-2.19008144952682E-10,
-2.));
#446=CARTESIAN_POINT('',(-3.48440790132324,9.37330793141868,0.));
#447=CARTESIAN_POINT('Origin',(-13.9,37.3920000001144,0.));
#448=CARTESIAN_POINT('',(-13.9,7.5,0.));
#449=CARTESIAN_POINT('Origin',(-13.9,37.3920000001144,0.));
#450=CARTESIAN_POINT('',(-13.9,7.5,-2.));
#451=CARTESIAN_POINT('Origin',(-13.9,37.3920000001144,-2.));
#452=CARTESIAN_POINT('',(-13.9,7.5,0.));
#453=CARTESIAN_POINT('Origin',(-13.9,-5.55111512312578E-15,0.));
#454=CARTESIAN_POINT('',(-13.9,-7.5,0.));
#455=CARTESIAN_POINT('Origin',(-13.9,-5.55111512312578E-15,0.));
#456=CARTESIAN_POINT('',(-13.9,-7.5,-2.));
#457=CARTESIAN_POINT('Origin',(-13.9,-5.55111512312578E-15,-2.));
#458=CARTESIAN_POINT('',(-13.9,-7.5,0.));
#459=CARTESIAN_POINT('Origin',(-13.9,-37.3920000001144,0.));
#460=CARTESIAN_POINT('',(-3.48440790132324,-9.37330793141868,0.));
#461=CARTESIAN_POINT('Origin',(-13.9,-37.3920000001144,0.));
#462=CARTESIAN_POINT('',(-3.48440790132324,-9.37330793141868,-2.));
#463=CARTESIAN_POINT('Origin',(-13.9,-37.3920000001144,-2.));
#464=CARTESIAN_POINT('',(-3.48440790132324,-9.37330793141868,0.));
#465=CARTESIAN_POINT('Origin',(3.93907129137006E-11,2.19008144952682E-10,
0.));
#466=CARTESIAN_POINT('Origin',(3.93907129137006E-11,2.19008144952682E-10,
0.));
#467=CARTESIAN_POINT('Origin',(3.93907129137006E-11,2.19008144952682E-10,
-2.));
#468=CARTESIAN_POINT('Origin',(4.44089209850063E-15,0.,0.));
#469=CARTESIAN_POINT('Origin',(4.44089209850063E-15,0.,-2.));
#470=UNCERTAINTY_MEASURE_WITH_UNIT(LENGTH_MEASURE(0.01),#474,
'DISTANCE_ACCURACY_VALUE',
'Maximum model space distance between geometric entities at asserted c
onnectivities');
#471=UNCERTAINTY_MEASURE_WITH_UNIT(LENGTH_MEASURE(0.01),#474,
'DISTANCE_ACCURACY_VALUE',
'Maximum model space distance between geometric entities at asserted c
onnectivities');
#472=(
GEOMETRIC_REPRESENTATION_CONTEXT(3)
GLOBAL_UNCERTAINTY_ASSIGNED_CONTEXT((#470))
GLOBAL_UNIT_ASSIGNED_CONTEXT((#474,#476,#477))
REPRESENTATION_CONTEXT('','3D')
);
#473=(
GEOMETRIC_REPRESENTATION_CONTEXT(3)
GLOBAL_UNCERTAINTY_ASSIGNED_CONTEXT((#471))
GLOBAL_UNIT_ASSIGNED_CONTEXT((#474,#476,#477))
REPRESENTATION_CONTEXT('','3D')
);
#474=(
LENGTH_UNIT()
NAMED_UNIT(*)
SI_UNIT(.MILLI.,.METRE.)
);
#475=(
LENGTH_UNIT()
NAMED_UNIT(*)
SI_UNIT($,.METRE.)
);
#476=(
NAMED_UNIT(*)
PLANE_ANGLE_UNIT()
SI_UNIT($,.RADIAN.)
);
#477=(
NAMED_UNIT(*)
SI_UNIT($,.STERADIAN.)
SOLID_ANGLE_UNIT()
);
#478=SHAPE_DEFINITION_REPRESENTATION(#479,#480);
#479=PRODUCT_DEFINITION_SHAPE('',$,#482);
#480=SHAPE_REPRESENTATION('',(#271),#472);
#481=PRODUCT_DEFINITION_CONTEXT('part definition',#486,'design');
#482=PRODUCT_DEFINITION('Stereoscope bracket','Stereoscope bracket v1',
#483,#481);
#483=PRODUCT_DEFINITION_FORMATION('',$,#488);
#484=PRODUCT_RELATED_PRODUCT_CATEGORY('Stereoscope bracket v1',
'Stereoscope bracket v1',(#488));
#485=APPLICATION_PROTOCOL_DEFINITION('international standard',
'automotive_design',2009,#486);
#486=APPLICATION_CONTEXT(
'Core Data for Automotive Mechanical Design Process');
#487=PRODUCT_CONTEXT('part definition',#486,'mechanical');
#488=PRODUCT('Stereoscope bracket','Stereoscope bracket v1',$,(#487));
#489=PRESENTATION_STYLE_ASSIGNMENT((#490));
#490=SURFACE_STYLE_USAGE(.BOTH.,#491);
#491=SURFACE_SIDE_STYLE('',(#492));
#492=SURFACE_STYLE_FILL_AREA(#493);
#493=FILL_AREA_STYLE('Polycarbonate (Clear)',(#494));
#494=FILL_AREA_STYLE_COLOUR('Polycarbonate (Clear)',#495);
#495=COLOUR_RGB('Polycarbonate (Clear)',0.964705882352941,0.964705882352941,
0.952941176470588);
ENDSEC;
END-ISO-10303-21;
