ISO-10303-21;
HEADER;
/* Generated by software containing ST-Developer
 * from STEP Tools, Inc. (www.steptools.com) 
 */

FILE_DESCRIPTION(
/* description */ (''),
/* implementation_level */ '2;1');

FILE_NAME(
/* name */ 'Screwdriver reinforcement.step',
/* time_stamp */ '2026-06-30T13:24:52-04:00',
/* author */ (''),
/* organization */ (''),
/* preprocessor_version */ 'ST-DEVELOPER v20.1',
/* originating_system */ 'Autodesk Translation Framework v15.8.0.0',
/* authorisation */ '');

FILE_SCHEMA (('AUTOMOTIVE_DESIGN { 1 0 10303 214 3 1 1 }'));
ENDSEC;

DATA;
#10=MECHANICAL_DESIGN_GEOMETRIC_PRESENTATION_REPRESENTATION('',(#13),#393);
#11=SHAPE_REPRESENTATION_RELATIONSHIP('SRR','None',#400,#12);
#12=ADVANCED_BREP_SHAPE_REPRESENTATION('',(#14),#392);
#13=STYLED_ITEM('',(#409),#14);
#14=MANIFOLD_SOLID_BREP('Body1',#229);
#15=FACE_BOUND('',#48,.T.);
#16=FACE_BOUND('',#50,.T.);
#17=PLANE('',#255);
#18=PLANE('',#256);
#19=PLANE('',#257);
#20=PLANE('',#258);
#21=PLANE('',#259);
#22=PLANE('',#260);
#23=PLANE('',#261);
#24=PLANE('',#262);
#25=FACE_OUTER_BOUND('',#37,.T.);
#26=FACE_OUTER_BOUND('',#38,.T.);
#27=FACE_OUTER_BOUND('',#39,.T.);
#28=FACE_OUTER_BOUND('',#40,.T.);
#29=FACE_OUTER_BOUND('',#41,.T.);
#30=FACE_OUTER_BOUND('',#42,.T.);
#31=FACE_OUTER_BOUND('',#43,.T.);
#32=FACE_OUTER_BOUND('',#44,.T.);
#33=FACE_OUTER_BOUND('',#45,.T.);
#34=FACE_OUTER_BOUND('',#46,.T.);
#35=FACE_OUTER_BOUND('',#47,.T.);
#36=FACE_OUTER_BOUND('',#49,.T.);
#37=EDGE_LOOP('',(#153,#154,#155,#156));
#38=EDGE_LOOP('',(#157,#158,#159,#160));
#39=EDGE_LOOP('',(#161,#162,#163,#164));
#40=EDGE_LOOP('',(#165,#166,#167,#168));
#41=EDGE_LOOP('',(#169,#170,#171,#172));
#42=EDGE_LOOP('',(#173,#174,#175,#176));
#43=EDGE_LOOP('',(#177,#178,#179,#180));
#44=EDGE_LOOP('',(#181,#182,#183,#184));
#45=EDGE_LOOP('',(#185,#186,#187,#188));
#46=EDGE_LOOP('',(#189,#190,#191,#192));
#47=EDGE_LOOP('',(#193,#194,#195,#196,#197,#198));
#48=EDGE_LOOP('',(#199,#200,#201,#202));
#49=EDGE_LOOP('',(#203,#204,#205,#206,#207,#208));
#50=EDGE_LOOP('',(#209,#210,#211,#212));
#51=LINE('',#333,#73);
#52=LINE('',#336,#74);
#53=LINE('',#342,#75);
#54=LINE('',#348,#76);
#55=LINE('',#355,#77);
#56=LINE('',#357,#78);
#57=LINE('',#359,#79);
#58=LINE('',#360,#80);
#59=LINE('',#363,#81);
#60=LINE('',#365,#82);
#61=LINE('',#366,#83);
#62=LINE('',#369,#84);
#63=LINE('',#371,#85);
#64=LINE('',#372,#86);
#65=LINE('',#375,#87);
#66=LINE('',#377,#88);
#67=LINE('',#378,#89);
#68=LINE('',#381,#90);
#69=LINE('',#383,#91);
#70=LINE('',#384,#92);
#71=LINE('',#386,#93);
#72=LINE('',#387,#94);
#73=VECTOR('',#269,10.);
#74=VECTOR('',#272,10.);
#75=VECTOR('',#279,10.);
#76=VECTOR('',#286,10.);
#77=VECTOR('',#295,10.);
#78=VECTOR('',#296,10.);
#79=VECTOR('',#297,10.);
#80=VECTOR('',#298,10.);
#81=VECTOR('',#301,10.);
#82=VECTOR('',#302,10.);
#83=VECTOR('',#303,10.);
#84=VECTOR('',#306,10.);
#85=VECTOR('',#307,10.);
#86=VECTOR('',#308,10.);
#87=VECTOR('',#311,10.);
#88=VECTOR('',#312,10.);
#89=VECTOR('',#313,10.);
#90=VECTOR('',#316,10.);
#91=VECTOR('',#317,10.);
#92=VECTOR('',#318,10.);
#93=VECTOR('',#321,10.);
#94=VECTOR('',#322,10.);
#95=CIRCLE('',#244,1.5875);
#96=CIRCLE('',#245,1.5875);
#97=CIRCLE('',#247,2.52);
#98=CIRCLE('',#248,2.52);
#99=CIRCLE('',#250,1.5875);
#100=CIRCLE('',#251,1.5875);
#101=CIRCLE('',#253,2.52);
#102=CIRCLE('',#254,2.52);
#103=VERTEX_POINT('',#329);
#104=VERTEX_POINT('',#330);
#105=VERTEX_POINT('',#332);
#106=VERTEX_POINT('',#334);
#107=VERTEX_POINT('',#338);
#108=VERTEX_POINT('',#340);
#109=VERTEX_POINT('',#344);
#110=VERTEX_POINT('',#346);
#111=VERTEX_POINT('',#353);
#112=VERTEX_POINT('',#354);
#113=VERTEX_POINT('',#356);
#114=VERTEX_POINT('',#358);
#115=VERTEX_POINT('',#362);
#116=VERTEX_POINT('',#364);
#117=VERTEX_POINT('',#368);
#118=VERTEX_POINT('',#370);
#119=VERTEX_POINT('',#374);
#120=VERTEX_POINT('',#376);
#121=VERTEX_POINT('',#380);
#122=VERTEX_POINT('',#382);
#123=EDGE_CURVE('',#103,#104,#95,.T.);
#124=EDGE_CURVE('',#104,#105,#51,.T.);
#125=EDGE_CURVE('',#106,#105,#96,.T.);
#126=EDGE_CURVE('',#103,#106,#52,.T.);
#127=EDGE_CURVE('',#107,#103,#97,.T.);
#128=EDGE_CURVE('',#108,#106,#98,.T.);
#129=EDGE_CURVE('',#107,#108,#53,.T.);
#130=EDGE_CURVE('',#109,#107,#99,.T.);
#131=EDGE_CURVE('',#110,#108,#100,.T.);
#132=EDGE_CURVE('',#109,#110,#54,.T.);
#133=EDGE_CURVE('',#104,#109,#101,.T.);
#134=EDGE_CURVE('',#105,#110,#102,.T.);
#135=EDGE_CURVE('',#111,#112,#55,.T.);
#136=EDGE_CURVE('',#112,#113,#56,.T.);
#137=EDGE_CURVE('',#114,#113,#57,.T.);
#138=EDGE_CURVE('',#111,#114,#58,.T.);
#139=EDGE_CURVE('',#115,#111,#59,.T.);
#140=EDGE_CURVE('',#116,#114,#60,.T.);
#141=EDGE_CURVE('',#115,#116,#61,.T.);
#142=EDGE_CURVE('',#117,#115,#62,.T.);
#143=EDGE_CURVE('',#118,#116,#63,.T.);
#144=EDGE_CURVE('',#117,#118,#64,.T.);
#145=EDGE_CURVE('',#119,#117,#65,.T.);
#146=EDGE_CURVE('',#120,#118,#66,.T.);
#147=EDGE_CURVE('',#119,#120,#67,.T.);
#148=EDGE_CURVE('',#121,#119,#68,.T.);
#149=EDGE_CURVE('',#122,#120,#69,.T.);
#150=EDGE_CURVE('',#121,#122,#70,.T.);
#151=EDGE_CURVE('',#112,#121,#71,.T.);
#152=EDGE_CURVE('',#113,#122,#72,.T.);
#153=ORIENTED_EDGE('',*,*,#123,.T.);
#154=ORIENTED_EDGE('',*,*,#124,.T.);
#155=ORIENTED_EDGE('',*,*,#125,.F.);
#156=ORIENTED_EDGE('',*,*,#126,.F.);
#157=ORIENTED_EDGE('',*,*,#127,.T.);
#158=ORIENTED_EDGE('',*,*,#126,.T.);
#159=ORIENTED_EDGE('',*,*,#128,.F.);
#160=ORIENTED_EDGE('',*,*,#129,.F.);
#161=ORIENTED_EDGE('',*,*,#130,.T.);
#162=ORIENTED_EDGE('',*,*,#129,.T.);
#163=ORIENTED_EDGE('',*,*,#131,.F.);
#164=ORIENTED_EDGE('',*,*,#132,.F.);
#165=ORIENTED_EDGE('',*,*,#133,.T.);
#166=ORIENTED_EDGE('',*,*,#132,.T.);
#167=ORIENTED_EDGE('',*,*,#134,.F.);
#168=ORIENTED_EDGE('',*,*,#124,.F.);
#169=ORIENTED_EDGE('',*,*,#135,.T.);
#170=ORIENTED_EDGE('',*,*,#136,.T.);
#171=ORIENTED_EDGE('',*,*,#137,.F.);
#172=ORIENTED_EDGE('',*,*,#138,.F.);
#173=ORIENTED_EDGE('',*,*,#139,.T.);
#174=ORIENTED_EDGE('',*,*,#138,.T.);
#175=ORIENTED_EDGE('',*,*,#140,.F.);
#176=ORIENTED_EDGE('',*,*,#141,.F.);
#177=ORIENTED_EDGE('',*,*,#142,.T.);
#178=ORIENTED_EDGE('',*,*,#141,.T.);
#179=ORIENTED_EDGE('',*,*,#143,.F.);
#180=ORIENTED_EDGE('',*,*,#144,.F.);
#181=ORIENTED_EDGE('',*,*,#145,.T.);
#182=ORIENTED_EDGE('',*,*,#144,.T.);
#183=ORIENTED_EDGE('',*,*,#146,.F.);
#184=ORIENTED_EDGE('',*,*,#147,.F.);
#185=ORIENTED_EDGE('',*,*,#148,.T.);
#186=ORIENTED_EDGE('',*,*,#147,.T.);
#187=ORIENTED_EDGE('',*,*,#149,.F.);
#188=ORIENTED_EDGE('',*,*,#150,.F.);
#189=ORIENTED_EDGE('',*,*,#151,.T.);
#190=ORIENTED_EDGE('',*,*,#150,.T.);
#191=ORIENTED_EDGE('',*,*,#152,.F.);
#192=ORIENTED_EDGE('',*,*,#136,.F.);
#193=ORIENTED_EDGE('',*,*,#152,.T.);
#194=ORIENTED_EDGE('',*,*,#149,.T.);
#195=ORIENTED_EDGE('',*,*,#146,.T.);
#196=ORIENTED_EDGE('',*,*,#143,.T.);
#197=ORIENTED_EDGE('',*,*,#140,.T.);
#198=ORIENTED_EDGE('',*,*,#137,.T.);
#199=ORIENTED_EDGE('',*,*,#134,.T.);
#200=ORIENTED_EDGE('',*,*,#131,.T.);
#201=ORIENTED_EDGE('',*,*,#128,.T.);
#202=ORIENTED_EDGE('',*,*,#125,.T.);
#203=ORIENTED_EDGE('',*,*,#151,.F.);
#204=ORIENTED_EDGE('',*,*,#135,.F.);
#205=ORIENTED_EDGE('',*,*,#139,.F.);
#206=ORIENTED_EDGE('',*,*,#142,.F.);
#207=ORIENTED_EDGE('',*,*,#145,.F.);
#208=ORIENTED_EDGE('',*,*,#148,.F.);
#209=ORIENTED_EDGE('',*,*,#133,.F.);
#210=ORIENTED_EDGE('',*,*,#123,.F.);
#211=ORIENTED_EDGE('',*,*,#127,.F.);
#212=ORIENTED_EDGE('',*,*,#130,.F.);
#213=CYLINDRICAL_SURFACE('',#243,1.5875);
#214=CYLINDRICAL_SURFACE('',#246,2.52);
#215=CYLINDRICAL_SURFACE('',#249,1.5875);
#216=CYLINDRICAL_SURFACE('',#252,2.52);
#217=ADVANCED_FACE('',(#25),#213,.F.);
#218=ADVANCED_FACE('',(#26),#214,.F.);
#219=ADVANCED_FACE('',(#27),#215,.F.);
#220=ADVANCED_FACE('',(#28),#216,.F.);
#221=ADVANCED_FACE('',(#29),#17,.T.);
#222=ADVANCED_FACE('',(#30),#18,.T.);
#223=ADVANCED_FACE('',(#31),#19,.T.);
#224=ADVANCED_FACE('',(#32),#20,.T.);
#225=ADVANCED_FACE('',(#33),#21,.T.);
#226=ADVANCED_FACE('',(#34),#22,.T.);
#227=ADVANCED_FACE('',(#35,#15),#23,.T.);
#228=ADVANCED_FACE('',(#36,#16),#24,.F.);
#229=CLOSED_SHELL('',(#217,#218,#219,#220,#221,#222,#223,#224,#225,#226,
#227,#228));
#230=DERIVED_UNIT_ELEMENT(#232,1.);
#231=DERIVED_UNIT_ELEMENT(#395,-3.);
#232=(
MASS_UNIT()
NAMED_UNIT(*)
SI_UNIT(.KILO.,.GRAM.)
);
#233=DERIVED_UNIT((#230,#231));
#234=MEASURE_REPRESENTATION_ITEM('density measure',
POSITIVE_RATIO_MEASURE(1541.),#233);
#235=PROPERTY_DEFINITION_REPRESENTATION(#240,#237);
#236=PROPERTY_DEFINITION_REPRESENTATION(#241,#238);
#237=REPRESENTATION('material name',(#239),#392);
#238=REPRESENTATION('density',(#234),#392);
#239=DESCRIPTIVE_REPRESENTATION_ITEM('PET Plastic','PET Plastic');
#240=PROPERTY_DEFINITION('material property','material name',#402);
#241=PROPERTY_DEFINITION('material property','density of part',#402);
#242=AXIS2_PLACEMENT_3D('',#327,#263,#264);
#243=AXIS2_PLACEMENT_3D('',#328,#265,#266);
#244=AXIS2_PLACEMENT_3D('',#331,#267,#268);
#245=AXIS2_PLACEMENT_3D('',#335,#270,#271);
#246=AXIS2_PLACEMENT_3D('',#337,#273,#274);
#247=AXIS2_PLACEMENT_3D('',#339,#275,#276);
#248=AXIS2_PLACEMENT_3D('',#341,#277,#278);
#249=AXIS2_PLACEMENT_3D('',#343,#280,#281);
#250=AXIS2_PLACEMENT_3D('',#345,#282,#283);
#251=AXIS2_PLACEMENT_3D('',#347,#284,#285);
#252=AXIS2_PLACEMENT_3D('',#349,#287,#288);
#253=AXIS2_PLACEMENT_3D('',#350,#289,#290);
#254=AXIS2_PLACEMENT_3D('',#351,#291,#292);
#255=AXIS2_PLACEMENT_3D('',#352,#293,#294);
#256=AXIS2_PLACEMENT_3D('',#361,#299,#300);
#257=AXIS2_PLACEMENT_3D('',#367,#304,#305);
#258=AXIS2_PLACEMENT_3D('',#373,#309,#310);
#259=AXIS2_PLACEMENT_3D('',#379,#314,#315);
#260=AXIS2_PLACEMENT_3D('',#385,#319,#320);
#261=AXIS2_PLACEMENT_3D('',#388,#323,#324);
#262=AXIS2_PLACEMENT_3D('',#389,#325,#326);
#263=DIRECTION('axis',(0.,0.,1.));
#264=DIRECTION('refdir',(1.,0.,0.));
#265=DIRECTION('center_axis',(0.,0.,1.));
#266=DIRECTION('ref_axis',(-1.,1.22464679914735E-16,0.));
#267=DIRECTION('center_axis',(0.,0.,-1.));
#268=DIRECTION('ref_axis',(1.,0.,0.));
#269=DIRECTION('',(0.,0.,1.));
#270=DIRECTION('center_axis',(0.,0.,-1.));
#271=DIRECTION('ref_axis',(1.,0.,0.));
#272=DIRECTION('',(0.,0.,1.));
#273=DIRECTION('center_axis',(0.,0.,1.));
#274=DIRECTION('ref_axis',(1.,0.,0.));
#275=DIRECTION('center_axis',(0.,0.,-1.));
#276=DIRECTION('ref_axis',(1.,0.,0.));
#277=DIRECTION('center_axis',(0.,0.,-1.));
#278=DIRECTION('ref_axis',(1.,0.,0.));
#279=DIRECTION('',(0.,0.,1.));
#280=DIRECTION('center_axis',(0.,0.,1.));
#281=DIRECTION('ref_axis',(1.,0.,0.));
#282=DIRECTION('center_axis',(0.,0.,-1.));
#283=DIRECTION('ref_axis',(1.,0.,0.));
#284=DIRECTION('center_axis',(0.,0.,-1.));
#285=DIRECTION('ref_axis',(1.,0.,0.));
#286=DIRECTION('',(0.,0.,1.));
#287=DIRECTION('center_axis',(0.,0.,1.));
#288=DIRECTION('ref_axis',(1.,0.,0.));
#289=DIRECTION('center_axis',(0.,0.,-1.));
#290=DIRECTION('ref_axis',(1.,0.,0.));
#291=DIRECTION('center_axis',(0.,0.,-1.));
#292=DIRECTION('ref_axis',(1.,0.,0.));
#293=DIRECTION('center_axis',(-3.70692624916127E-16,-1.,0.));
#294=DIRECTION('ref_axis',(1.,-3.70692624916127E-16,0.));
#295=DIRECTION('',(1.,-3.70692624916127E-16,0.));
#296=DIRECTION('',(0.,0.,1.));
#297=DIRECTION('',(1.,-3.70692624916127E-16,0.));
#298=DIRECTION('',(0.,0.,1.));
#299=DIRECTION('center_axis',(-0.866025403784439,-0.5,0.));
#300=DIRECTION('ref_axis',(0.5,-0.866025403784439,0.));
#301=DIRECTION('',(0.5,-0.866025403784439,0.));
#302=DIRECTION('',(0.5,-0.866025403784439,0.));
#303=DIRECTION('',(0.,0.,1.));
#304=DIRECTION('center_axis',(-0.866025403784439,0.5,0.));
#305=DIRECTION('ref_axis',(-0.5,-0.866025403784439,0.));
#306=DIRECTION('',(-0.5,-0.866025403784439,0.));
#307=DIRECTION('',(-0.5,-0.866025403784439,0.));
#308=DIRECTION('',(0.,0.,1.));
#309=DIRECTION('center_axis',(-3.70692624916127E-16,1.,0.));
#310=DIRECTION('ref_axis',(-1.,-3.70692624916127E-16,0.));
#311=DIRECTION('',(-1.,-3.70692624916127E-16,0.));
#312=DIRECTION('',(-1.,-3.70692624916127E-16,0.));
#313=DIRECTION('',(0.,0.,1.));
#314=DIRECTION('center_axis',(0.866025403784439,0.5,0.));
#315=DIRECTION('ref_axis',(-0.5,0.866025403784438,0.));
#316=DIRECTION('',(-0.5,0.866025403784439,0.));
#317=DIRECTION('',(-0.5,0.866025403784439,0.));
#318=DIRECTION('',(0.,0.,1.));
#319=DIRECTION('center_axis',(0.866025403784439,-0.5,0.));
#320=DIRECTION('ref_axis',(0.5,0.866025403784439,0.));
#321=DIRECTION('',(0.5,0.866025403784439,0.));
#322=DIRECTION('',(0.5,0.866025403784439,0.));
#323=DIRECTION('center_axis',(0.,0.,1.));
#324=DIRECTION('ref_axis',(1.,0.,0.));
#325=DIRECTION('center_axis',(0.,0.,1.));
#326=DIRECTION('ref_axis',(1.,0.,0.));
#327=CARTESIAN_POINT('',(0.,0.,0.));
#328=CARTESIAN_POINT('Origin',(-3.68780005526283,5.55111512312578E-16,0.));
#329=CARTESIAN_POINT('',(-2.36321285541527,-0.875,0.));
#330=CARTESIAN_POINT('',(-2.36321285541527,0.875,0.));
#331=CARTESIAN_POINT('Origin',(-3.68780005526283,5.55111512312578E-16,0.));
#332=CARTESIAN_POINT('',(-2.36321285541527,0.875,5.));
#333=CARTESIAN_POINT('',(-2.36321285541527,0.875,0.));
#334=CARTESIAN_POINT('',(-2.36321285541527,-0.875,5.));
#335=CARTESIAN_POINT('Origin',(-3.68780005526283,5.55111512312578E-16,5.));
#336=CARTESIAN_POINT('',(-2.36321285541527,-0.875,0.));
#337=CARTESIAN_POINT('Origin',(0.,0.,0.));
#338=CARTESIAN_POINT('',(2.36321285541527,-0.875,0.));
#339=CARTESIAN_POINT('Origin',(0.,0.,0.));
#340=CARTESIAN_POINT('',(2.36321285541527,-0.875,5.));
#341=CARTESIAN_POINT('Origin',(0.,0.,5.));
#342=CARTESIAN_POINT('',(2.36321285541527,-0.875,0.));
#343=CARTESIAN_POINT('Origin',(3.68780005526283,0.,0.));
#344=CARTESIAN_POINT('',(2.36321285541527,0.875,0.));
#345=CARTESIAN_POINT('Origin',(3.68780005526283,0.,0.));
#346=CARTESIAN_POINT('',(2.36321285541527,0.875,5.));
#347=CARTESIAN_POINT('Origin',(3.68780005526283,0.,5.));
#348=CARTESIAN_POINT('',(2.36321285541527,0.875,0.));
#349=CARTESIAN_POINT('Origin',(0.,0.,0.));
#350=CARTESIAN_POINT('Origin',(0.,0.,0.));
#351=CARTESIAN_POINT('Origin',(0.,0.,5.));
#352=CARTESIAN_POINT('Origin',(-4.49249438753882,-7.78122853193527,0.));
#353=CARTESIAN_POINT('',(-4.49249438753882,-7.78122853193527,0.));
#354=CARTESIAN_POINT('',(4.49249438753882,-7.78122853193527,0.));
#355=CARTESIAN_POINT('',(-4.49249438753882,-7.78122853193527,0.));
#356=CARTESIAN_POINT('',(4.49249438753882,-7.78122853193527,5.));
#357=CARTESIAN_POINT('',(4.49249438753882,-7.78122853193527,0.));
#358=CARTESIAN_POINT('',(-4.49249438753882,-7.78122853193527,5.));
#359=CARTESIAN_POINT('',(-4.49249438753882,-7.78122853193527,5.));
#360=CARTESIAN_POINT('',(-4.49249438753882,-7.78122853193527,0.));
#361=CARTESIAN_POINT('Origin',(-8.98498877507765,-2.28983498828939E-15,
0.));
#362=CARTESIAN_POINT('',(-8.98498877507765,-2.28983498828939E-15,0.));
#363=CARTESIAN_POINT('',(-8.98498877507765,-2.28983498828939E-15,0.));
#364=CARTESIAN_POINT('',(-8.98498877507765,-2.22044604925031E-15,5.));
#365=CARTESIAN_POINT('',(-8.98498877507765,-2.28983498828939E-15,5.));
#366=CARTESIAN_POINT('',(-8.98498877507765,-2.28983498828939E-15,0.));
#367=CARTESIAN_POINT('Origin',(-4.49249438753883,7.78122853193527,0.));
#368=CARTESIAN_POINT('',(-4.49249438753883,7.78122853193527,0.));
#369=CARTESIAN_POINT('',(-4.49249438753883,7.78122853193527,0.));
#370=CARTESIAN_POINT('',(-4.49249438753883,7.78122853193527,5.));
#371=CARTESIAN_POINT('',(-4.49249438753883,7.78122853193527,5.));
#372=CARTESIAN_POINT('',(-4.49249438753883,7.78122853193527,0.));
#373=CARTESIAN_POINT('Origin',(4.49249438753882,7.78122853193527,0.));
#374=CARTESIAN_POINT('',(4.49249438753882,7.78122853193527,0.));
#375=CARTESIAN_POINT('',(4.49249438753882,7.78122853193527,0.));
#376=CARTESIAN_POINT('',(4.49249438753882,7.78122853193527,5.));
#377=CARTESIAN_POINT('',(4.49249438753882,7.78122853193527,5.));
#378=CARTESIAN_POINT('',(4.49249438753882,7.78122853193527,0.));
#379=CARTESIAN_POINT('Origin',(8.98498877507765,3.43475248243408E-15,0.));
#380=CARTESIAN_POINT('',(8.98498877507765,3.33066907387547E-15,0.));
#381=CARTESIAN_POINT('',(8.98498877507765,3.43475248243408E-15,0.));
#382=CARTESIAN_POINT('',(8.98498877507765,3.33066907387547E-15,5.));
#383=CARTESIAN_POINT('',(8.98498877507765,3.43475248243408E-15,5.));
#384=CARTESIAN_POINT('',(8.98498877507765,3.33066907387547E-15,0.));
#385=CARTESIAN_POINT('Origin',(4.49249438753882,-7.78122853193527,0.));
#386=CARTESIAN_POINT('',(4.49249438753882,-7.78122853193527,0.));
#387=CARTESIAN_POINT('',(4.49249438753882,-7.78122853193527,5.));
#388=CARTESIAN_POINT('Origin',(0.,0.,5.));
#389=CARTESIAN_POINT('Origin',(0.,0.,0.));
#390=UNCERTAINTY_MEASURE_WITH_UNIT(LENGTH_MEASURE(0.01),#394,
'DISTANCE_ACCURACY_VALUE',
'Maximum model space distance between geometric entities at asserted c
onnectivities');
#391=UNCERTAINTY_MEASURE_WITH_UNIT(LENGTH_MEASURE(0.01),#394,
'DISTANCE_ACCURACY_VALUE',
'Maximum model space distance between geometric entities at asserted c
onnectivities');
#392=(
GEOMETRIC_REPRESENTATION_CONTEXT(3)
GLOBAL_UNCERTAINTY_ASSIGNED_CONTEXT((#390))
GLOBAL_UNIT_ASSIGNED_CONTEXT((#394,#396,#397))
REPRESENTATION_CONTEXT('','3D')
);
#393=(
GEOMETRIC_REPRESENTATION_CONTEXT(3)
GLOBAL_UNCERTAINTY_ASSIGNED_CONTEXT((#391))
GLOBAL_UNIT_ASSIGNED_CONTEXT((#394,#396,#397))
REPRESENTATION_CONTEXT('','3D')
);
#394=(
LENGTH_UNIT()
NAMED_UNIT(*)
SI_UNIT(.MILLI.,.METRE.)
);
#395=(
LENGTH_UNIT()
NAMED_UNIT(*)
SI_UNIT($,.METRE.)
);
#396=(
NAMED_UNIT(*)
PLANE_ANGLE_UNIT()
SI_UNIT($,.RADIAN.)
);
#397=(
NAMED_UNIT(*)
SI_UNIT($,.STERADIAN.)
SOLID_ANGLE_UNIT()
);
#398=SHAPE_DEFINITION_REPRESENTATION(#399,#400);
#399=PRODUCT_DEFINITION_SHAPE('',$,#402);
#400=SHAPE_REPRESENTATION('',(#242),#392);
#401=PRODUCT_DEFINITION_CONTEXT('part definition',#406,'design');
#402=PRODUCT_DEFINITION('Screwdriver reinforcement',
'Screwdriver reinforcement v3',#403,#401);
#403=PRODUCT_DEFINITION_FORMATION('',$,#408);
#404=PRODUCT_RELATED_PRODUCT_CATEGORY('Screwdriver reinforcement v3',
'Screwdriver reinforcement v3',(#408));
#405=APPLICATION_PROTOCOL_DEFINITION('international standard',
'automotive_design',2009,#406);
#406=APPLICATION_CONTEXT(
'Core Data for Automotive Mechanical Design Process');
#407=PRODUCT_CONTEXT('part definition',#406,'mechanical');
#408=PRODUCT('Screwdriver reinforcement','Screwdriver reinforcement v3',
$,(#407));
#409=PRESENTATION_STYLE_ASSIGNMENT((#410));
#410=SURFACE_STYLE_USAGE(.BOTH.,#411);
#411=SURFACE_SIDE_STYLE('',(#412));
#412=SURFACE_STYLE_FILL_AREA(#413);
#413=FILL_AREA_STYLE('Polycarbonate (Clear)',(#414));
#414=FILL_AREA_STYLE_COLOUR('Polycarbonate (Clear)',#415);
#415=COLOUR_RGB('Polycarbonate (Clear)',0.964705882352941,0.964705882352941,
0.952941176470588);
ENDSEC;
END-ISO-10303-21;
