<svg xmlns="http://www.w3.org/2000/svg" height="180.15" viewBox="0 0 200 180.15251" width="200"><g transform="matrix(1.25 0 0 -1.25 -363.2 875.25)"><g transform="matrix(2.6143 0 0 2.6143 -596.12 -1011.9)"><path d="m13.199 0v12.176h5.6973v1.541h-18.896v12.176h4.1191v16.359h-4.1191v12.176h18.896v1.5391h-5.6973v12.178h23.537v-12.178h-5.666v-1.5391h12.193l7.0586 13.717h10.639v-13.717h6.9805l7.7949-7.7949v-25.146l-7.7969-7.7695h-6.9785v-1.541h5.6816v-12.176h-23.553v12.176h5.6973v1.541h-12.189l-7.06-13.718h-16.34zm3.0977 25.893h2.5996v16.359h-2.5996v-16.359zm26.566 0h5.9238v11.512l-5.9238-11.512zm18.098 0h1.957l0.62695 0.63281v15.068l-0.65039 0.6582h-1.9336v-16.359zm-29.891 4.8438 5.9277 11.516h-5.9277v-11.516z" transform="matrix(.8 0 0 -.8 339.46 654.6)" fill="#c99700"/><path d="m14.748 1.5488v9.0781h5.6953v4.6387h-18.895v9.0801h4.1191v19.453h-4.1191v9.0801h18.895v4.6387h-5.6953v9.0781h20.439v-9.0781h-5.6641v-4.6387h14.686l7.0586 13.717h8.1465v-13.717h7.8867l6.8867-6.8867v-23.863l-6.8867-6.8633h-7.8867v-4.6387h5.6797v-9.0781h-20.455v9.0781h5.6973v4.6387h-14.684l-7.0566-13.717h-13.848zm0 22.797h5.6953v19.453h-5.6953v-19.453zm14.775 0 10.014 19.453h-10.014v-19.453zm10.801 0h10.012v19.453l-10.012-19.453zm19.09 0h4.1504l1.5293 1.543v16.344l-1.5527 1.5664h-4.127v-19.453z" transform="matrix(.8 0 0 -.8 339.46 654.6)" fill="#0c2340"/></g></g></svg>