<svg id="svg"
     version="1.1"
     xmlns="http://www.w3.org/2000/svg"
     xmlns:xlink="http://www.w3.org/1999/xlink"
     width="400"
     height="400"
     viewBox="0, 0, 400,400">
	<g id="svgg">
		<path id="path0"
		      d="M185.330 8.375 C 185.328 8.490,185.250 9.108,185.156 9.750 C 184.977 10.972,184.743 12.691,184.168 17.000 C 182.495 29.537,180.547 36.377,176.121 45.250 C 171.033 55.448,167.535 59.650,147.811 79.250 C 127.942 98.994,127.576 99.399,117.392 112.917 C 110.565 121.980,104.440 136.916,102.594 149.000 C 101.694 154.892,101.389 169.150,102.048 174.500 C 103.881 189.382,105.765 197.672,109.414 206.917 C 111.613 212.488,116.578 220.591,122.861 228.867 C 127.821 235.398,136.602 241.683,151.917 249.663 C 169.993 259.082,177.223 265.851,182.056 277.877 C 182.832 279.811,182.656 279.642,180.466 276.361 C 177.546 271.987,176.853 271.148,172.935 267.249 C 169.305 263.637,166.162 260.855,164.234 259.546 C 161.223 257.503,154.848 254.325,150.419 252.659 C 147.774 251.664,144.624 250.334,135.166 246.219 C 115.502 237.661,104.401 225.285,96.250 202.833 C 89.286 183.652,87.532 170.979,86.757 134.250 C 86.705 131.775,86.618 128.906,86.565 127.875 L 86.467 126.000 85.210 126.000 L 83.952 126.000 84.075 130.958 C 84.255 138.247,84.212 164.075,83.988 182.583 C 83.752 202.097,83.860 223.087,84.230 229.750 C 85.289 248.840,85.169 247.766,87.737 261.076 C 89.230 268.814,89.979 271.164,93.717 279.833 C 97.374 288.316,99.172 291.095,106.007 298.833 C 109.785 303.111,111.513 304.576,116.250 307.525 C 126.380 313.831,133.709 316.405,149.634 319.248 C 161.641 321.392,170.337 326.144,175.411 333.333 C 182.076 342.777,184.988 352.422,186.833 371.167 C 187.117 374.054,187.502 377.804,187.689 379.500 C 188.170 383.872,188.310 386.018,188.323 389.208 L 188.333 392.000 189.391 392.000 L 190.448 392.000 190.562 381.042 C 190.625 375.015,190.753 363.333,190.847 355.083 C 191.202 324.002,191.099 318.732,189.911 307.583 C 188.058 290.186,183.736 275.779,177.611 266.583 C 173.348 260.183,169.845 257.076,156.750 248.079 C 137.629 234.942,129.674 224.117,128.174 209.191 C 126.873 196.249,134.614 181.449,149.417 168.577 C 167.402 152.938,172.055 148.023,176.857 139.590 L 178.000 137.583 149.268 137.500 L 120.536 137.417 128.241 126.417 L 135.945 115.417 160.722 115.374 C 174.350 115.351,185.500 115.294,185.500 115.248 C 185.500 115.201,185.611 114.470,185.747 113.623 C 186.461 109.184,187.158 102.802,187.762 95.181 C 187.823 94.409,187.817 74.515,187.748 50.972 L 187.624 8.167 186.479 8.167 C 185.675 8.167,185.332 8.229,185.330 8.375 "
		      stroke="none"
		      fill="#fb340c"
		      fill-rule="evenodd"/>
		<path id="path1"
		      d="M218.208 29.792 L 207.167 37.521 207.167 76.427 L 207.167 115.333 171.556 115.375 L 135.945 115.417 128.241 126.417 L 120.536 137.417 163.851 137.459 L 207.166 137.501 207.208 257.472 L 207.250 377.444 218.292 369.713 L 229.333 361.982 229.333 249.741 L 229.333 137.501 264.935 137.459 L 300.536 137.417 303.905 132.667 C 305.759 130.054,309.271 125.104,311.712 121.667 L 316.149 115.417 272.741 115.375 L 229.334 115.333 229.292 68.698 L 229.250 22.063 218.208 29.792 "
		      stroke="none"
		      fill="#040404"
		      fill-rule="evenodd"/>
		<path id="path2"
		      d="M0.000 200.000 L 0.000 400.000 200.000 400.000 L 400.000 400.000 400.000 200.000 L 400.000 0.000 200.000 0.000 L 0.000 0.000 0.000 200.000 M187.748 50.972 C 187.817 74.515,187.823 94.409,187.762 95.181 C 187.158 102.802,186.461 109.184,185.747 113.623 C 185.611 114.470,185.500 115.201,185.500 115.248 C 185.500 115.295,190.375 115.333,196.333 115.333 L 207.166 115.333 207.208 76.395 L 207.250 37.456 218.250 29.753 L 229.250 22.050 229.292 68.691 L 229.334 115.333 272.762 115.375 L 316.191 115.417 315.709 116.083 C 315.443 116.450,313.363 119.375,311.086 122.583 C 308.808 125.792,305.491 130.460,303.715 132.958 L 300.484 137.500 264.909 137.500 L 229.334 137.500 229.292 249.782 L 229.250 362.063 218.250 369.763 L 207.250 377.463 207.167 257.523 L 207.083 137.583 192.563 137.541 L 178.043 137.498 176.883 139.541 C 172.081 147.998,167.431 152.914,149.417 168.577 C 130.620 184.922,123.891 203.162,130.604 219.570 C 135.065 230.473,141.777 237.792,156.750 248.079 C 169.845 257.076,173.348 260.183,177.611 266.583 C 183.736 275.779,188.058 290.186,189.911 307.583 C 191.099 318.732,191.202 324.002,190.847 355.083 C 190.753 363.333,190.625 375.015,190.562 381.042 L 190.448 392.000 189.391 392.000 L 188.333 392.000 188.323 389.208 C 188.310 386.018,188.170 383.872,187.689 379.500 C 187.502 377.804,187.117 374.054,186.833 371.167 C 185.385 356.452,182.900 346.038,179.336 339.743 C 174.834 331.792,172.863 329.468,167.752 326.080 C 162.389 322.526,157.351 320.626,149.634 319.248 C 133.709 316.405,126.380 313.831,116.250 307.525 C 111.513 304.576,109.785 303.111,106.007 298.833 C 99.172 291.095,97.374 288.316,93.717 279.833 C 89.979 271.164,89.230 268.814,87.737 261.076 C 85.169 247.766,85.289 248.840,84.230 229.750 C 83.860 223.087,83.752 202.097,83.988 182.583 C 84.212 164.075,84.255 138.247,84.075 130.958 L 83.952 126.000 85.210 126.000 L 86.467 126.000 86.565 127.875 C 86.618 128.906,86.705 131.775,86.757 134.250 C 87.468 167.940,89.084 181.410,94.320 197.291 C 103.090 223.893,114.061 237.034,135.166 246.219 C 144.624 250.334,147.774 251.664,150.419 252.659 C 154.848 254.325,161.223 257.503,164.234 259.546 C 166.162 260.855,169.305 263.637,172.935 267.249 C 176.853 271.148,177.546 271.987,180.466 276.361 C 182.656 279.642,182.832 279.811,182.056 277.877 C 177.988 267.754,171.538 260.844,159.583 253.803 C 158.369 253.088,155.071 251.307,151.917 249.663 C 136.602 241.683,127.821 235.398,122.861 228.867 C 116.578 220.591,111.613 212.488,109.414 206.917 C 105.765 197.672,103.881 189.382,102.048 174.500 C 101.389 169.150,101.694 154.892,102.594 149.000 C 104.440 136.916,110.565 121.980,117.392 112.917 C 127.576 99.399,127.942 98.994,147.811 79.250 C 167.535 59.650,171.033 55.448,176.121 45.250 C 180.547 36.377,182.495 29.537,184.168 17.000 C 184.743 12.691,184.977 10.972,185.156 9.750 C 185.250 9.108,185.328 8.490,185.330 8.375 C 185.332 8.229,185.675 8.167,186.479 8.167 L 187.624 8.167 187.748 50.972 "
		      stroke="none"
		      fill="#fbfbfb"
		      fill-rule="evenodd"/>
	</g>
</svg>