<?xml version="1.0" encoding="utf-8"?><!-- Uploaded to: SVG Repo, www.svgrepo.com, Generator: SVG Repo Mixer Tools -->
<svg width="800px" height="800px" viewBox="0 0 24 24" fill="none" xmlns="http://www.w3.org/2000/svg">
<path d="M10.4211 9C10.4211 8.44772 9.97334 8 9.42105 8H6.21053C3.88512 8 2 9.79086 2 12C2 14.2091 3.88512 16 6.21053 16H9.42105C9.97334 16 10.4211 15.5523 10.4211 15C10.4211 14.4477 9.97334 14 9.42105 14H6.21053C5.04782 14 4.10526 13.1046 4.10526 12C4.10526 10.8954 5.04782 10 6.21053 10H9.42105C9.97334 10 10.4211 9.55228 10.4211 9Z" fill="#000000"/>
<path d="M13.5789 15C13.5789 14.4477 14.0267 14 14.5789 14H17.7895C18.9522 14 19.8947 13.1046 19.8947 12C19.8947 10.8954 18.9522 10 17.7895 10H14.5789C14.0267 10 13.5789 9.55228 13.5789 9C13.5789 8.44772 14.0267 8 14.5789 8H17.7895C20.1149 8 22 9.79086 22 12C22 14.2091 20.1149 16 17.7895 16H14.5789C14.0267 16 13.5789 15.5523 13.5789 15Z" fill="#000000"/>
<path d="M15 12L9 12" stroke="#000000" stroke-width="2" stroke-linecap="round"/>
</svg>