<svg xmlns="http://www.w3.org/2000/svg" width="400" height="321.693"><g fill-rule="evenodd"><path d="M203.583 6.611c-3.441.749-6.083 2.001-6.083 2.882 0 .081-.281.24-.625.353-.745.244-3.338 2.785-4.198 4.112-.311.482-.629.875-.705.875-.076 0-.139.1-.139.221 0 .122-.187.397-.416.613-.229.215-.417.487-.417.604 0 .117-.094.272-.208.346-.195.124-1.065 1.8-.936 1.8.033 0-.109.236-.315.525-.206.29-.374.641-.374.782 0 .141-.061.294-.135.34-.15.092-1.517 2.804-2.446 4.853a981.576 981.576 0 0 1-1.595 3.5c-1.235 2.691-1.518 3.333-1.474 3.333.028 0-.111.3-.309.667-.601 1.113-1.708 3.563-1.712 3.788-.002.116-.15.399-.329.628-.18.23-.328.519-.33.644-.002.125-.142.5-.31.834-.623 1.232-1.303 2.788-1.94 4.439-.248.642-.706 1.806-1.019 2.587-.312.781-.568 1.535-.568 1.675 0 .14-.066.326-.146.413-.146.158-.989 2.405-1.105 2.944a6.02 6.02 0 0 1-.295.833c-.341.801-.787 2.074-1.124 3.215-.162.55-.39 1.262-.505 1.583l-.45 1.25c-.133.367-.27.81-.304.986-.077.395-.499 1.74-.893 2.847a62.66 62.66 0 0 0-.68 2.084 76.203 76.203 0 0 1-.672 2.083 66.738 66.738 0 0 0-.663 2.083c-.207.688-.508 1.663-.67 2.167a58.701 58.701 0 0 0-.571 1.917c-.153.55-.41 1.412-.572 1.916a106.61 106.61 0 0 0-.59 1.917c-.162.55-.444 1.441-.628 1.981-.183.539-.357 1.139-.387 1.333-.03.194-.179.69-.332 1.103-.153.412-.529 1.725-.836 2.916-.307 1.192-.72 2.767-.919 3.5a39.423 39.423 0 0 0-.44 1.75c-.044.23-.214.867-.377 1.417-.289.975-.676 2.296-1.365 4.667l-.656 2.25-.632 2.166c-.524 1.8-1.274 4.775-1.765 7a56.936 56.936 0 0 1-.599 2.417c-.178.642-.358 1.519-.401 1.95-.085.856-.859 3.276-1.527 4.77-.233.521-.452 1.087-.487 1.259-.036.172-.18.488-.32.703-.141.214-.256.503-.256.641s-.145.572-.322.964c-.995 2.201-1.076 2.433-1.987 5.713-.876 3.155-1.501 5.237-1.85 6.167-.172.458-.446 1.32-.609 1.916a17.657 17.657 0 0 1-.613 1.834c-.174.412-.341.9-.37 1.083-.03.183-.324 1.158-.654 2.167a149.422 149.422 0 0 0-.951 3 34.647 34.647 0 0 1-.664 1.98c-.172.448-.313.903-.313 1.011 0 .108-.153.513-.34.9-.187.387-.385 1.187-.441 1.778-.079.854-.164 1.094-.415 1.173-.245.078-.308.239-.279.72.025.428-.083.78-.352 1.143-.324.438-.37.651-.284 1.285.058.418.046.76-.025.76-.415 0-1.56 1.362-1.464 1.743.056.221.026.449-.066.506-.092.057-.167.258-.167.447 0 .188-.256.691-.568 1.116-.412.561-.564.937-.551 1.367.01.362-.141.849-.387 1.246-.221.359-.416.745-.433.857-.017.113-.182.418-.367.678-.499.702-.477 2.633.033 2.904.858.458.972 1.013.266 1.305-1.333.552-1.405 2.593-.108 3.054.166.059.259.179.205.265-.054.087.032.23.191.319.164.092.291.365.295.635.011.728.759.746 1.639.038.51-.409.645-.464.543-.221-.425 1.02-.042 1.501.646.812.144-.144.262-.181.262-.083 0 .098.188.178.417.178.287 0 .417-.091.417-.293 0-.571.583-.733 1.01-.279.447.476.61.499 1.008.139.386-.349.648-.168.648.448 0 .289.106.536.252.593.312.119.747-.221.751-.586.005-.554.288-.802.582-.509.285.285-.238 1.595-.71 1.776-.277.107-.255.552.047.952.374.494.296 1.189-.269 2.371-.568 1.191-.543 1.637.087 1.516.418-.08.586.197.591.976.003.448.637 1.896.83 1.896.328 0 .673-.216.673-.422 0-.121.187-.368.416-.548.661-.52.58-1.367-.191-1.985-.486-.39-.575-.545-.446-.776.143-.256.249-.204.908.445.612.604.811.711 1.112.6.216-.08.367-.071.367.022 0 .087.188.205.417.263.229.057.417.16.417.227 0 .068.163.196.363.286l.363.162-.39.39c-.332.332-.364.457-.216.849.112.296.116.517.013.621-.089.089-.136.339-.106.555.084.593.883.637 1.326.073.186-.235.482-.428.659-.428.241 0 .373-.189.522-.745.109-.41.297-.783.418-.829.159-.061.19.028.114.33-.199.796.714 1.258 1.139.577.32-.513.937-.447.834.089a.875.875 0 0 0 .197.73c.153.168.322.578.376.91.114.701 1.095.929 1.295.301.153-.484 1.039-1.077 1.155-.774.293.764 2.27.075 2.271-.792.001-.118.225-.477.5-.797.275-.321.499-.631.5-.689.002-.685 1.146-.072 1.417.76.353 1.086 1.542.513 2.623-1.264.392-.644.859-.216 1.016.93.136.992.202 1.096.704 1.096.302 0 .407.09.407.349 0 .192.148.558.329.812.181.254.406.665.5.913.575 1.512 1.039-.481.491-2.11-.434-1.293-.414-1.351.303-.865.733.498 1.36.449 2.523-.195.773-.428 1.187-.511 1.187-.237 0 .091-.107.166-.239.166-.267 0-.505.573-.345.832.179.29.515.187 1.264-.389.718-.551.729-.553.997-.222.588.726.848.266.81-1.428-.026-1.105.089-2.181.402-3.793.241-1.237.438-2.587.438-3-.002-1.518.53-7.476.841-9.416.311-1.942.442-3.584.861-10.765l.2-3.432.511-.314c.28-.173.557-.338.615-.368.058-.029.155.213.216.538.122.649.736 1.091 1.516 1.091.24 0 .553.116.695.258.471.471.805.225.769-.567-.041-.885-.497-1.692-1.143-2.023a20.78 20.78 0 0 1-.561-.294c-.219-.131.428-.864.801-.907.356-.041.439-.142.455-.551.026-.697.21-1.421.491-1.942.132-.243.239-.619.239-.835 0-.216.143-.481.317-.59.383-.24.668-3.315.377-4.068-.128-.332-.11-.493.074-.678.184-.183.266-.923.343-3.064.056-1.553.167-2.906.247-3.008.079-.102.223-1.752.319-3.667.095-1.914.283-4.756.417-6.314.133-1.559.242-3.266.241-3.795-.001-.943.007-.96.416-.857.23.058.678.056.995-.003l.576-.108-.101-1.309c-.095-1.235-.081-1.314.257-1.421 1.688-.536 1.963-3.367.307-3.163-1.235.152-1.839-1.08-.618-1.261.52-.077.58-.138.55-.561-.025-.345.1-.586.458-.888.271-.228.492-.511.492-.629s.112-.308.25-.422c.137-.114.25-.33.25-.479 0-.223.152-.26.849-.212.478.033.93-.022 1.034-.125.101-.101.433-.184.737-.184.429 0 .597-.094.744-.417.201-.441.383-.524.553-.25.138.225 1.183.212 1.636-.019.788-.403 1.315-1.647.697-1.647-.138 0-.25-.078-.25-.173 0-.094-.263-.327-.583-.516-.321-.189-.584-.455-.584-.591 0-.135-.228-.474-.507-.753l-.507-.507.478.07c.796.117 1.207-.672.536-1.03-.341-.183-.436-.747-.19-1.135.111-.174.253-.152.706.108.92.528 1.304.59 1.66.269.259-.234.365-.249.569-.08.138.115.365.165.503.112.361-.139.311-.894-.081-1.23-.183-.157-.333-.364-.333-.461 0-.237-.615-.75-.9-.75-.309 0-.824-.787-.57-.871.222-.074.226-1.134.005-1.279-.309-.202-.54-.855-.442-1.245.055-.221-.005-.617-.133-.879s-.223-.889-.21-1.393l.022-.916.739-.084c.703-.079.737-.107.698-.583-.076-.944-.023-1.992.104-2.079.07-.048.174-.215.232-.37.057-.155.353-.329.658-.387a1.15 1.15 0 0 0 .834-.592c.36-.628.537-.616.811.053.123.298.357.687.52.865.378.409.374.528-.035 1.048-.428.544-.42.921.036 1.773.667 1.245.951 1.471 1.692 1.345l.654-.11-.107.666c-.1.629.168 1.206.436.938.6-.6.95.769.366 1.433-.215.245-.244.324-.244.671 0 .093-.18.252-.401.353-.611.278-2.099 2.795-2.099 3.55 0 .118-.231.724-.514 1.349-1.068 2.354-1.476 5.16-1.312 9.026.138 3.246.279 3.878 1.209 5.403.202.331.589.969.859 1.417.271.448.627.936.792 1.084.165.148.3.316.3.373 0 .057.119.243.265.413.302.354 1.062 2.145.954 2.253-.187.188 2.63 2.775 3.023 2.775.131 0 .281.07.334.156.628 1.016 5.583 1.504 5.591.55.002-.233 2.429-1.539 2.861-1.539.338 0 1.637-.761 1.64-.961.001-.067.301-.266.667-.441.419-.201.665-.432.665-.625 0-.319.291-.381.958-.202.465.125.487.397.042.514-.8.209-.123 1.128.916 1.243.54.059.782.404.567.805-.074.138-.207.662-.294 1.167-.25 1.433-.357 1.858-.563 2.234-.105.192-.21.815-.235 1.385-.024.569-.161 1.263-.305 1.542-.709 1.37-1.182 5.005-.652 5.005.128 0 .232.115.232.256 0 .14.107.296.236.345.13.05.433.388.673.751.241.363.509.616.598.561.37-.229-.062 1.494-.716 2.854-.484 1.007-.487 1.03-.307 2.5.261 2.126.227 3.479-.135 5.433-.176.944-.48 3.179-.678 4.967-.508 4.597-1.35 8.203-2.088 8.942-.137.136-.249.528-.249.87 0 .342-.077.698-.171.792-.192.192-.684 3.226-.557 3.431.215.348.728.118.73-.327.004-.747.185-1.208.475-1.208.57-.001 1.225-.786 1.314-1.575.073-.651.427-1.274.61-1.074.21.23.277 4.948.073 5.163-.757.796-1.304 1.889-1.01 2.014.671.284.882 1.119.72 2.84-.299 3.165-.196 7.804.184 8.344.296.419.315.632.206 2.308l-.119 1.847-1.062 1.067c-.658.661-1.203 1.069-1.435 1.074-.206.004-.525.198-.708.432-.184.233-.45.548-.591.7-.446.478-1.735 2.077-1.909 2.367-.499.832-1.023 1.489-1.188 1.491-.244.003-1.562 1.709-1.562 2.021 0 .383-1.411 1.814-1.789 1.814-.358 0-.545.296-.545.861 0 .183-.249.646-.554 1.028-.305.382-.768 1.145-1.03 1.695-.261.55-.618 1.102-.792 1.227-.224.16-.288.344-.217.626.055.219-.051.992-.237 1.717-.185.725-.336 1.532-.336 1.792 0 .261-.169.664-.375.895a462.841 462.841 0 0 1-3.785 4.174c-.141.145-.52.58-.84.967-.321.387-.744.882-.94 1.1-.196.217-.603.738-.903 1.157-.301.419-.609.761-.686.761-.076 0-.138.067-.138.149 0 .082-.237.401-.527.709-.289.307-1.202 1.346-2.027 2.309-.826.963-1.546 1.787-1.601 1.833-.055.046-.699.792-1.431 1.657-.732.865-1.499 1.75-1.706 1.966-.206.216-.375.445-.375.51 0 .064-.26.417-.578.784-.318.367-.636.744-.708.839a90.997 90.997 0 0 1-2.204 2.601c-.623.655-2.843 3.583-2.843 3.749 0 .048-.435.625-.967 1.282-.532.658-1.146 1.458-1.364 1.779a9.382 9.382 0 0 1-.626.833 21.73 21.73 0 0 0-.899 1.167 48.611 48.611 0 0 1-.948 1.263 8.734 8.734 0 0 0-.446.607c-.325.509-1.838 2.517-2.125 2.821-.16.17-.292.384-.292.476 0 .091-.056.167-.125.167-.068.001-.312.278-.541.616-.229.338-.642.893-.917 1.234-.275.341-.687.864-.917 1.164-.229.299-.51.638-.625.753-.114.115-.208.272-.208.35 0 .078-.131.265-.292.417-.45.425-.708.769-.708.944 0 .088-.057.185-.126.216-.069.03-.531.58-1.025 1.222-.495.642-1.02 1.28-1.166 1.419-.147.139-.641.701-1.1 1.249-1.187 1.42-2.347 2.581-6.5 6.512-3.834 3.63-5.961 5.668-7.597 7.278-.536.527-1.002.959-1.036.959-.07 0-1.284 1.036-1.9 1.621-.215.204-.445.372-.512.373-.067.001-.393.266-.724.587-.332.322-.681.585-.777.585-.163 0-.87 1.279-.87 1.575 0 .075-.375.506-.834.957-.458.451-.833.781-.833.734 0-.127-2.166 2.072-2.171 2.205-.009.213-1.291 1.558-1.685 1.767-.217.116-.67.368-1.007.56-.337.193-1.05.43-1.584.528-.533.098-1.382.289-1.886.424-.505.136-1.227.247-1.607.248-.654.002-.739.064-1.662 1.206a61.577 61.577 0 0 1-1.276 1.542c-.509.566-.699.795-1.624 1.963-.49.618-.953 1.125-1.028 1.125-.075 0-.137.094-.137.209 0 .484-2.614 2.456-3.258 2.457-.188 0-.413.066-.5.147-.087.08-.571.277-1.075.437-.504.16-.988.356-1.075.437-.087.08-.291.146-.454.146-.462 0-3.501 1.385-4.221 1.923-1.173.878-3.422 1.91-4.16 1.91-.413 0-.757.086-.795.197-.073.22-1.434-.085-2.045-.459-.241-.147-2.113-.226-6.767-.284l-6.433-.08-1.65.57c-.907.313-1.837.634-2.067.712a7.617 7.617 0 0 0-.898.397c-.264.141-1.052.308-1.75.37-.697.063-1.672.217-2.165.342-.943.24-1.187.202-1.187-.188 0-.357-.774-.487-1.209-.202-.285.185-.593.213-1.291.113-1.52-.216-3.047-.171-3.407.101-.177.135-.428.245-.557.245-.129 0-.44.146-.691.325-.47.335-3.619.396-4.395.086-.165-.066-.722-.036-1.236.067-.515.104-1.172.188-1.461.188-.353 0-.818.219-1.415.664-.49.365-1.028.708-1.197.761-.239.076-.307.266-.307.852 0 .616-.062.771-.335.842-.42.11-.456.3-.57 2.974-.098 2.293-.029 2.574.634 2.574.326 0 .326.003-.005.375a1.165 1.165 0 0 0-.289.839c.039.393-.028.48-.431.56-1.153.231-1.353.732-1.508 3.791-.139 2.721-.102 3.135.378 4.241.374.863 3.523 2.132 6.709 2.704.367.066 1.079.207 1.583.314.504.106 1.276.225 1.714.265.438.039 1.237.185 1.774.324.537.14 1.177.254 1.422.254.244 0 1.133.147 1.976.327 1.87.4 4.744.876 5.198.86.183-.006 1.233.147 2.333.34 1.1.194 2.525.404 3.167.467.641.064 1.841.239 2.666.389 2.326.423 5.147.8 7.246.968 1.052.085 2.365.227 2.917.316 3.084.5 14.891.605 19.587.175.871-.08 2.784-.23 4.25-.335 1.467-.104 3.829-.308 5.25-.453 1.421-.145 3.296-.323 4.167-.395.871-.073 2.387-.226 3.369-.341 1.42-.166 2.189-.167 3.75-.005 4.222.438 7.341.587 12.464.595 7.002.011 16.378-.327 17.584-.634.504-.128 1.666-.283 2.583-.343.917-.061 2.079-.213 2.583-.338a19.315 19.315 0 0 1 1.75-.34c.459-.062 1-.219 1.203-.35.203-.13.519-.237.702-.237.183 0 .714-.15 1.179-.333.465-.183 1.031-.333 1.258-.333.226 0 .743-.156 1.148-.346.405-.19.872-.329 1.04-.308.311.039.747-.085 1.26-.358.159-.085.478-.155.708-.155.23 0 .419-.068.419-.15 0-.201.932-.517 1.525-.517.261 0 .475-.075.475-.166 0-.092.146-.167.323-.167.178 0 .37-.075.427-.167.057-.091.324-.166.593-.166.27 0 .49-.075.49-.167 0-.092.182-.167.403-.167.222 0 .428-.073.458-.163.031-.091.281-.193.556-.229a4.089 4.089 0 0 0 1.456-.453c.159-.085.437-.155.617-.155.31 0 .807-.165 1.619-.54.197-.091.46-.13.583-.088.124.042.45.007.725-.079.779-.244 1.779-.472 2.399-.547a23.272 23.272 0 0 0 1.667-.312 79.334 79.334 0 0 1 2.017-.416c1.566-.296 3.576-.767 3.753-.881.093-.059.655-.196 1.25-.303.594-.108 1.166-.267 1.27-.353.124-.102.222-.069.286.098.133.346.787.32 1.645-.065 1.25-.562 2.435-1.014 2.656-1.014.117 0 1.041-.405 2.052-.901 2.089-1.025 3.153-1.5 3.755-1.679.229-.068.755-.404 1.168-.747l.751-.624 3.415-.12c2.406-.085 3.559-.191 3.9-.358.266-.131.655-.237.865-.237.21 0 .426-.073.482-.163.055-.089.356-.283.669-.432a3.832 3.832 0 0 0 1.687-1.635c.4-.762.528-4.055.184-4.744-.23-.462-.227-.53.035-.767.589-.533.844-.336.844.653v.912l.875.238c1.558.423 5.747.811 7.042.652 1.436-.177 2.416.013 2.416.469 0 .354.968 1.383 2.011 2.139.757.548 1.925.925 3.323 1.072.504.053 1.404.172 2 .265 1.705.265 5.254.23 6.5-.065.595-.141 1.424-.257 1.841-.259.417-.001.83-.064.917-.141.087-.076.496-.233.908-.349.413-.117.863-.308 1-.425.138-.118.438-.269.667-.336 1.119-.329 1.47-1.22.667-1.694-.457-.27-.5-.373-.5-1.191 0-.891-.639-2.185-1.084-2.197-.091-.002-.423-.244-.737-.538-.806-.756-1.596-1.266-2.201-1.423-.426-.111-.585-.294-.875-1.005-.194-.478-.447-.869-.562-.87-.136 0-.208-.265-.208-.772 0-.8-.825-1.894-1.429-1.894-.131 0-.238-.07-.238-.156 0-.217-.564-.373-.892-.247-.15.057-.231.171-.18.253.051.083-.025.15-.168.15-.416 0-.1-1.32.461-1.928.568-.616 1.504-2.014 1.521-2.273.005-.065.128-.215.274-.334.307-.249.984-1.798.984-2.251 0-.169.122-.48.27-.692.432-.616.223-1.708-.505-2.643-.769-.987-.858-1.357-.607-2.522.344-1.604.543-2.026 1.003-2.139.958-.236 1.839-1.194 1.839-2 0-.437.103-.845.25-.992.138-.138.25-.192.25-.12 0 .384 1.29-1.372 1.48-2.015.197-.666.28-.758.692-.758.443 0 1.768-.588 2.344-1.041.261-.205.549-.926.732-1.834.067-.337.191-.458.464-.456.543.004 2.446-1.005 2.993-1.586.259-.275.582-.618.717-.764.135-.145.245-.348.245-.45 0-.443.413-1.028.855-1.211.263-.109.478-.261.478-.337 0-.077.3-.568.667-1.091.367-.524.667-1.035.667-1.137 0-.102.126-.366.281-.587.155-.221.306-.669.337-.996.053-.569 1.272-1.931 1.566-1.749.122.075 1.649-1.334 1.649-1.522 0-.504.641-1.46 1.112-1.657.483-.202 1.272-1.315 1.298-1.832.004-.092.27-.173.591-.181 1.139-.028 2.518-1.122 2.863-2.271.104-.347.25-.631.324-.631.075 0 .569-.199 1.099-.442.53-.242 1.094-.467 1.253-.498.367-.073.96-.657.96-.946 0-.322.635-.947.965-.95.308-.002.915-.434 1.806-1.284.511-.487.563-.624.565-1.5l.003-.964.835-.395c.991-.468 1.6-1.369 1.77-2.618.061-.451.278-1.12.482-1.487.203-.366.461-.97.572-1.341.134-.448.392-.805.768-1.063.312-.214.567-.492.567-.619s.087-.37.193-.54c.141-.225.148-.591.028-1.337l-.165-1.027.547-.26c.76-.36 1.283-1.905 1.207-3.563l-.054-1.159.763-.796c1.145-1.193 1.484-2.007 1.549-3.711.033-.857.157-1.301.594-2.122l.552-1.037-.209-1.296c-.115-.712-.352-1.497-.528-1.744l-.319-.449.525-.853c.43-.698.509-.973.437-1.51-.065-.481-.028-.656.136-.656.754 0 1.964-2.021 1.873-3.127-.069-.825-.042-.91.357-1.124 1.236-.664 2.014-2.135 2.014-3.808 0-1.025.017-1.065.66-1.582 1.069-.859 1.408-1.784 1.428-3.897l.016-1.788.589-.589c.397-.397.692-.928.904-1.628a5.864 5.864 0 0 1 1.032-1.92c.804-.987 1.075-1.572 1.016-2.196-.028-.304.155-.621.642-1.116.374-.38.729-.844.788-1.03.061-.195.311-.383.586-.444 1.01-.222 1.97-1.671 2.129-3.212.099-.963.283-1.261 2.205-3.575.134-.162.403-.839.597-1.504.233-.797.462-1.26.672-1.357.84-.388 1.9-2.441 2.162-4.186.09-.604.209-.812.574-1 .253-.131.513-.372.578-.536.241-.605.748-2.644.758-3.048.007-.29.207-.553.658-.864.356-.246.772-.711.925-1.034.206-.433.469-.658 1.009-.865.401-.153.774-.419.829-.591.055-.172.162-.312.239-.312.182 0 1.004-1.406 1.004-1.718 0-.132.208-.282.461-.333.253-.05.647-.254.875-.452.228-.198.497-.41.598-.47.217-.13 1.127-1.536 1.151-1.777.009-.092.1-.361.202-.599.102-.237.233-.8.292-1.25.171-1.314.248-1.568.476-1.568.646 0 1.445-1.854 1.445-3.354 0-1.113.02-1.165.659-1.805 1.182-1.182 1.549-2.354 1.085-3.465-.255-.61-.254-.614.292-1.119.76-.704 1.131-1.326 1.131-1.9 0-.365.094-.512.375-.587.424-.112 1.792-1.297 1.792-1.552 0-.092.131-.422.291-.734.184-.359.299-.988.313-1.714l.022-1.146.792-.677c1.212-1.036 1.837-3.932.957-4.428-.274-.154-.272-.184.041-.486.388-.374.833-.994.836-1.165.001-.065.107-.369.235-.677.186-.443.194-.669.04-1.095-.107-.295-.194-.645-.194-.777s-.15-.521-.334-.863c-.183-.343-.277-.623-.208-.624.069 0 .268-.244.443-.541 1.194-2.032 1.334-2.706.765-3.672l-.334-.566.584-.602c.427-.439.584-.749.585-1.151.001-.46.104-.609.625-.909.673-.388 1.374-1.767 1.374-2.705 0-.304.193-.678.542-1.048 1.129-1.2 1.539-2.344 1.559-4.349.013-1.291.085-1.875.257-2.083.687-.831.785-1.381.578-3.254-.182-1.65.495-2.588 1.229-1.704.113.137.259.215.324.175.065-.04.241.055.392.211.913.945 1.292 1.242 3.565 2.791.292.198.653.484.804.634.151.151.375.274.498.274s.249.057.28.127c.347.791 3.747 1.411 4.217.769.11-.151.489-.294.852-.321a27.912 27.912 0 0 0 1.794-.234c.822-.134 1.505-.136 2.443-.007.716.098 1.552.201 1.859.23.607.057 2.461.417 5.032.979 2.057.449 2.817.21 2.91-.918.061-.736-.186-.882-1.968-1.163a30.548 30.548 0 0 1-2.294-.483c-.665-.172-1.389-.312-1.607-.312-.383 0-2.33-.532-3.016-.824a27.409 27.409 0 0 0-.875-.346c-.298-.112-.542-.256-.542-.319 0-.402 3.994-2.527 5.353-2.847a62.304 62.304 0 0 0 1.999-.521c.605-.17 1.236-.31 1.402-.31.165 0 .682-.109 1.148-.244.467-.134 1.072-.29 1.345-.346 1.442-.296 3.063-3.427 3.836-7.41.152-.779.42-1.954.596-2.61.177-.657.322-1.407.323-1.667 0-.26.15-.96.332-1.556.328-1.074.481-4.421.232-5.07-.17-.443-1.269-.343-1.703.155-.317.364-.452.405-1.046.31-.722-.116-1.462.449-1.477 1.127-.008.347-.84.934-.84.593 0-.322-1.168-1.782-1.426-1.782-.118 0-.427-.212-.686-.471-.84-.839-1.424-.813-2.168.097-.35.428-.805.953-1.011 1.167-.207.214-.375.559-.375.766 0 .208-.11.523-.245.701-.428.566-.289.969.656 1.902l.911.899-1.369.463c-.803.271-1.744.465-2.272.469-1.126.009-3.634.445-4.848.843-.658.216-1.692.329-3.667.401-1.512.055-3.75.146-4.973.203l-2.223.102.118-1.658c.121-1.706-.075-2.567-.626-2.761-.156-.055-.119-.204.136-.557.433-.601.639-2.636.374-3.691-.246-.975-.353-.944 3.077-.894l3.042.044 1.079-.714c.594-.393 1.179-.85 1.299-1.016.121-.165.279-.264.351-.219.072.044.303-.102.513-.326.21-.223.437-.372.505-.33.068.042.222-.041.342-.186.334-.403 2.358-1.256 4.82-2.032a24.677 24.677 0 0 0 1.89-.689c.443-.191.875-.305.958-.253.083.051.152.001.152-.111s.047-.157.104-.1c.058.058.316-.005.575-.138.258-.134.605-.267.77-.297 1.859-.331 2.512-1.13 1.709-2.093l-.33-.397-1.039.282c-1.003.272-1.993.564-4.289 1.265-3.789 1.156-4.665 1.258-5.532.64-.548-.39-.565-1.319-.042-2.329.125-.242.18-.486.123-.544-.058-.057-.017-.104.09-.104s.194-.113.194-.25c0-.138.074-.25.163-.25.09 0 .211-.188.269-.417.057-.229.155-.417.217-.417s.235-.206.384-.458c.493-.832 1.63-1.877 3.09-2.837.478-.315.851-.754 1.154-1.362l.447-.897-.193-2.015c-.225-2.359-.478-3.801-.797-4.557a7.736 7.736 0 0 1-.258-.666c-.136-.585-2.748-4.181-3.05-4.198-.086-.005-.436-.31-.778-.676-.342-.367-.691-.667-.776-.667-.382 0-1.039.784-1.039 1.24 0 .263-.174.711-.387.994-.213.284-.446.666-.518.849-.114.288-.167.24-.391-.357-.419-1.114-1.65-1.5-3.268-1.024-1 .294-1.127.522-1.044 1.881.062 1.034.229 1.59.786 2.623.085.159.156 1.027.156 1.928v1.639l-.875.468c-.482.257-1.273.678-1.759.935-.486.258-1.119.699-1.407.98-.287.281-.661.511-.831.511-.17 0-.53.15-.802.333l-.986.667c-.272.183-.691.333-.933.333-.242 0-.656.128-.921.284-.42.249-.621.261-1.596.094-.647-.111-1.228-.131-1.384-.048-.442.237-4.213 1.17-4.728 1.17-.263 0-.714.11-1.003.245-.714.333-4.581.91-6.056.904-.659-.003-1.355.079-1.548.182-.413.221-3.317.338-3.44.139-.158-.255-1.734-.158-1.838.113-.052.138-.238.25-.411.25-.174 0-.316.057-.316.125 0 .069-1.031.135-2.291.146-2.369.022-4.617.279-4.966.569-.313.259-1.668.257-2.156-.005-.474-.253-.745-.073-.751.499-.003.266.108.254-3.502.397-3.893.154-4.86.265-5.298.611-.228.179-.524.325-.657.325-.134 0-.459.127-.721.282-.454.268-.495.266-.827-.034-.556-.504-2.382-.563-3.01-.098-.541.399-.378.39-4.987.279l-3.25-.078-1.521.725c-.836.399-1.698.908-1.916 1.131-1.115 1.141-2.681 1.739-5.147 1.966-1.054.097-2.048.215-2.208.263-.242.072-.292-.022-.293-.55-.001-.35-.186-1.031-.411-1.514-.224-.483-.411-.914-.414-.959-.014-.211-1.552-3.255-1.687-3.338-.084-.052-.154-.334-.154-.627-.001-.358-.161-.702-.493-1.056-.27-.289-.538-.711-.595-.938-.057-.228-.361-.663-.674-.967-.401-.388-.572-.704-.575-1.061-.005-.737-.251-1.686-.516-1.997-1.227-1.439-1.834-1.929-2.386-1.929-.316 0-.619-.073-.674-.162-.16-.258-1.411-.547-2.55-.59-1.014-.038-1.703-.36-1.703-.797 0-.09-.124-.255-.277-.366-.257-.189-.257-.23 0-.598.395-.563.354-1.402-.089-1.815-.283-.264-.321-.385-.166-.54.329-.329.226-.796-.212-.963-.536-.204-1.181-1.492-1.338-2.669-.149-1.119-.195-1.178-1.66-2.127-.646-.418-1.335-.917-1.531-1.109-.196-.191-.834-.593-1.417-.893-.583-.3-1.585-.878-2.227-1.284-.641-.407-1.273-.743-1.403-.747-.13-.003-.36-.118-.51-.254-.322-.291-2.677-.913-3.473-.917-.602-.003-.609-.079-.117-1.252.224-.533.288-.937.318-2 .01-.367.065-.705.123-.75.646-.519.979-1.443.986-2.732.004-.743.116-1.652.248-2.018a4.97 4.97 0 0 0 .242-1.392c.003-.599.1-.822.564-1.286.308-.308.652-.807.763-1.108.112-.301.321-.81.465-1.131.458-1.02.509-4.293.072-4.6-.299-.209-.322-.303-.16-.66.143-.312.14-.862-.01-2.203-.111-.983-.192-1.937-.181-2.12.045-.796-.936-2.748-2.135-4.247-.206-.257-.375-.554-.375-.659 0-.105-.3-.485-.667-.844-.366-.36-.666-.795-.666-.968 0-.373-.5-.866-.879-.866-.147 0-.31-.066-.36-.148-.05-.081-.336-.187-.635-.235-.878-.14-.991-.184-2.126-.822-1.058-.594-2.248-.999-2.917-.992-3.402.034-5.913.184-6.259.374-.224.123-.858.272-1.408.332-.977.107-2.583.937-2.583 1.336 0 .086-.114.155-.252.155-.139 0-.383.071-.542.158-.159.087-.557.2-.884.252-.878.139-1.655 1.375-1.655 2.633 0 .297-.201.746-.506 1.131-.571.721-1.018 2.258-1.332 4.576-.111.825-.277 1.642-.367 1.815a2.526 2.526 0 0 0-.212.75c-.256 2.375-.278 3.033-.115 3.5.13.372.13.519 0 .519-.813 0-1.022.784-1.094 4.114l-.069 3.203.496.466c.273.257.832.779 1.243 1.162l.745.694.097 4.639c.053 2.551.144 4.83.202 5.064.083.337.024.467-.283.624-.674.344-1.043.608-1.271.909-.121.16-.328.291-.46.291a.242.242 0 0 0-.241.241c0 .132-.143.34-.317.462-.174.122-.53.657-.791 1.189-.449.917-.5.962-.975.868-.275-.054-1.189-.168-2.032-.253-.842-.085-1.819-.232-2.17-.327a11.03 11.03 0 0 0-1.222-.247c-.321-.041-.968-.226-1.437-.411-.469-.185-.889-.3-.933-.256-.044.044-.467-.073-.941-.26-.473-.186-1.064-.339-1.313-.34-.249 0-.698-.15-.998-.333-.3-.183-.656-.333-.792-.333-.135 0-.246-.075-.246-.166 0-.092-.112-.167-.25-.167-.137 0-.25-.057-.25-.126s-.468-.3-1.041-.513c-1.326-.492-2.792-1.226-2.792-1.396 0-.073-.121-.132-.269-.132-.203 0-.241-.093-.155-.375.47-1.539.473-1.596.11-2.292-.409-.785-.445-1.215-.124-1.482.144-.12.273-.755.349-1.724.106-1.361.177-1.606.622-2.168.389-.492.488-.762.436-1.2-.059-.512-.02-.573.425-.663 1.212-.242 1.413-2.705.356-4.357-.321-.501-.584-.967-.584-1.034-.001-.067-.116-.341-.256-.61-.398-.762-.363-2.68.065-3.595.53-1.131.462-2.598-.242-5.25-.06-.226.078-.502.428-.86.97-.989 1.809-3.39 1.185-3.39-.099 0-.179-.158-.179-.352 0-.394-1.088-1.478-1.491-1.486-.304-.007-.84-.383-.848-.597-.014-.359-.595-1.339-.761-1.282-.101.034-.279-.053-.396-.194-.123-.148-.48-.255-.854-.255-.54 0-.681-.077-.893-.486-.261-.504-1.013-.861-1.763-.836-.508.016-.836-.058-1.161-.261-.597-.374-2.078-1.084-2.261-1.084-.111 0-.566-.109-1.012-.241a19.914 19.914 0 0 0-1.256-.334c-.245-.05-.668-.279-.941-.508-.536-.452-1.016-.531-1.327-.22-.201.201-.378.147-1.562-.467-.423-.22-3.7-.305-4.558-.119" fill="#5cfc54"/><path d="M268.548 18.583c.001.459.033.626.072.373a2.968 2.968 0 0 0-.003-.833c-.039-.205-.071.002-.069.46M224.879 32c0 .412.032.581.072.375.04-.206.04-.544 0-.75-.04-.206-.072-.038-.072.375m118.829 32.119c.252.039.665.039.917 0 .252-.038.046-.069-.458-.069-.505 0-.711.031-.459.069M197.347 96.714c.038.026.215.157.393.291.178.135.272.158.208.051a.188.188 0 0 1 .093-.279c.115-.046-.01-.09-.277-.097-.267-.007-.455.008-.417.034m-34.22 81.404c.207.04.507.038.667-.003.159-.042-.011-.075-.377-.073-.367.002-.497.036-.29.076m145.087 42.632c.002.458.034.626.072.373a2.94 2.94 0 0 0-.002-.834c-.04-.205-.071.003-.07.461m-17.276 23.382c-.045.072.176.102.49.065.315-.037.572-.096.572-.132 0-.125-.981-.064-1.062.067m-182.719 41.159c1.357.028 3.532.028 4.833 0 1.301-.028.19-.051-2.469-.051-2.658 0-3.722.023-2.364.051m157.489 11.328c.252.039.665.039.917 0 .252-.038.046-.069-.458-.069-.505 0-.711.031-.459.069m-192.656 6.798c.001.55.032.755.069.455.037-.3.036-.75-.002-1s-.068-.005-.067.545m120.49 7.365c.16.041.423.041.583 0 .16-.042.029-.077-.292-.077s-.452.035-.291.077" fill="#60fc54"/></g></svg>